<?xml version="1.0" encoding="utf-8" standalone="no"?>
<!DOCTYPE svg PUBLIC "-//W3C//DTD SVG 1.1//EN"
  "http://www.w3.org/Graphics/SVG/1.1/DTD/svg11.dtd">
<svg xmlns:xlink="http://www.w3.org/1999/xlink" width="614.883334pt" height="280.984187pt" viewBox="0 0 614.883334 280.984187" xmlns="http://www.w3.org/2000/svg" version="1.1">
 <metadata>
  <rdf:RDF xmlns:dc="http://purl.org/dc/elements/1.1/" xmlns:cc="http://creativecommons.org/ns#" xmlns:rdf="http://www.w3.org/1999/02/22-rdf-syntax-ns#">
   <cc:Work>
    <dc:type rdf:resource="http://purl.org/dc/dcmitype/StillImage"/>
    <dc:date>2026-07-14T14:52:40.797343</dc:date>
    <dc:format>image/svg+xml</dc:format>
    <dc:creator>
     <cc:Agent>
      <dc:title>Matplotlib v3.10.6, https://matplotlib.org/</dc:title>
     </cc:Agent>
    </dc:creator>
   </cc:Work>
  </rdf:RDF>
 </metadata>
 <defs>
  <style type="text/css">*{stroke-linejoin: round; stroke-linecap: butt}</style>
 </defs>
 <g id="figure_1">
  <g id="patch_1">
   <path d="M 0 280.984187 
L 614.883334 280.984187 
L 614.883334 0 
L 0 0 
z
" style="fill: #ffffff"/>
  </g>
  <g id="axes_1">
   <g id="patch_2">
    <path d="M 87.559719 243.718281 
L 286.404719 243.718281 
L 286.404719 23.558281 
L 87.559719 23.558281 
z
" style="fill: #ffffff"/>
   </g>
   <g id="matplotlib.axis_1">
    <g id="xtick_1">
     <g id="line2d_1">
      <path d="M 118.751091 243.718281 
L 118.751091 23.558281 
" clip-path="url(#pc6ff6f6052)" style="fill: none; stroke: #d8dee6; stroke-width: 0.6; stroke-linecap: square"/>
     </g>
     <g id="line2d_2">
      <defs>
       <path id="m1a4df83d9f" d="M 0 0 
L 0 3.5 
" style="stroke: #000000; stroke-width: 0.8"/>
      </defs>
      <g>
       <use xlink:href="#m1a4df83d9f" x="118.751091" y="243.718281" style="stroke: #000000; stroke-width: 0.8"/>
      </g>
     </g>
     <g id="text_1">
      <text style="font-size: 9.2px; font-family: 'DejaVu Sans'; text-anchor: middle" x="118.751091" y="257.708844" transform="rotate(-0 118.751091 257.708844)">0.96</text>
     </g>
    </g>
    <g id="xtick_2">
     <g id="line2d_3">
      <path d="M 157.740307 243.718281 
L 157.740307 23.558281 
" clip-path="url(#pc6ff6f6052)" style="fill: none; stroke: #d8dee6; stroke-width: 0.6; stroke-linecap: square"/>
     </g>
     <g id="line2d_4">
      <g>
       <use xlink:href="#m1a4df83d9f" x="157.740307" y="243.718281" style="stroke: #000000; stroke-width: 0.8"/>
      </g>
     </g>
     <g id="text_2">
      <text style="font-size: 9.2px; font-family: 'DejaVu Sans'; text-anchor: middle" x="157.740307" y="257.708844" transform="rotate(-0 157.740307 257.708844)">0.97</text>
     </g>
    </g>
    <g id="xtick_3">
     <g id="line2d_5">
      <path d="M 196.729523 243.718281 
L 196.729523 23.558281 
" clip-path="url(#pc6ff6f6052)" style="fill: none; stroke: #d8dee6; stroke-width: 0.6; stroke-linecap: square"/>
     </g>
     <g id="line2d_6">
      <g>
       <use xlink:href="#m1a4df83d9f" x="196.729523" y="243.718281" style="stroke: #000000; stroke-width: 0.8"/>
      </g>
     </g>
     <g id="text_3">
      <text style="font-size: 9.2px; font-family: 'DejaVu Sans'; text-anchor: middle" x="196.729523" y="257.708844" transform="rotate(-0 196.729523 257.708844)">0.98</text>
     </g>
    </g>
    <g id="xtick_4">
     <g id="line2d_7">
      <path d="M 235.718738 243.718281 
L 235.718738 23.558281 
" clip-path="url(#pc6ff6f6052)" style="fill: none; stroke: #d8dee6; stroke-width: 0.6; stroke-linecap: square"/>
     </g>
     <g id="line2d_8">
      <g>
       <use xlink:href="#m1a4df83d9f" x="235.718738" y="243.718281" style="stroke: #000000; stroke-width: 0.8"/>
      </g>
     </g>
     <g id="text_4">
      <text style="font-size: 9.2px; font-family: 'DejaVu Sans'; text-anchor: middle" x="235.718738" y="257.708844" transform="rotate(-0 235.718738 257.708844)">0.99</text>
     </g>
    </g>
    <g id="xtick_5">
     <g id="line2d_9">
      <path d="M 274.707954 243.718281 
L 274.707954 23.558281 
" clip-path="url(#pc6ff6f6052)" style="fill: none; stroke: #d8dee6; stroke-width: 0.6; stroke-linecap: square"/>
     </g>
     <g id="line2d_10">
      <g>
       <use xlink:href="#m1a4df83d9f" x="274.707954" y="243.718281" style="stroke: #000000; stroke-width: 0.8"/>
      </g>
     </g>
     <g id="text_5">
      <text style="font-size: 9.2px; font-family: 'DejaVu Sans'; text-anchor: middle" x="274.707954" y="257.708844" transform="rotate(-0 274.707954 257.708844)">1.00</text>
     </g>
    </g>
    <g id="text_6">
     <text style="font-size: 10.5px; font-family: 'DejaVu Sans'; text-anchor: middle" x="186.982219" y="271.600516" transform="rotate(-0 186.982219 271.600516)">Correlation with full human PC1</text>
    </g>
   </g>
   <g id="matplotlib.axis_2">
    <g id="ytick_1">
     <g id="line2d_11">
      <defs>
       <path id="mfd207de49a" d="M 0 0 
L -3.5 0 
" style="stroke: #000000; stroke-width: 0.8"/>
      </defs>
      <g>
       <use xlink:href="#mfd207de49a" x="87.559719" y="33.565554" style="stroke: #000000; stroke-width: 0.8"/>
      </g>
     </g>
     <g id="text_7">
      <text style="font-size: 9.2px; font-family: 'DejaVu Sans'; text-anchor: end" x="80.559719" y="37.060835" transform="rotate(-0 80.559719 37.060835)">Gejman</text>
     </g>
    </g>
    <g id="ytick_2">
     <g id="line2d_12">
      <g>
       <use xlink:href="#mfd207de49a" x="87.559719" y="62.157762" style="stroke: #000000; stroke-width: 0.8"/>
      </g>
     </g>
     <g id="text_8">
      <text style="font-size: 9.2px; font-family: 'DejaVu Sans'; text-anchor: end" x="80.559719" y="65.653043" transform="rotate(-0 80.559719 65.653043)">Rinn</text>
     </g>
    </g>
    <g id="ytick_3">
     <g id="line2d_13">
      <g>
       <use xlink:href="#mfd207de49a" x="87.559719" y="90.74997" style="stroke: #000000; stroke-width: 0.8"/>
      </g>
     </g>
     <g id="text_9">
      <text style="font-size: 9.2px; font-family: 'DejaVu Sans'; text-anchor: end" x="80.559719" y="94.245251" transform="rotate(-0 80.559719 94.245251)">Dieterich</text>
     </g>
    </g>
    <g id="ytick_4">
     <g id="line2d_14">
      <g>
       <use xlink:href="#mfd207de49a" x="87.559719" y="119.342177" style="stroke: #000000; stroke-width: 0.8"/>
      </g>
     </g>
     <g id="text_10">
      <text style="font-size: 9.2px; font-family: 'DejaVu Sans'; text-anchor: end" x="80.559719" y="122.837459" transform="rotate(-0 80.559719 122.837459)">Rissland2</text>
     </g>
    </g>
    <g id="ytick_5">
     <g id="line2d_15">
      <g>
       <use xlink:href="#mfd207de49a" x="87.559719" y="147.934385" style="stroke: #000000; stroke-width: 0.8"/>
      </g>
     </g>
     <g id="text_11">
      <text style="font-size: 9.2px; font-family: 'DejaVu Sans'; text-anchor: end" x="80.559719" y="151.429666" transform="rotate(-0 80.559719 151.429666)">Bazzini</text>
     </g>
    </g>
    <g id="ytick_6">
     <g id="line2d_16">
      <g>
       <use xlink:href="#mfd207de49a" x="87.559719" y="176.526593" style="stroke: #000000; stroke-width: 0.8"/>
      </g>
     </g>
     <g id="text_12">
      <text style="font-size: 9.2px; font-family: 'DejaVu Sans'; text-anchor: end" x="80.559719" y="180.021874" transform="rotate(-0 80.559719 180.021874)">Rissland</text>
     </g>
    </g>
    <g id="ytick_7">
     <g id="line2d_17">
      <g>
       <use xlink:href="#mfd207de49a" x="87.559719" y="205.118801" style="stroke: #000000; stroke-width: 0.8"/>
      </g>
     </g>
     <g id="text_13">
      <text style="font-size: 9.2px; font-family: 'DejaVu Sans'; text-anchor: end" x="80.559719" y="208.614082" transform="rotate(-0 80.559719 208.614082)">Oberdoerffer</text>
     </g>
    </g>
    <g id="ytick_8">
     <g id="line2d_18">
      <g>
       <use xlink:href="#mfd207de49a" x="87.559719" y="233.711009" style="stroke: #000000; stroke-width: 0.8"/>
      </g>
     </g>
     <g id="text_14">
      <text style="font-size: 9.2px; font-family: 'DejaVu Sans'; text-anchor: end" x="80.559719" y="237.20629" transform="rotate(-0 80.559719 237.20629)">Akimitsu</text>
     </g>
    </g>
    <g id="text_15">
     <text style="font-size: 10.5px; font-family: 'DejaVu Sans'; text-anchor: middle" x="15.178359" y="133.638281" transform="rotate(-90 15.178359 133.638281)">Study removed</text>
    </g>
   </g>
   <g id="line2d_19">
    <path d="M 274.707954 243.718281 
L 274.707954 23.558281 
" clip-path="url(#pc6ff6f6052)" style="fill: none; stroke-dasharray: 4,3; stroke-dashoffset: 0; stroke: #7b8794"/>
   </g>
   <g id="patch_3">
    <path d="M 87.559719 243.718281 
L 87.559719 23.558281 
" style="fill: none; stroke: #000000; stroke-width: 0.8; stroke-linejoin: miter; stroke-linecap: square"/>
   </g>
   <g id="patch_4">
    <path d="M 286.404719 243.718281 
L 286.404719 23.558281 
" style="fill: none; stroke: #000000; stroke-width: 0.8; stroke-linejoin: miter; stroke-linecap: square"/>
   </g>
   <g id="patch_5">
    <path d="M 87.559719 243.718281 
L 286.404719 243.718281 
" style="fill: none; stroke: #000000; stroke-width: 0.8; stroke-linejoin: miter; stroke-linecap: square"/>
   </g>
   <g id="patch_6">
    <path d="M 87.559719 23.558281 
L 286.404719 23.558281 
" style="fill: none; stroke: #000000; stroke-width: 0.8; stroke-linejoin: miter; stroke-linecap: square"/>
   </g>
   <g id="PathCollection_1">
    <defs>
     <path id="md14a6688d0" d="M 0 3.807887 
C 1.009863 3.807887 1.978501 3.406664 2.692582 2.692582 
C 3.406664 1.978501 3.807887 1.009863 3.807887 0 
C 3.807887 -1.009863 3.406664 -1.978501 2.692582 -2.692582 
C 1.978501 -3.406664 1.009863 -3.807887 0 -3.807887 
C -1.009863 -3.807887 -1.978501 -3.406664 -2.692582 -2.692582 
C -3.406664 -1.978501 -3.807887 -1.009863 -3.807887 0 
C -3.807887 1.009863 -3.406664 1.978501 -2.692582 2.692582 
C -1.978501 3.406664 -1.009863 3.807887 0 3.807887 
z
" style="stroke: #ef7d00"/>
    </defs>
    <g clip-path="url(#pc6ff6f6052)">
     <use xlink:href="#md14a6688d0" x="99.446552" y="33.565554" style="fill: #ef7d00; stroke: #ef7d00"/>
    </g>
   </g>
   <g id="PathCollection_2">
    <defs>
     <path id="ma2478e8c75" d="M 0 3.807887 
C 1.009863 3.807887 1.978501 3.406664 2.692582 2.692582 
C 3.406664 1.978501 3.807887 1.009863 3.807887 0 
C 3.807887 -1.009863 3.406664 -1.978501 2.692582 -2.692582 
C 1.978501 -3.406664 1.009863 -3.807887 0 -3.807887 
C -1.009863 -3.807887 -1.978501 -3.406664 -2.692582 -2.692582 
C -3.406664 -1.978501 -3.807887 -1.009863 -3.807887 0 
C -3.807887 1.009863 -3.406664 1.978501 -2.692582 2.692582 
C -1.978501 3.406664 -1.009863 3.807887 0 3.807887 
z
" style="stroke: #315fb0"/>
    </defs>
    <g clip-path="url(#pc6ff6f6052)">
     <use xlink:href="#ma2478e8c75" x="169.460432" y="62.157762" style="fill: #315fb0; stroke: #315fb0"/>
    </g>
   </g>
   <g id="PathCollection_3">
    <g clip-path="url(#pc6ff6f6052)">
     <use xlink:href="#ma2478e8c75" x="174.219501" y="90.74997" style="fill: #315fb0; stroke: #315fb0"/>
    </g>
   </g>
   <g id="PathCollection_4">
    <g clip-path="url(#pc6ff6f6052)">
     <use xlink:href="#ma2478e8c75" x="178.071356" y="119.342177" style="fill: #315fb0; stroke: #315fb0"/>
    </g>
   </g>
   <g id="PathCollection_5">
    <g clip-path="url(#pc6ff6f6052)">
     <use xlink:href="#ma2478e8c75" x="226.259246" y="147.934385" style="fill: #315fb0; stroke: #315fb0"/>
    </g>
   </g>
   <g id="PathCollection_6">
    <g clip-path="url(#pc6ff6f6052)">
     <use xlink:href="#ma2478e8c75" x="228.020495" y="176.526593" style="fill: #315fb0; stroke: #315fb0"/>
    </g>
   </g>
   <g id="PathCollection_7">
    <g clip-path="url(#pc6ff6f6052)">
     <use xlink:href="#ma2478e8c75" x="243.612809" y="205.118801" style="fill: #315fb0; stroke: #315fb0"/>
    </g>
   </g>
   <g id="PathCollection_8">
    <g clip-path="url(#pc6ff6f6052)">
     <use xlink:href="#ma2478e8c75" x="244.049555" y="233.711009" style="fill: #315fb0; stroke: #315fb0"/>
    </g>
   </g>
   <g id="text_16">
    <text style="font-weight: 700; font-size: 13px; font-family: 'DejaVu Sans'; text-anchor: start; fill: #1f2933" x="63.698319" y="24.62985" transform="rotate(-0 63.698319 24.62985)">a</text>
   </g>
   <g id="text_17">
    <text style="font-size: 11.8px; font-family: 'DejaVu Sans'; text-anchor: middle; fill: #1f2933" x="186.982219" y="17.558281" transform="rotate(-0 186.982219 17.558281)">Full-label geometry</text>
   </g>
   <g id="text_18">
    <g id="patch_7">
     <path d="M 107.50818 45.793278 
L 133.160367 45.793278 
Q 133.848367 45.793278 133.848367 45.105278 
L 133.848367 35.75009 
Q 133.848367 35.06209 133.160367 35.06209 
L 107.50818 35.06209 
Q 106.82018 35.06209 106.82018 35.75009 
L 106.82018 45.105278 
Q 106.82018 45.793278 107.50818 45.793278 
z
" style="fill: #ffffff; opacity: 0.92"/>
    </g>
    <path d="M 110.757367 37.089809 
Q 110.102961 37.089809 109.772399 37.734809 
Q 109.44318 38.378465 109.44318 39.672496 
Q 109.44318 40.961153 109.772399 41.606153 
Q 110.102961 42.251153 110.757367 42.251153 
Q 111.417149 42.251153 111.746367 41.606153 
Q 112.07693 40.961153 112.07693 39.672496 
Q 112.07693 38.378465 111.746367 37.734809 
Q 111.417149 37.089809 110.757367 37.089809 
z
M 110.757367 36.417934 
Q 111.812211 36.417934 112.368524 37.252403 
Q 112.924836 38.085528 112.924836 39.672496 
Q 112.924836 41.255434 112.368524 42.089903 
Q 111.812211 42.923028 110.757367 42.923028 
Q 109.703867 42.923028 109.147555 42.089903 
Q 108.591242 41.255434 108.591242 39.672496 
Q 108.591242 38.085528 109.147555 37.252403 
Q 109.703867 36.417934 110.757367 36.417934 
z
M 114.414887 41.733809 
L 115.301762 41.733809 
L 115.301762 42.800746 
L 114.414887 42.800746 
L 114.414887 41.733809 
z
M 117.17411 42.670403 
L 117.17411 41.897746 
Q 117.493922 42.04959 117.820453 42.128871 
Q 118.148328 42.208153 118.46411 42.208153 
Q 119.303953 42.208153 119.746047 41.643778 
Q 120.189485 41.079403 120.252641 39.927809 
Q 120.009422 40.289278 119.634516 40.482778 
Q 119.260953 40.676278 118.80811 40.676278 
Q 117.867485 40.676278 117.319235 40.107871 
Q 116.770985 39.538121 116.770985 38.550465 
Q 116.770985 37.585653 117.342078 37.002465 
Q 117.913172 36.417934 118.86186 36.417934 
Q 119.950297 36.417934 120.522735 37.252403 
Q 121.096516 38.085528 121.096516 39.672496 
Q 121.096516 41.154653 120.392391 42.03884 
Q 119.68961 42.923028 118.501735 42.923028 
Q 118.181922 42.923028 117.854047 42.859871 
Q 117.527516 42.796715 117.17411 42.670403 
z
M 118.86186 40.012465 
Q 119.432953 40.012465 119.766203 39.622778 
Q 120.100797 39.231746 120.100797 38.550465 
Q 120.100797 37.874559 119.766203 37.482184 
Q 119.432953 37.089809 118.86186 37.089809 
Q 118.290766 37.089809 117.957516 37.482184 
Q 117.624266 37.874559 117.624266 38.550465 
Q 117.624266 39.231746 117.957516 39.622778 
Q 118.290766 40.012465 118.86186 40.012465 
z
M 122.629567 36.530809 
L 125.959379 36.530809 
L 125.959379 37.245684 
L 123.406254 37.245684 
L 123.406254 38.78159 
Q 123.590348 38.718434 123.774442 38.687528 
Q 123.959879 38.656621 124.145317 38.656621 
Q 125.194785 38.656621 125.807535 39.231746 
Q 126.421629 39.806871 126.421629 40.789153 
Q 126.421629 41.800996 125.79141 42.362684 
Q 125.161192 42.923028 124.014973 42.923028 
Q 123.61991 42.923028 123.210067 42.85584 
Q 122.801567 42.788653 122.364848 42.654278 
L 122.364848 41.800996 
Q 122.742442 42.00659 123.145567 42.107371 
Q 123.548692 42.208153 123.997504 42.208153 
Q 124.724473 42.208153 125.147754 41.826528 
Q 125.572379 41.444903 125.572379 40.789153 
Q 125.572379 40.134746 125.147754 39.753121 
Q 124.724473 39.370153 123.997504 39.370153 
Q 123.657535 39.370153 123.31891 39.445403 
Q 122.981629 39.520653 122.629567 39.680559 
L 122.629567 36.530809 
z
M 128.101149 36.530809 
L 131.430961 36.530809 
L 131.430961 37.245684 
L 128.877836 37.245684 
L 128.877836 38.78159 
Q 129.06193 38.718434 129.246024 38.687528 
Q 129.431461 38.656621 129.616899 38.656621 
Q 130.666367 38.656621 131.279117 39.231746 
Q 131.893211 39.806871 131.893211 40.789153 
Q 131.893211 41.800996 131.262992 42.362684 
Q 130.632774 42.923028 129.486555 42.923028 
Q 129.091492 42.923028 128.681649 42.85584 
Q 128.273149 42.788653 127.83643 42.654278 
L 127.83643 41.800996 
Q 128.214024 42.00659 128.617149 42.107371 
Q 129.020274 42.208153 129.469086 42.208153 
Q 130.196055 42.208153 130.619336 41.826528 
Q 131.043961 41.444903 131.043961 40.789153 
Q 131.043961 40.134746 130.619336 39.753121 
Q 130.196055 39.370153 129.469086 39.370153 
Q 129.129117 39.370153 128.790492 39.445403 
Q 128.453211 39.520653 128.101149 39.680559 
L 128.101149 36.530809 
z
" style="fill: #ef7d00; stroke: #ffffff"/>
    <path d="M 110.757367 37.089809 
Q 110.102961 37.089809 109.772399 37.734809 
Q 109.44318 38.378465 109.44318 39.672496 
Q 109.44318 40.961153 109.772399 41.606153 
Q 110.102961 42.251153 110.757367 42.251153 
Q 111.417149 42.251153 111.746367 41.606153 
Q 112.07693 40.961153 112.07693 39.672496 
Q 112.07693 38.378465 111.746367 37.734809 
Q 111.417149 37.089809 110.757367 37.089809 
z
M 110.757367 36.417934 
Q 111.812211 36.417934 112.368524 37.252403 
Q 112.924836 38.085528 112.924836 39.672496 
Q 112.924836 41.255434 112.368524 42.089903 
Q 111.812211 42.923028 110.757367 42.923028 
Q 109.703867 42.923028 109.147555 42.089903 
Q 108.591242 41.255434 108.591242 39.672496 
Q 108.591242 38.085528 109.147555 37.252403 
Q 109.703867 36.417934 110.757367 36.417934 
z
M 114.414887 41.733809 
L 115.301762 41.733809 
L 115.301762 42.800746 
L 114.414887 42.800746 
L 114.414887 41.733809 
z
M 117.17411 42.670403 
L 117.17411 41.897746 
Q 117.493922 42.04959 117.820453 42.128871 
Q 118.148328 42.208153 118.46411 42.208153 
Q 119.303953 42.208153 119.746047 41.643778 
Q 120.189485 41.079403 120.252641 39.927809 
Q 120.009422 40.289278 119.634516 40.482778 
Q 119.260953 40.676278 118.80811 40.676278 
Q 117.867485 40.676278 117.319235 40.107871 
Q 116.770985 39.538121 116.770985 38.550465 
Q 116.770985 37.585653 117.342078 37.002465 
Q 117.913172 36.417934 118.86186 36.417934 
Q 119.950297 36.417934 120.522735 37.252403 
Q 121.096516 38.085528 121.096516 39.672496 
Q 121.096516 41.154653 120.392391 42.03884 
Q 119.68961 42.923028 118.501735 42.923028 
Q 118.181922 42.923028 117.854047 42.859871 
Q 117.527516 42.796715 117.17411 42.670403 
z
M 118.86186 40.012465 
Q 119.432953 40.012465 119.766203 39.622778 
Q 120.100797 39.231746 120.100797 38.550465 
Q 120.100797 37.874559 119.766203 37.482184 
Q 119.432953 37.089809 118.86186 37.089809 
Q 118.290766 37.089809 117.957516 37.482184 
Q 117.624266 37.874559 117.624266 38.550465 
Q 117.624266 39.231746 117.957516 39.622778 
Q 118.290766 40.012465 118.86186 40.012465 
z
M 122.629567 36.530809 
L 125.959379 36.530809 
L 125.959379 37.245684 
L 123.406254 37.245684 
L 123.406254 38.78159 
Q 123.590348 38.718434 123.774442 38.687528 
Q 123.959879 38.656621 124.145317 38.656621 
Q 125.194785 38.656621 125.807535 39.231746 
Q 126.421629 39.806871 126.421629 40.789153 
Q 126.421629 41.800996 125.79141 42.362684 
Q 125.161192 42.923028 124.014973 42.923028 
Q 123.61991 42.923028 123.210067 42.85584 
Q 122.801567 42.788653 122.364848 42.654278 
L 122.364848 41.800996 
Q 122.742442 42.00659 123.145567 42.107371 
Q 123.548692 42.208153 123.997504 42.208153 
Q 124.724473 42.208153 125.147754 41.826528 
Q 125.572379 41.444903 125.572379 40.789153 
Q 125.572379 40.134746 125.147754 39.753121 
Q 124.724473 39.370153 123.997504 39.370153 
Q 123.657535 39.370153 123.31891 39.445403 
Q 122.981629 39.520653 122.629567 39.680559 
L 122.629567 36.530809 
z
M 128.101149 36.530809 
L 131.430961 36.530809 
L 131.430961 37.245684 
L 128.877836 37.245684 
L 128.877836 38.78159 
Q 129.06193 38.718434 129.246024 38.687528 
Q 129.431461 38.656621 129.616899 38.656621 
Q 130.666367 38.656621 131.279117 39.231746 
Q 131.893211 39.806871 131.893211 40.789153 
Q 131.893211 41.800996 131.262992 42.362684 
Q 130.632774 42.923028 129.486555 42.923028 
Q 129.091492 42.923028 128.681649 42.85584 
Q 128.273149 42.788653 127.83643 42.654278 
L 127.83643 41.800996 
Q 128.214024 42.00659 128.617149 42.107371 
Q 129.020274 42.208153 129.469086 42.208153 
Q 130.196055 42.208153 130.619336 41.826528 
Q 131.043961 41.444903 131.043961 40.789153 
Q 131.043961 40.134746 130.619336 39.753121 
Q 130.196055 39.370153 129.469086 39.370153 
Q 129.129117 39.370153 128.790492 39.445403 
Q 128.453211 39.520653 128.101149 39.680559 
L 128.101149 36.530809 
z
" style="fill: #ef7d00"/>
   </g>
   <g id="text_19">
    <g id="patch_8">
     <path d="M 127.948774 62.376758 
L 153.600961 62.376758 
Q 154.288961 62.376758 154.288961 61.688758 
L 154.288961 52.333571 
Q 154.288961 51.645571 153.600961 51.645571 
L 127.948774 51.645571 
Q 127.260774 51.645571 127.260774 52.333571 
L 127.260774 61.688758 
Q 127.260774 62.376758 127.948774 62.376758 
z
" style="fill: #ffffff; opacity: 0.92"/>
    </g>
    <path d="M 131.197961 53.673289 
Q 130.543555 53.673289 130.212993 54.318289 
Q 129.883774 54.961946 129.883774 56.255977 
Q 129.883774 57.544633 130.212993 58.189633 
Q 130.543555 58.834633 131.197961 58.834633 
Q 131.857743 58.834633 132.186961 58.189633 
Q 132.517524 57.544633 132.517524 56.255977 
Q 132.517524 54.961946 132.186961 54.318289 
Q 131.857743 53.673289 131.197961 53.673289 
z
M 131.197961 53.001414 
Q 132.252805 53.001414 132.809118 53.835883 
Q 133.36543 54.669008 133.36543 56.255977 
Q 133.36543 57.838914 132.809118 58.673383 
Q 132.252805 59.506508 131.197961 59.506508 
Q 130.144461 59.506508 129.588149 58.673383 
Q 129.031836 57.838914 129.031836 56.255977 
Q 129.031836 54.669008 129.588149 53.835883 
Q 130.144461 53.001414 131.197961 53.001414 
z
M 134.855481 58.317289 
L 135.742356 58.317289 
L 135.742356 59.384227 
L 134.855481 59.384227 
L 134.855481 58.317289 
z
M 137.614704 59.253883 
L 137.614704 58.481227 
Q 137.934516 58.633071 138.261047 58.712352 
Q 138.588922 58.791633 138.904704 58.791633 
Q 139.744547 58.791633 140.186641 58.227258 
Q 140.630079 57.662883 140.693235 56.511289 
Q 140.450016 56.872758 140.07511 57.066258 
Q 139.701547 57.259758 139.248704 57.259758 
Q 138.308079 57.259758 137.759829 56.691352 
Q 137.211579 56.121602 137.211579 55.133946 
Q 137.211579 54.169133 137.782672 53.585946 
Q 138.353766 53.001414 139.302454 53.001414 
Q 140.390891 53.001414 140.963329 53.835883 
Q 141.53711 54.669008 141.53711 56.255977 
Q 141.53711 57.738133 140.832985 58.622321 
Q 140.130204 59.506508 138.942329 59.506508 
Q 138.622516 59.506508 138.294641 59.443352 
Q 137.96811 59.380196 137.614704 59.253883 
z
M 139.302454 56.595946 
Q 139.873547 56.595946 140.206797 56.206258 
Q 140.541391 55.815227 140.541391 55.133946 
Q 140.541391 54.458039 140.206797 54.065664 
Q 139.873547 53.673289 139.302454 53.673289 
Q 138.73136 53.673289 138.39811 54.065664 
Q 138.06486 54.458039 138.06486 55.133946 
Q 138.06486 55.815227 138.39811 56.206258 
Q 138.73136 56.595946 139.302454 56.595946 
z
M 142.847098 53.114289 
L 146.878348 53.114289 
L 146.878348 53.475758 
L 144.602036 59.384227 
L 143.716504 59.384227 
L 145.858442 53.829164 
L 142.847098 53.829164 
L 142.847098 53.114289 
z
M 151.10293 56.003352 
Q 151.711649 56.133696 152.052961 56.546227 
Q 152.395618 56.957414 152.395618 57.562102 
Q 152.395618 58.489289 151.757336 58.998571 
Q 151.119055 59.506508 149.943274 59.506508 
Q 149.549555 59.506508 149.131649 59.428571 
Q 148.713743 59.350633 148.268961 59.194758 
L 148.268961 58.376414 
Q 148.621024 58.582008 149.040274 58.686821 
Q 149.460868 58.791633 149.919086 58.791633 
Q 150.71593 58.791633 151.133836 58.477196 
Q 151.551743 58.162758 151.551743 57.562102 
Q 151.551743 57.007133 151.163399 56.695383 
Q 150.775055 56.382289 150.083024 56.382289 
L 149.352024 56.382289 
L 149.352024 55.684883 
L 150.116618 55.684883 
Q 150.741461 55.684883 151.073368 55.434946 
Q 151.405274 55.185008 151.405274 54.714696 
Q 151.405274 54.232289 151.062618 53.974289 
Q 150.721305 53.714946 150.083024 53.714946 
Q 149.733649 53.714946 149.334555 53.791539 
Q 148.935461 53.866789 148.457086 54.025352 
L 148.457086 53.270164 
Q 148.940836 53.135789 149.362774 53.068602 
Q 149.784711 53.001414 150.158274 53.001414 
Q 151.12443 53.001414 151.686118 53.440821 
Q 152.249149 53.878883 152.249149 54.626008 
Q 152.249149 55.147383 151.950836 55.506164 
Q 151.652524 55.864946 151.10293 56.003352 
z
" style="fill: #315fb0; stroke: #ffffff"/>
    <path d="M 131.197961 53.673289 
Q 130.543555 53.673289 130.212993 54.318289 
Q 129.883774 54.961946 129.883774 56.255977 
Q 129.883774 57.544633 130.212993 58.189633 
Q 130.543555 58.834633 131.197961 58.834633 
Q 131.857743 58.834633 132.186961 58.189633 
Q 132.517524 57.544633 132.517524 56.255977 
Q 132.517524 54.961946 132.186961 54.318289 
Q 131.857743 53.673289 131.197961 53.673289 
z
M 131.197961 53.001414 
Q 132.252805 53.001414 132.809118 53.835883 
Q 133.36543 54.669008 133.36543 56.255977 
Q 133.36543 57.838914 132.809118 58.673383 
Q 132.252805 59.506508 131.197961 59.506508 
Q 130.144461 59.506508 129.588149 58.673383 
Q 129.031836 57.838914 129.031836 56.255977 
Q 129.031836 54.669008 129.588149 53.835883 
Q 130.144461 53.001414 131.197961 53.001414 
z
M 134.855481 58.317289 
L 135.742356 58.317289 
L 135.742356 59.384227 
L 134.855481 59.384227 
L 134.855481 58.317289 
z
M 137.614704 59.253883 
L 137.614704 58.481227 
Q 137.934516 58.633071 138.261047 58.712352 
Q 138.588922 58.791633 138.904704 58.791633 
Q 139.744547 58.791633 140.186641 58.227258 
Q 140.630079 57.662883 140.693235 56.511289 
Q 140.450016 56.872758 140.07511 57.066258 
Q 139.701547 57.259758 139.248704 57.259758 
Q 138.308079 57.259758 137.759829 56.691352 
Q 137.211579 56.121602 137.211579 55.133946 
Q 137.211579 54.169133 137.782672 53.585946 
Q 138.353766 53.001414 139.302454 53.001414 
Q 140.390891 53.001414 140.963329 53.835883 
Q 141.53711 54.669008 141.53711 56.255977 
Q 141.53711 57.738133 140.832985 58.622321 
Q 140.130204 59.506508 138.942329 59.506508 
Q 138.622516 59.506508 138.294641 59.443352 
Q 137.96811 59.380196 137.614704 59.253883 
z
M 139.302454 56.595946 
Q 139.873547 56.595946 140.206797 56.206258 
Q 140.541391 55.815227 140.541391 55.133946 
Q 140.541391 54.458039 140.206797 54.065664 
Q 139.873547 53.673289 139.302454 53.673289 
Q 138.73136 53.673289 138.39811 54.065664 
Q 138.06486 54.458039 138.06486 55.133946 
Q 138.06486 55.815227 138.39811 56.206258 
Q 138.73136 56.595946 139.302454 56.595946 
z
M 142.847098 53.114289 
L 146.878348 53.114289 
L 146.878348 53.475758 
L 144.602036 59.384227 
L 143.716504 59.384227 
L 145.858442 53.829164 
L 142.847098 53.829164 
L 142.847098 53.114289 
z
M 151.10293 56.003352 
Q 151.711649 56.133696 152.052961 56.546227 
Q 152.395618 56.957414 152.395618 57.562102 
Q 152.395618 58.489289 151.757336 58.998571 
Q 151.119055 59.506508 149.943274 59.506508 
Q 149.549555 59.506508 149.131649 59.428571 
Q 148.713743 59.350633 148.268961 59.194758 
L 148.268961 58.376414 
Q 148.621024 58.582008 149.040274 58.686821 
Q 149.460868 58.791633 149.919086 58.791633 
Q 150.71593 58.791633 151.133836 58.477196 
Q 151.551743 58.162758 151.551743 57.562102 
Q 151.551743 57.007133 151.163399 56.695383 
Q 150.775055 56.382289 150.083024 56.382289 
L 149.352024 56.382289 
L 149.352024 55.684883 
L 150.116618 55.684883 
Q 150.741461 55.684883 151.073368 55.434946 
Q 151.405274 55.185008 151.405274 54.714696 
Q 151.405274 54.232289 151.062618 53.974289 
Q 150.721305 53.714946 150.083024 53.714946 
Q 149.733649 53.714946 149.334555 53.791539 
Q 148.935461 53.866789 148.457086 54.025352 
L 148.457086 53.270164 
Q 148.940836 53.135789 149.362774 53.068602 
Q 149.784711 53.001414 150.158274 53.001414 
Q 151.12443 53.001414 151.686118 53.440821 
Q 152.249149 53.878883 152.249149 54.626008 
Q 152.249149 55.147383 151.950836 55.506164 
Q 151.652524 55.864946 151.10293 56.003352 
z
" style="fill: #315fb0"/>
   </g>
   <g id="text_20">
    <g id="patch_9">
     <path d="M 133.487628 99.546628 
L 159.139815 99.546628 
Q 159.827815 99.546628 159.827815 98.858628 
L 159.827815 89.503441 
Q 159.827815 88.815441 159.139815 88.815441 
L 133.487628 88.815441 
Q 132.799628 88.815441 132.799628 89.503441 
L 132.799628 98.858628 
Q 132.799628 99.546628 133.487628 99.546628 
z
" style="fill: #ffffff; opacity: 0.92"/>
    </g>
    <path d="M 136.736815 90.843159 
Q 136.082409 90.843159 135.751846 91.488159 
Q 135.422628 92.131816 135.422628 93.425847 
Q 135.422628 94.714503 135.751846 95.359503 
Q 136.082409 96.004503 136.736815 96.004503 
Q 137.396596 96.004503 137.725815 95.359503 
Q 138.056378 94.714503 138.056378 93.425847 
Q 138.056378 92.131816 137.725815 91.488159 
Q 137.396596 90.843159 136.736815 90.843159 
z
M 136.736815 90.171284 
Q 137.791659 90.171284 138.347971 91.005753 
Q 138.904284 91.838878 138.904284 93.425847 
Q 138.904284 95.008784 138.347971 95.843253 
Q 137.791659 96.676378 136.736815 96.676378 
Q 135.683315 96.676378 135.127003 95.843253 
Q 134.57069 95.008784 134.57069 93.425847 
Q 134.57069 91.838878 135.127003 91.005753 
Q 135.683315 90.171284 136.736815 90.171284 
z
M 140.394335 95.487159 
L 141.28121 95.487159 
L 141.28121 96.554097 
L 140.394335 96.554097 
L 140.394335 95.487159 
z
M 143.153557 96.423753 
L 143.153557 95.651097 
Q 143.47337 95.802941 143.799901 95.882222 
Q 144.127776 95.961503 144.443557 95.961503 
Q 145.283401 95.961503 145.725495 95.397128 
Q 146.168932 94.832753 146.232088 93.681159 
Q 145.98887 94.042628 145.613963 94.236128 
Q 145.240401 94.429628 144.787557 94.429628 
Q 143.846932 94.429628 143.298682 93.861222 
Q 142.750432 93.291472 142.750432 92.303816 
Q 142.750432 91.339003 143.321526 90.755816 
Q 143.89262 90.171284 144.841307 90.171284 
Q 145.929745 90.171284 146.502182 91.005753 
Q 147.075963 91.838878 147.075963 93.425847 
Q 147.075963 94.908003 146.371838 95.792191 
Q 145.669057 96.676378 144.481182 96.676378 
Q 144.16137 96.676378 143.833495 96.613222 
Q 143.506963 96.550066 143.153557 96.423753 
z
M 144.841307 93.765816 
Q 145.412401 93.765816 145.745651 93.376128 
Q 146.080245 92.985097 146.080245 92.303816 
Q 146.080245 91.627909 145.745651 91.235534 
Q 145.412401 90.843159 144.841307 90.843159 
Q 144.270213 90.843159 143.936963 91.235534 
Q 143.603713 91.627909 143.603713 92.303816 
Q 143.603713 92.985097 143.936963 93.376128 
Q 144.270213 93.765816 144.841307 93.765816 
z
M 148.385952 90.284159 
L 152.417202 90.284159 
L 152.417202 90.645628 
L 150.140889 96.554097 
L 149.255358 96.554097 
L 151.397295 90.999034 
L 148.385952 90.999034 
L 148.385952 90.284159 
z
M 156.402596 91.023222 
L 154.260659 94.370503 
L 156.402596 94.370503 
L 156.402596 91.023222 
z
M 156.179534 90.284159 
L 157.246471 90.284159 
L 157.246471 94.370503 
L 158.141409 94.370503 
L 158.141409 95.075972 
L 157.246471 95.075972 
L 157.246471 96.554097 
L 156.402596 96.554097 
L 156.402596 95.075972 
L 153.572659 95.075972 
L 153.572659 94.257628 
L 156.179534 90.284159 
z
" style="fill: #315fb0; stroke: #ffffff"/>
    <path d="M 136.736815 90.843159 
Q 136.082409 90.843159 135.751846 91.488159 
Q 135.422628 92.131816 135.422628 93.425847 
Q 135.422628 94.714503 135.751846 95.359503 
Q 136.082409 96.004503 136.736815 96.004503 
Q 137.396596 96.004503 137.725815 95.359503 
Q 138.056378 94.714503 138.056378 93.425847 
Q 138.056378 92.131816 137.725815 91.488159 
Q 137.396596 90.843159 136.736815 90.843159 
z
M 136.736815 90.171284 
Q 137.791659 90.171284 138.347971 91.005753 
Q 138.904284 91.838878 138.904284 93.425847 
Q 138.904284 95.008784 138.347971 95.843253 
Q 137.791659 96.676378 136.736815 96.676378 
Q 135.683315 96.676378 135.127003 95.843253 
Q 134.57069 95.008784 134.57069 93.425847 
Q 134.57069 91.838878 135.127003 91.005753 
Q 135.683315 90.171284 136.736815 90.171284 
z
M 140.394335 95.487159 
L 141.28121 95.487159 
L 141.28121 96.554097 
L 140.394335 96.554097 
L 140.394335 95.487159 
z
M 143.153557 96.423753 
L 143.153557 95.651097 
Q 143.47337 95.802941 143.799901 95.882222 
Q 144.127776 95.961503 144.443557 95.961503 
Q 145.283401 95.961503 145.725495 95.397128 
Q 146.168932 94.832753 146.232088 93.681159 
Q 145.98887 94.042628 145.613963 94.236128 
Q 145.240401 94.429628 144.787557 94.429628 
Q 143.846932 94.429628 143.298682 93.861222 
Q 142.750432 93.291472 142.750432 92.303816 
Q 142.750432 91.339003 143.321526 90.755816 
Q 143.89262 90.171284 144.841307 90.171284 
Q 145.929745 90.171284 146.502182 91.005753 
Q 147.075963 91.838878 147.075963 93.425847 
Q 147.075963 94.908003 146.371838 95.792191 
Q 145.669057 96.676378 144.481182 96.676378 
Q 144.16137 96.676378 143.833495 96.613222 
Q 143.506963 96.550066 143.153557 96.423753 
z
M 144.841307 93.765816 
Q 145.412401 93.765816 145.745651 93.376128 
Q 146.080245 92.985097 146.080245 92.303816 
Q 146.080245 91.627909 145.745651 91.235534 
Q 145.412401 90.843159 144.841307 90.843159 
Q 144.270213 90.843159 143.936963 91.235534 
Q 143.603713 91.627909 143.603713 92.303816 
Q 143.603713 92.985097 143.936963 93.376128 
Q 144.270213 93.765816 144.841307 93.765816 
z
M 148.385952 90.284159 
L 152.417202 90.284159 
L 152.417202 90.645628 
L 150.140889 96.554097 
L 149.255358 96.554097 
L 151.397295 90.999034 
L 148.385952 90.999034 
L 148.385952 90.284159 
z
M 156.402596 91.023222 
L 154.260659 94.370503 
L 156.402596 94.370503 
L 156.402596 91.023222 
z
M 156.179534 90.284159 
L 157.246471 90.284159 
L 157.246471 94.370503 
L 158.141409 94.370503 
L 158.141409 95.075972 
L 157.246471 95.075972 
L 157.246471 96.554097 
L 156.402596 96.554097 
L 156.402596 95.075972 
L 153.572659 95.075972 
L 153.572659 94.257628 
L 156.179534 90.284159 
z
" style="fill: #315fb0"/>
   </g>
   <g id="text_21">
    <g id="patch_10">
     <path d="M 136.559698 119.561174 
L 162.211885 119.561174 
Q 162.899885 119.561174 162.899885 118.873174 
L 162.899885 109.517986 
Q 162.899885 108.829986 162.211885 108.829986 
L 136.559698 108.829986 
Q 135.871698 108.829986 135.871698 109.517986 
L 135.871698 118.873174 
Q 135.871698 119.561174 136.559698 119.561174 
z
" style="fill: #ffffff; opacity: 0.92"/>
    </g>
    <path d="M 139.808885 110.857705 
Q 139.154479 110.857705 138.823917 111.502705 
Q 138.494698 112.146361 138.494698 113.440392 
Q 138.494698 114.729049 138.823917 115.374049 
Q 139.154479 116.019049 139.808885 116.019049 
Q 140.468667 116.019049 140.797885 115.374049 
Q 141.128448 114.729049 141.128448 113.440392 
Q 141.128448 112.146361 140.797885 111.502705 
Q 140.468667 110.857705 139.808885 110.857705 
z
M 139.808885 110.18583 
Q 140.863729 110.18583 141.420042 111.020299 
Q 141.976354 111.853424 141.976354 113.440392 
Q 141.976354 115.02333 141.420042 115.857799 
Q 140.863729 116.690924 139.808885 116.690924 
Q 138.755385 116.690924 138.199073 115.857799 
Q 137.64276 115.02333 137.64276 113.440392 
Q 137.64276 111.853424 138.199073 111.020299 
Q 138.755385 110.18583 139.808885 110.18583 
z
M 143.466405 115.501705 
L 144.35328 115.501705 
L 144.35328 116.568642 
L 143.466405 116.568642 
L 143.466405 115.501705 
z
M 146.225628 116.438299 
L 146.225628 115.665642 
Q 146.54544 115.817486 146.871971 115.896767 
Q 147.199846 115.976049 147.515628 115.976049 
Q 148.355471 115.976049 148.797565 115.411674 
Q 149.241003 114.847299 149.304159 113.695705 
Q 149.06094 114.057174 148.686034 114.250674 
Q 148.312471 114.444174 147.859628 114.444174 
Q 146.919003 114.444174 146.370753 113.875767 
Q 145.822503 113.306017 145.822503 112.318361 
Q 145.822503 111.353549 146.393596 110.770361 
Q 146.96469 110.18583 147.913378 110.18583 
Q 149.001815 110.18583 149.574253 111.020299 
Q 150.148034 111.853424 150.148034 113.440392 
Q 150.148034 114.922549 149.443909 115.806736 
Q 148.741128 116.690924 147.553253 116.690924 
Q 147.23344 116.690924 146.905565 116.627767 
Q 146.579034 116.564611 146.225628 116.438299 
z
M 147.913378 113.780361 
Q 148.484471 113.780361 148.817721 113.390674 
Q 149.152315 112.999642 149.152315 112.318361 
Q 149.152315 111.642455 148.817721 111.25008 
Q 148.484471 110.857705 147.913378 110.857705 
Q 147.342284 110.857705 147.009034 111.25008 
Q 146.675784 111.642455 146.675784 112.318361 
Q 146.675784 112.999642 147.009034 113.390674 
Q 147.342284 113.780361 147.913378 113.780361 
z
M 151.458022 110.298705 
L 155.489272 110.298705 
L 155.489272 110.660174 
L 153.21296 116.568642 
L 152.327428 116.568642 
L 154.469366 111.01358 
L 151.458022 111.01358 
L 151.458022 110.298705 
z
M 157.152667 110.298705 
L 160.482479 110.298705 
L 160.482479 111.01358 
L 157.929354 111.01358 
L 157.929354 112.549486 
Q 158.113448 112.48633 158.297542 112.455424 
Q 158.482979 112.424517 158.668417 112.424517 
Q 159.717885 112.424517 160.330635 112.999642 
Q 160.944729 113.574767 160.944729 114.557049 
Q 160.944729 115.568892 160.31451 116.13058 
Q 159.684292 116.690924 158.538073 116.690924 
Q 158.14301 116.690924 157.733167 116.623736 
Q 157.324667 116.556549 156.887948 116.422174 
L 156.887948 115.568892 
Q 157.265542 115.774486 157.668667 115.875267 
Q 158.071792 115.976049 158.520604 115.976049 
Q 159.247573 115.976049 159.670854 115.594424 
Q 160.095479 115.212799 160.095479 114.557049 
Q 160.095479 113.902642 159.670854 113.521017 
Q 159.247573 113.138049 158.520604 113.138049 
Q 158.180635 113.138049 157.84201 113.213299 
Q 157.504729 113.288549 157.152667 113.448455 
L 157.152667 110.298705 
z
" style="fill: #315fb0; stroke: #ffffff"/>
    <path d="M 139.808885 110.857705 
Q 139.154479 110.857705 138.823917 111.502705 
Q 138.494698 112.146361 138.494698 113.440392 
Q 138.494698 114.729049 138.823917 115.374049 
Q 139.154479 116.019049 139.808885 116.019049 
Q 140.468667 116.019049 140.797885 115.374049 
Q 141.128448 114.729049 141.128448 113.440392 
Q 141.128448 112.146361 140.797885 111.502705 
Q 140.468667 110.857705 139.808885 110.857705 
z
M 139.808885 110.18583 
Q 140.863729 110.18583 141.420042 111.020299 
Q 141.976354 111.853424 141.976354 113.440392 
Q 141.976354 115.02333 141.420042 115.857799 
Q 140.863729 116.690924 139.808885 116.690924 
Q 138.755385 116.690924 138.199073 115.857799 
Q 137.64276 115.02333 137.64276 113.440392 
Q 137.64276 111.853424 138.199073 111.020299 
Q 138.755385 110.18583 139.808885 110.18583 
z
M 143.466405 115.501705 
L 144.35328 115.501705 
L 144.35328 116.568642 
L 143.466405 116.568642 
L 143.466405 115.501705 
z
M 146.225628 116.438299 
L 146.225628 115.665642 
Q 146.54544 115.817486 146.871971 115.896767 
Q 147.199846 115.976049 147.515628 115.976049 
Q 148.355471 115.976049 148.797565 115.411674 
Q 149.241003 114.847299 149.304159 113.695705 
Q 149.06094 114.057174 148.686034 114.250674 
Q 148.312471 114.444174 147.859628 114.444174 
Q 146.919003 114.444174 146.370753 113.875767 
Q 145.822503 113.306017 145.822503 112.318361 
Q 145.822503 111.353549 146.393596 110.770361 
Q 146.96469 110.18583 147.913378 110.18583 
Q 149.001815 110.18583 149.574253 111.020299 
Q 150.148034 111.853424 150.148034 113.440392 
Q 150.148034 114.922549 149.443909 115.806736 
Q 148.741128 116.690924 147.553253 116.690924 
Q 147.23344 116.690924 146.905565 116.627767 
Q 146.579034 116.564611 146.225628 116.438299 
z
M 147.913378 113.780361 
Q 148.484471 113.780361 148.817721 113.390674 
Q 149.152315 112.999642 149.152315 112.318361 
Q 149.152315 111.642455 148.817721 111.25008 
Q 148.484471 110.857705 147.913378 110.857705 
Q 147.342284 110.857705 147.009034 111.25008 
Q 146.675784 111.642455 146.675784 112.318361 
Q 146.675784 112.999642 147.009034 113.390674 
Q 147.342284 113.780361 147.913378 113.780361 
z
M 151.458022 110.298705 
L 155.489272 110.298705 
L 155.489272 110.660174 
L 153.21296 116.568642 
L 152.327428 116.568642 
L 154.469366 111.01358 
L 151.458022 111.01358 
L 151.458022 110.298705 
z
M 157.152667 110.298705 
L 160.482479 110.298705 
L 160.482479 111.01358 
L 157.929354 111.01358 
L 157.929354 112.549486 
Q 158.113448 112.48633 158.297542 112.455424 
Q 158.482979 112.424517 158.668417 112.424517 
Q 159.717885 112.424517 160.330635 112.999642 
Q 160.944729 113.574767 160.944729 114.557049 
Q 160.944729 115.568892 160.31451 116.13058 
Q 159.684292 116.690924 158.538073 116.690924 
Q 158.14301 116.690924 157.733167 116.623736 
Q 157.324667 116.556549 156.887948 116.422174 
L 156.887948 115.568892 
Q 157.265542 115.774486 157.668667 115.875267 
Q 158.071792 115.976049 158.520604 115.976049 
Q 159.247573 115.976049 159.670854 115.594424 
Q 160.095479 115.212799 160.095479 114.557049 
Q 160.095479 113.902642 159.670854 113.521017 
Q 159.247573 113.138049 158.520604 113.138049 
Q 158.180635 113.138049 157.84201 113.213299 
Q 157.504729 113.288549 157.152667 113.448455 
L 157.152667 110.298705 
z
" style="fill: #315fb0"/>
   </g>
   <g id="text_22">
    <g id="patch_11">
     <path d="M 189.426294 157.58881 
L 215.078481 157.58881 
Q 215.766481 157.58881 215.766481 156.90081 
L 215.766481 147.545623 
Q 215.766481 146.857623 215.078481 146.857623 
L 189.426294 146.857623 
Q 188.738294 146.857623 188.738294 147.545623 
L 188.738294 156.90081 
Q 188.738294 157.58881 189.426294 157.58881 
z
" style="fill: #ffffff; opacity: 0.92"/>
    </g>
    <path d="M 192.675481 148.885341 
Q 192.021075 148.885341 191.690513 149.530341 
Q 191.361294 150.173998 191.361294 151.468029 
Q 191.361294 152.756685 191.690513 153.401685 
Q 192.021075 154.046685 192.675481 154.046685 
Q 193.335263 154.046685 193.664481 153.401685 
Q 193.995044 152.756685 193.995044 151.468029 
Q 193.995044 150.173998 193.664481 149.530341 
Q 193.335263 148.885341 192.675481 148.885341 
z
M 192.675481 148.213466 
Q 193.730325 148.213466 194.286638 149.047935 
Q 194.84295 149.88106 194.84295 151.468029 
Q 194.84295 153.050966 194.286638 153.885435 
Q 193.730325 154.71856 192.675481 154.71856 
Q 191.621981 154.71856 191.065669 153.885435 
Q 190.509356 153.050966 190.509356 151.468029 
Q 190.509356 149.88106 191.065669 149.047935 
Q 191.621981 148.213466 192.675481 148.213466 
z
M 196.333001 153.529341 
L 197.219876 153.529341 
L 197.219876 154.596279 
L 196.333001 154.596279 
L 196.333001 153.529341 
z
M 199.092224 154.465935 
L 199.092224 153.693279 
Q 199.412036 153.845123 199.738567 153.924404 
Q 200.066442 154.003685 200.382224 154.003685 
Q 201.222067 154.003685 201.664161 153.43931 
Q 202.107599 152.874935 202.170755 151.723341 
Q 201.927536 152.08481 201.55263 152.27831 
Q 201.179067 152.47181 200.726224 152.47181 
Q 199.785599 152.47181 199.237349 151.903404 
Q 198.689099 151.333654 198.689099 150.345998 
Q 198.689099 149.381185 199.260192 148.797998 
Q 199.831286 148.213466 200.779974 148.213466 
Q 201.868411 148.213466 202.440849 149.047935 
Q 203.01463 149.88106 203.01463 151.468029 
Q 203.01463 152.950185 202.310505 153.834373 
Q 201.607724 154.71856 200.419849 154.71856 
Q 200.100036 154.71856 199.772161 154.655404 
Q 199.44563 154.592248 199.092224 154.465935 
z
M 200.779974 151.807998 
Q 201.351067 151.807998 201.684317 151.41831 
Q 202.018911 151.027279 202.018911 150.345998 
Q 202.018911 149.670091 201.684317 149.277716 
Q 201.351067 148.885341 200.779974 148.885341 
Q 200.20888 148.885341 199.87563 149.277716 
Q 199.54238 149.670091 199.54238 150.345998 
Q 199.54238 151.027279 199.87563 151.41831 
Q 200.20888 151.807998 200.779974 151.807998 
z
M 206.352337 151.618529 
Q 205.747649 151.618529 205.400962 151.942373 
Q 205.055618 152.266216 205.055618 152.831935 
Q 205.055618 153.398998 205.400962 153.722841 
Q 205.747649 154.046685 206.352337 154.046685 
Q 206.957024 154.046685 207.305056 153.721498 
Q 207.654431 153.394966 207.654431 152.831935 
Q 207.654431 152.266216 207.307743 151.942373 
Q 206.962399 151.618529 206.352337 151.618529 
z
M 205.504431 151.258404 
Q 204.958868 151.124029 204.653837 150.750466 
Q 204.350149 150.37556 204.350149 149.83806 
Q 204.350149 149.086904 204.884962 148.650185 
Q 205.421118 148.213466 206.352337 148.213466 
Q 207.288931 148.213466 207.822399 148.650185 
Q 208.355868 149.086904 208.355868 149.83806 
Q 208.355868 150.37556 208.050837 150.750466 
Q 207.747149 151.124029 207.205618 151.258404 
Q 207.818368 151.400841 208.159681 151.817404 
Q 208.502337 152.232623 208.502337 152.831935 
Q 208.502337 153.744341 207.946024 154.232123 
Q 207.389712 154.71856 206.352337 154.71856 
Q 205.316306 154.71856 204.758649 154.232123 
Q 204.202337 153.744341 204.202337 152.831935 
Q 204.202337 152.232623 204.546337 151.817404 
Q 204.891681 151.400841 205.504431 151.258404 
z
M 205.194024 149.918685 
Q 205.194024 150.405123 205.497712 150.677904 
Q 205.802743 150.950685 206.352337 150.950685 
Q 206.899243 150.950685 207.206962 150.677904 
Q 207.516024 150.405123 207.516024 149.918685 
Q 207.516024 149.430904 207.206962 149.158123 
Q 206.899243 148.885341 206.352337 148.885341 
Q 205.802743 148.885341 205.497712 149.158123 
Q 205.194024 149.430904 205.194024 149.918685 
z
M 211.823919 151.618529 
Q 211.219231 151.618529 210.872544 151.942373 
Q 210.5272 152.266216 210.5272 152.831935 
Q 210.5272 153.398998 210.872544 153.722841 
Q 211.219231 154.046685 211.823919 154.046685 
Q 212.428606 154.046685 212.776638 153.721498 
Q 213.126013 153.394966 213.126013 152.831935 
Q 213.126013 152.266216 212.779325 151.942373 
Q 212.433981 151.618529 211.823919 151.618529 
z
M 210.976013 151.258404 
Q 210.43045 151.124029 210.125419 150.750466 
Q 209.821731 150.37556 209.821731 149.83806 
Q 209.821731 149.086904 210.356544 148.650185 
Q 210.8927 148.213466 211.823919 148.213466 
Q 212.760513 148.213466 213.293981 148.650185 
Q 213.82745 149.086904 213.82745 149.83806 
Q 213.82745 150.37556 213.522419 150.750466 
Q 213.218731 151.124029 212.6772 151.258404 
Q 213.28995 151.400841 213.631263 151.817404 
Q 213.973919 152.232623 213.973919 152.831935 
Q 213.973919 153.744341 213.417606 154.232123 
Q 212.861294 154.71856 211.823919 154.71856 
Q 210.787888 154.71856 210.230231 154.232123 
Q 209.673919 153.744341 209.673919 152.831935 
Q 209.673919 152.232623 210.017919 151.817404 
Q 210.363263 151.400841 210.976013 151.258404 
z
M 210.665606 149.918685 
Q 210.665606 150.405123 210.969294 150.677904 
Q 211.274325 150.950685 211.823919 150.950685 
Q 212.370825 150.950685 212.678544 150.677904 
Q 212.987606 150.405123 212.987606 149.918685 
Q 212.987606 149.430904 212.678544 149.158123 
Q 212.370825 148.885341 211.823919 148.885341 
Q 211.274325 148.885341 210.969294 149.158123 
Q 210.665606 149.430904 210.665606 149.918685 
z
" style="fill: #315fb0; stroke: #ffffff"/>
    <path d="M 192.675481 148.885341 
Q 192.021075 148.885341 191.690513 149.530341 
Q 191.361294 150.173998 191.361294 151.468029 
Q 191.361294 152.756685 191.690513 153.401685 
Q 192.021075 154.046685 192.675481 154.046685 
Q 193.335263 154.046685 193.664481 153.401685 
Q 193.995044 152.756685 193.995044 151.468029 
Q 193.995044 150.173998 193.664481 149.530341 
Q 193.335263 148.885341 192.675481 148.885341 
z
M 192.675481 148.213466 
Q 193.730325 148.213466 194.286638 149.047935 
Q 194.84295 149.88106 194.84295 151.468029 
Q 194.84295 153.050966 194.286638 153.885435 
Q 193.730325 154.71856 192.675481 154.71856 
Q 191.621981 154.71856 191.065669 153.885435 
Q 190.509356 153.050966 190.509356 151.468029 
Q 190.509356 149.88106 191.065669 149.047935 
Q 191.621981 148.213466 192.675481 148.213466 
z
M 196.333001 153.529341 
L 197.219876 153.529341 
L 197.219876 154.596279 
L 196.333001 154.596279 
L 196.333001 153.529341 
z
M 199.092224 154.465935 
L 199.092224 153.693279 
Q 199.412036 153.845123 199.738567 153.924404 
Q 200.066442 154.003685 200.382224 154.003685 
Q 201.222067 154.003685 201.664161 153.43931 
Q 202.107599 152.874935 202.170755 151.723341 
Q 201.927536 152.08481 201.55263 152.27831 
Q 201.179067 152.47181 200.726224 152.47181 
Q 199.785599 152.47181 199.237349 151.903404 
Q 198.689099 151.333654 198.689099 150.345998 
Q 198.689099 149.381185 199.260192 148.797998 
Q 199.831286 148.213466 200.779974 148.213466 
Q 201.868411 148.213466 202.440849 149.047935 
Q 203.01463 149.88106 203.01463 151.468029 
Q 203.01463 152.950185 202.310505 153.834373 
Q 201.607724 154.71856 200.419849 154.71856 
Q 200.100036 154.71856 199.772161 154.655404 
Q 199.44563 154.592248 199.092224 154.465935 
z
M 200.779974 151.807998 
Q 201.351067 151.807998 201.684317 151.41831 
Q 202.018911 151.027279 202.018911 150.345998 
Q 202.018911 149.670091 201.684317 149.277716 
Q 201.351067 148.885341 200.779974 148.885341 
Q 200.20888 148.885341 199.87563 149.277716 
Q 199.54238 149.670091 199.54238 150.345998 
Q 199.54238 151.027279 199.87563 151.41831 
Q 200.20888 151.807998 200.779974 151.807998 
z
M 206.352337 151.618529 
Q 205.747649 151.618529 205.400962 151.942373 
Q 205.055618 152.266216 205.055618 152.831935 
Q 205.055618 153.398998 205.400962 153.722841 
Q 205.747649 154.046685 206.352337 154.046685 
Q 206.957024 154.046685 207.305056 153.721498 
Q 207.654431 153.394966 207.654431 152.831935 
Q 207.654431 152.266216 207.307743 151.942373 
Q 206.962399 151.618529 206.352337 151.618529 
z
M 205.504431 151.258404 
Q 204.958868 151.124029 204.653837 150.750466 
Q 204.350149 150.37556 204.350149 149.83806 
Q 204.350149 149.086904 204.884962 148.650185 
Q 205.421118 148.213466 206.352337 148.213466 
Q 207.288931 148.213466 207.822399 148.650185 
Q 208.355868 149.086904 208.355868 149.83806 
Q 208.355868 150.37556 208.050837 150.750466 
Q 207.747149 151.124029 207.205618 151.258404 
Q 207.818368 151.400841 208.159681 151.817404 
Q 208.502337 152.232623 208.502337 152.831935 
Q 208.502337 153.744341 207.946024 154.232123 
Q 207.389712 154.71856 206.352337 154.71856 
Q 205.316306 154.71856 204.758649 154.232123 
Q 204.202337 153.744341 204.202337 152.831935 
Q 204.202337 152.232623 204.546337 151.817404 
Q 204.891681 151.400841 205.504431 151.258404 
z
M 205.194024 149.918685 
Q 205.194024 150.405123 205.497712 150.677904 
Q 205.802743 150.950685 206.352337 150.950685 
Q 206.899243 150.950685 207.206962 150.677904 
Q 207.516024 150.405123 207.516024 149.918685 
Q 207.516024 149.430904 207.206962 149.158123 
Q 206.899243 148.885341 206.352337 148.885341 
Q 205.802743 148.885341 205.497712 149.158123 
Q 205.194024 149.430904 205.194024 149.918685 
z
M 211.823919 151.618529 
Q 211.219231 151.618529 210.872544 151.942373 
Q 210.5272 152.266216 210.5272 152.831935 
Q 210.5272 153.398998 210.872544 153.722841 
Q 211.219231 154.046685 211.823919 154.046685 
Q 212.428606 154.046685 212.776638 153.721498 
Q 213.126013 153.394966 213.126013 152.831935 
Q 213.126013 152.266216 212.779325 151.942373 
Q 212.433981 151.618529 211.823919 151.618529 
z
M 210.976013 151.258404 
Q 210.43045 151.124029 210.125419 150.750466 
Q 209.821731 150.37556 209.821731 149.83806 
Q 209.821731 149.086904 210.356544 148.650185 
Q 210.8927 148.213466 211.823919 148.213466 
Q 212.760513 148.213466 213.293981 148.650185 
Q 213.82745 149.086904 213.82745 149.83806 
Q 213.82745 150.37556 213.522419 150.750466 
Q 213.218731 151.124029 212.6772 151.258404 
Q 213.28995 151.400841 213.631263 151.817404 
Q 213.973919 152.232623 213.973919 152.831935 
Q 213.973919 153.744341 213.417606 154.232123 
Q 212.861294 154.71856 211.823919 154.71856 
Q 210.787888 154.71856 210.230231 154.232123 
Q 209.673919 153.744341 209.673919 152.831935 
Q 209.673919 152.232623 210.017919 151.817404 
Q 210.363263 151.400841 210.976013 151.258404 
z
M 210.665606 149.918685 
Q 210.665606 150.405123 210.969294 150.677904 
Q 211.274325 150.950685 211.823919 150.950685 
Q 212.370825 150.950685 212.678544 150.677904 
Q 212.987606 150.405123 212.987606 149.918685 
Q 212.987606 149.430904 212.678544 149.158123 
Q 212.370825 148.885341 211.823919 148.885341 
Q 211.274325 148.885341 210.969294 149.158123 
Q 210.665606 149.430904 210.665606 149.918685 
z
" style="fill: #315fb0"/>
   </g>
   <g id="text_23">
    <g id="patch_12">
     <path d="M 191.187543 177.603356 
L 216.83973 177.603356 
Q 217.52773 177.603356 217.52773 176.915356 
L 217.52773 167.560168 
Q 217.52773 166.872168 216.83973 166.872168 
L 191.187543 166.872168 
Q 190.499543 166.872168 190.499543 167.560168 
L 190.499543 176.915356 
Q 190.499543 177.603356 191.187543 177.603356 
z
" style="fill: #ffffff; opacity: 0.92"/>
    </g>
    <path d="M 194.43673 168.899887 
Q 193.782324 168.899887 193.451762 169.544887 
Q 193.122543 170.188543 193.122543 171.482574 
Q 193.122543 172.771231 193.451762 173.416231 
Q 193.782324 174.061231 194.43673 174.061231 
Q 195.096512 174.061231 195.42573 173.416231 
Q 195.756293 172.771231 195.756293 171.482574 
Q 195.756293 170.188543 195.42573 169.544887 
Q 195.096512 168.899887 194.43673 168.899887 
z
M 194.43673 168.228012 
Q 195.491574 168.228012 196.047887 169.062481 
Q 196.604199 169.895606 196.604199 171.482574 
Q 196.604199 173.065512 196.047887 173.899981 
Q 195.491574 174.733106 194.43673 174.733106 
Q 193.38323 174.733106 192.826918 173.899981 
Q 192.270605 173.065512 192.270605 171.482574 
Q 192.270605 169.895606 192.826918 169.062481 
Q 193.38323 168.228012 194.43673 168.228012 
z
M 198.09425 173.543887 
L 198.981125 173.543887 
L 198.981125 174.610824 
L 198.09425 174.610824 
L 198.09425 173.543887 
z
M 200.853472 174.480481 
L 200.853472 173.707824 
Q 201.173285 173.859668 201.499816 173.938949 
Q 201.827691 174.018231 202.143472 174.018231 
Q 202.983316 174.018231 203.42541 173.453856 
Q 203.868847 172.889481 203.932004 171.737887 
Q 203.688785 172.099356 203.313879 172.292856 
Q 202.940316 172.486356 202.487472 172.486356 
Q 201.546847 172.486356 200.998597 171.917949 
Q 200.450347 171.348199 200.450347 170.360543 
Q 200.450347 169.395731 201.021441 168.812543 
Q 201.592535 168.228012 202.541222 168.228012 
Q 203.62966 168.228012 204.202097 169.062481 
Q 204.775879 169.895606 204.775879 171.482574 
Q 204.775879 172.964731 204.071754 173.848918 
Q 203.368972 174.733106 202.181097 174.733106 
Q 201.861285 174.733106 201.53341 174.669949 
Q 201.206879 174.606793 200.853472 174.480481 
z
M 202.541222 171.822543 
Q 203.112316 171.822543 203.445566 171.432856 
Q 203.78016 171.041824 203.78016 170.360543 
Q 203.78016 169.684637 203.445566 169.292262 
Q 203.112316 168.899887 202.541222 168.899887 
Q 201.970129 168.899887 201.636879 169.292262 
Q 201.303629 169.684637 201.303629 170.360543 
Q 201.303629 171.041824 201.636879 171.432856 
Q 201.970129 171.822543 202.541222 171.822543 
z
M 208.113586 171.633074 
Q 207.508898 171.633074 207.162211 171.956918 
Q 206.816867 172.280762 206.816867 172.846481 
Q 206.816867 173.413543 207.162211 173.737387 
Q 207.508898 174.061231 208.113586 174.061231 
Q 208.718273 174.061231 209.066304 173.736043 
Q 209.415679 173.409512 209.415679 172.846481 
Q 209.415679 172.280762 209.068992 171.956918 
Q 208.723648 171.633074 208.113586 171.633074 
z
M 207.265679 171.272949 
Q 206.720117 171.138574 206.415086 170.765012 
Q 206.111398 170.390106 206.111398 169.852606 
Q 206.111398 169.101449 206.646211 168.664731 
Q 207.182367 168.228012 208.113586 168.228012 
Q 209.050179 168.228012 209.583648 168.664731 
Q 210.117117 169.101449 210.117117 169.852606 
Q 210.117117 170.390106 209.812086 170.765012 
Q 209.508398 171.138574 208.966867 171.272949 
Q 209.579617 171.415387 209.920929 171.831949 
Q 210.263586 172.247168 210.263586 172.846481 
Q 210.263586 173.758887 209.707273 174.246668 
Q 209.150961 174.733106 208.113586 174.733106 
Q 207.077554 174.733106 206.519898 174.246668 
Q 205.963586 173.758887 205.963586 172.846481 
Q 205.963586 172.247168 206.307586 171.831949 
Q 206.652929 171.415387 207.265679 171.272949 
z
M 206.955273 169.933231 
Q 206.955273 170.419668 207.258961 170.692449 
Q 207.563992 170.965231 208.113586 170.965231 
Q 208.660492 170.965231 208.968211 170.692449 
Q 209.277273 170.419668 209.277273 169.933231 
Q 209.277273 169.445449 208.968211 169.172668 
Q 208.660492 168.899887 208.113586 168.899887 
Q 207.563992 168.899887 207.258961 169.172668 
Q 206.955273 169.445449 206.955273 169.933231 
z
M 213.585168 171.633074 
Q 212.98048 171.633074 212.633793 171.956918 
Q 212.288449 172.280762 212.288449 172.846481 
Q 212.288449 173.413543 212.633793 173.737387 
Q 212.98048 174.061231 213.585168 174.061231 
Q 214.189855 174.061231 214.537887 173.736043 
Q 214.887262 173.409512 214.887262 172.846481 
Q 214.887262 172.280762 214.540574 171.956918 
Q 214.19523 171.633074 213.585168 171.633074 
z
M 212.737262 171.272949 
Q 212.191699 171.138574 211.886668 170.765012 
Q 211.58298 170.390106 211.58298 169.852606 
Q 211.58298 169.101449 212.117793 168.664731 
Q 212.653949 168.228012 213.585168 168.228012 
Q 214.521762 168.228012 215.05523 168.664731 
Q 215.588699 169.101449 215.588699 169.852606 
Q 215.588699 170.390106 215.283668 170.765012 
Q 214.97998 171.138574 214.438449 171.272949 
Q 215.051199 171.415387 215.392512 171.831949 
Q 215.735168 172.247168 215.735168 172.846481 
Q 215.735168 173.758887 215.178855 174.246668 
Q 214.622543 174.733106 213.585168 174.733106 
Q 212.549137 174.733106 211.99148 174.246668 
Q 211.435168 173.758887 211.435168 172.846481 
Q 211.435168 172.247168 211.779168 171.831949 
Q 212.124512 171.415387 212.737262 171.272949 
z
M 212.426855 169.933231 
Q 212.426855 170.419668 212.730543 170.692449 
Q 213.035574 170.965231 213.585168 170.965231 
Q 214.132074 170.965231 214.439793 170.692449 
Q 214.748855 170.419668 214.748855 169.933231 
Q 214.748855 169.445449 214.439793 169.172668 
Q 214.132074 168.899887 213.585168 168.899887 
Q 213.035574 168.899887 212.730543 169.172668 
Q 212.426855 169.445449 212.426855 169.933231 
z
" style="fill: #315fb0; stroke: #ffffff"/>
    <path d="M 194.43673 168.899887 
Q 193.782324 168.899887 193.451762 169.544887 
Q 193.122543 170.188543 193.122543 171.482574 
Q 193.122543 172.771231 193.451762 173.416231 
Q 193.782324 174.061231 194.43673 174.061231 
Q 195.096512 174.061231 195.42573 173.416231 
Q 195.756293 172.771231 195.756293 171.482574 
Q 195.756293 170.188543 195.42573 169.544887 
Q 195.096512 168.899887 194.43673 168.899887 
z
M 194.43673 168.228012 
Q 195.491574 168.228012 196.047887 169.062481 
Q 196.604199 169.895606 196.604199 171.482574 
Q 196.604199 173.065512 196.047887 173.899981 
Q 195.491574 174.733106 194.43673 174.733106 
Q 193.38323 174.733106 192.826918 173.899981 
Q 192.270605 173.065512 192.270605 171.482574 
Q 192.270605 169.895606 192.826918 169.062481 
Q 193.38323 168.228012 194.43673 168.228012 
z
M 198.09425 173.543887 
L 198.981125 173.543887 
L 198.981125 174.610824 
L 198.09425 174.610824 
L 198.09425 173.543887 
z
M 200.853472 174.480481 
L 200.853472 173.707824 
Q 201.173285 173.859668 201.499816 173.938949 
Q 201.827691 174.018231 202.143472 174.018231 
Q 202.983316 174.018231 203.42541 173.453856 
Q 203.868847 172.889481 203.932004 171.737887 
Q 203.688785 172.099356 203.313879 172.292856 
Q 202.940316 172.486356 202.487472 172.486356 
Q 201.546847 172.486356 200.998597 171.917949 
Q 200.450347 171.348199 200.450347 170.360543 
Q 200.450347 169.395731 201.021441 168.812543 
Q 201.592535 168.228012 202.541222 168.228012 
Q 203.62966 168.228012 204.202097 169.062481 
Q 204.775879 169.895606 204.775879 171.482574 
Q 204.775879 172.964731 204.071754 173.848918 
Q 203.368972 174.733106 202.181097 174.733106 
Q 201.861285 174.733106 201.53341 174.669949 
Q 201.206879 174.606793 200.853472 174.480481 
z
M 202.541222 171.822543 
Q 203.112316 171.822543 203.445566 171.432856 
Q 203.78016 171.041824 203.78016 170.360543 
Q 203.78016 169.684637 203.445566 169.292262 
Q 203.112316 168.899887 202.541222 168.899887 
Q 201.970129 168.899887 201.636879 169.292262 
Q 201.303629 169.684637 201.303629 170.360543 
Q 201.303629 171.041824 201.636879 171.432856 
Q 201.970129 171.822543 202.541222 171.822543 
z
M 208.113586 171.633074 
Q 207.508898 171.633074 207.162211 171.956918 
Q 206.816867 172.280762 206.816867 172.846481 
Q 206.816867 173.413543 207.162211 173.737387 
Q 207.508898 174.061231 208.113586 174.061231 
Q 208.718273 174.061231 209.066304 173.736043 
Q 209.415679 173.409512 209.415679 172.846481 
Q 209.415679 172.280762 209.068992 171.956918 
Q 208.723648 171.633074 208.113586 171.633074 
z
M 207.265679 171.272949 
Q 206.720117 171.138574 206.415086 170.765012 
Q 206.111398 170.390106 206.111398 169.852606 
Q 206.111398 169.101449 206.646211 168.664731 
Q 207.182367 168.228012 208.113586 168.228012 
Q 209.050179 168.228012 209.583648 168.664731 
Q 210.117117 169.101449 210.117117 169.852606 
Q 210.117117 170.390106 209.812086 170.765012 
Q 209.508398 171.138574 208.966867 171.272949 
Q 209.579617 171.415387 209.920929 171.831949 
Q 210.263586 172.247168 210.263586 172.846481 
Q 210.263586 173.758887 209.707273 174.246668 
Q 209.150961 174.733106 208.113586 174.733106 
Q 207.077554 174.733106 206.519898 174.246668 
Q 205.963586 173.758887 205.963586 172.846481 
Q 205.963586 172.247168 206.307586 171.831949 
Q 206.652929 171.415387 207.265679 171.272949 
z
M 206.955273 169.933231 
Q 206.955273 170.419668 207.258961 170.692449 
Q 207.563992 170.965231 208.113586 170.965231 
Q 208.660492 170.965231 208.968211 170.692449 
Q 209.277273 170.419668 209.277273 169.933231 
Q 209.277273 169.445449 208.968211 169.172668 
Q 208.660492 168.899887 208.113586 168.899887 
Q 207.563992 168.899887 207.258961 169.172668 
Q 206.955273 169.445449 206.955273 169.933231 
z
M 213.585168 171.633074 
Q 212.98048 171.633074 212.633793 171.956918 
Q 212.288449 172.280762 212.288449 172.846481 
Q 212.288449 173.413543 212.633793 173.737387 
Q 212.98048 174.061231 213.585168 174.061231 
Q 214.189855 174.061231 214.537887 173.736043 
Q 214.887262 173.409512 214.887262 172.846481 
Q 214.887262 172.280762 214.540574 171.956918 
Q 214.19523 171.633074 213.585168 171.633074 
z
M 212.737262 171.272949 
Q 212.191699 171.138574 211.886668 170.765012 
Q 211.58298 170.390106 211.58298 169.852606 
Q 211.58298 169.101449 212.117793 168.664731 
Q 212.653949 168.228012 213.585168 168.228012 
Q 214.521762 168.228012 215.05523 168.664731 
Q 215.588699 169.101449 215.588699 169.852606 
Q 215.588699 170.390106 215.283668 170.765012 
Q 214.97998 171.138574 214.438449 171.272949 
Q 215.051199 171.415387 215.392512 171.831949 
Q 215.735168 172.247168 215.735168 172.846481 
Q 215.735168 173.758887 215.178855 174.246668 
Q 214.622543 174.733106 213.585168 174.733106 
Q 212.549137 174.733106 211.99148 174.246668 
Q 211.435168 173.758887 211.435168 172.846481 
Q 211.435168 172.247168 211.779168 171.831949 
Q 212.124512 171.415387 212.737262 171.272949 
z
M 212.426855 169.933231 
Q 212.426855 170.419668 212.730543 170.692449 
Q 213.035574 170.965231 213.585168 170.965231 
Q 214.132074 170.965231 214.439793 170.692449 
Q 214.748855 170.419668 214.748855 169.933231 
Q 214.748855 169.445449 214.439793 169.172668 
Q 214.132074 168.899887 213.585168 168.899887 
Q 213.035574 168.899887 212.730543 169.172668 
Q 212.426855 169.445449 212.426855 169.933231 
z
" style="fill: #315fb0"/>
   </g>
   <g id="text_24">
    <g id="patch_13">
     <path d="M 206.779857 214.773226 
L 232.432044 214.773226 
Q 233.120044 214.773226 233.120044 214.085226 
L 233.120044 204.730038 
Q 233.120044 204.042038 232.432044 204.042038 
L 206.779857 204.042038 
Q 206.091857 204.042038 206.091857 204.730038 
L 206.091857 214.085226 
Q 206.091857 214.773226 206.779857 214.773226 
z
" style="fill: #ffffff; opacity: 0.92"/>
    </g>
    <path d="M 210.029044 206.069757 
Q 209.374638 206.069757 209.044075 206.714757 
Q 208.714857 207.358413 208.714857 208.652444 
Q 208.714857 209.941101 209.044075 210.586101 
Q 209.374638 211.231101 210.029044 211.231101 
Q 210.688825 211.231101 211.018044 210.586101 
Q 211.348607 209.941101 211.348607 208.652444 
Q 211.348607 207.358413 211.018044 206.714757 
Q 210.688825 206.069757 210.029044 206.069757 
z
M 210.029044 205.397882 
Q 211.083888 205.397882 211.6402 206.232351 
Q 212.196513 207.065476 212.196513 208.652444 
Q 212.196513 210.235382 211.6402 211.069851 
Q 211.083888 211.902976 210.029044 211.902976 
Q 208.975544 211.902976 208.419232 211.069851 
Q 207.862919 210.235382 207.862919 208.652444 
Q 207.862919 207.065476 208.419232 206.232351 
Q 208.975544 205.397882 210.029044 205.397882 
z
M 213.686564 210.713757 
L 214.573439 210.713757 
L 214.573439 211.780694 
L 213.686564 211.780694 
L 213.686564 210.713757 
z
M 216.445786 211.650351 
L 216.445786 210.877694 
Q 216.765599 211.029538 217.09213 211.108819 
Q 217.420005 211.188101 217.735786 211.188101 
Q 218.57563 211.188101 219.017724 210.623726 
Q 219.461161 210.059351 219.524318 208.907757 
Q 219.281099 209.269226 218.906193 209.462726 
Q 218.53263 209.656226 218.079786 209.656226 
Q 217.139161 209.656226 216.590911 209.087819 
Q 216.042661 208.518069 216.042661 207.530413 
Q 216.042661 206.565601 216.613755 205.982413 
Q 217.184849 205.397882 218.133536 205.397882 
Q 219.221974 205.397882 219.794411 206.232351 
Q 220.368193 207.065476 220.368193 208.652444 
Q 220.368193 210.134601 219.664068 211.018788 
Q 218.961286 211.902976 217.773411 211.902976 
Q 217.453599 211.902976 217.125724 211.839819 
Q 216.799193 211.776663 216.445786 211.650351 
z
M 218.133536 208.992413 
Q 218.70463 208.992413 219.03788 208.602726 
Q 219.372474 208.211694 219.372474 207.530413 
Q 219.372474 206.854507 219.03788 206.462132 
Q 218.70463 206.069757 218.133536 206.069757 
Q 217.562443 206.069757 217.229193 206.462132 
Q 216.895943 206.854507 216.895943 207.530413 
Q 216.895943 208.211694 217.229193 208.602726 
Q 217.562443 208.992413 218.133536 208.992413 
z
M 221.917368 211.650351 
L 221.917368 210.877694 
Q 222.237181 211.029538 222.563712 211.108819 
Q 222.891587 211.188101 223.207368 211.188101 
Q 224.047212 211.188101 224.489306 210.623726 
Q 224.932743 210.059351 224.9959 208.907757 
Q 224.752681 209.269226 224.377775 209.462726 
Q 224.004212 209.656226 223.551368 209.656226 
Q 222.610743 209.656226 222.062493 209.087819 
Q 221.514243 208.518069 221.514243 207.530413 
Q 221.514243 206.565601 222.085337 205.982413 
Q 222.656431 205.397882 223.605118 205.397882 
Q 224.693556 205.397882 225.265993 206.232351 
Q 225.839775 207.065476 225.839775 208.652444 
Q 225.839775 210.134601 225.13565 211.018788 
Q 224.432868 211.902976 223.244993 211.902976 
Q 222.925181 211.902976 222.597306 211.839819 
Q 222.270775 211.776663 221.917368 211.650351 
z
M 223.605118 208.992413 
Q 224.176212 208.992413 224.509462 208.602726 
Q 224.844056 208.211694 224.844056 207.530413 
Q 224.844056 206.854507 224.509462 206.462132 
Q 224.176212 206.069757 223.605118 206.069757 
Q 223.034025 206.069757 222.700775 206.462132 
Q 222.367525 206.854507 222.367525 207.530413 
Q 222.367525 208.211694 222.700775 208.602726 
Q 223.034025 208.992413 223.605118 208.992413 
z
M 228.094419 211.067163 
L 231.0547 211.067163 
L 231.0547 211.780694 
L 227.074513 211.780694 
L 227.074513 211.067163 
Q 227.556919 210.567288 228.390044 209.726101 
Q 229.224513 208.883569 229.438169 208.639007 
Q 229.845325 208.182132 230.006575 207.865007 
Q 230.169169 207.547882 230.169169 207.241507 
Q 230.169169 206.741632 229.81845 206.427194 
Q 229.467732 206.111413 228.9047 206.111413 
Q 228.505607 206.111413 228.062169 206.249819 
Q 227.620075 206.388226 227.116169 206.670413 
L 227.116169 205.813101 
Q 227.628138 205.607507 228.072919 205.502694 
Q 228.519044 205.397882 228.888575 205.397882 
Q 229.862794 205.397882 230.44195 205.885663 
Q 231.021107 206.372101 231.021107 207.186413 
Q 231.021107 207.573413 230.875982 207.920101 
Q 230.7322 208.265444 230.349232 208.735757 
Q 230.244419 208.858038 229.681388 209.439882 
Q 229.1197 210.021726 228.094419 211.067163 
z
" style="fill: #315fb0; stroke: #ffffff"/>
    <path d="M 210.029044 206.069757 
Q 209.374638 206.069757 209.044075 206.714757 
Q 208.714857 207.358413 208.714857 208.652444 
Q 208.714857 209.941101 209.044075 210.586101 
Q 209.374638 211.231101 210.029044 211.231101 
Q 210.688825 211.231101 211.018044 210.586101 
Q 211.348607 209.941101 211.348607 208.652444 
Q 211.348607 207.358413 211.018044 206.714757 
Q 210.688825 206.069757 210.029044 206.069757 
z
M 210.029044 205.397882 
Q 211.083888 205.397882 211.6402 206.232351 
Q 212.196513 207.065476 212.196513 208.652444 
Q 212.196513 210.235382 211.6402 211.069851 
Q 211.083888 211.902976 210.029044 211.902976 
Q 208.975544 211.902976 208.419232 211.069851 
Q 207.862919 210.235382 207.862919 208.652444 
Q 207.862919 207.065476 208.419232 206.232351 
Q 208.975544 205.397882 210.029044 205.397882 
z
M 213.686564 210.713757 
L 214.573439 210.713757 
L 214.573439 211.780694 
L 213.686564 211.780694 
L 213.686564 210.713757 
z
M 216.445786 211.650351 
L 216.445786 210.877694 
Q 216.765599 211.029538 217.09213 211.108819 
Q 217.420005 211.188101 217.735786 211.188101 
Q 218.57563 211.188101 219.017724 210.623726 
Q 219.461161 210.059351 219.524318 208.907757 
Q 219.281099 209.269226 218.906193 209.462726 
Q 218.53263 209.656226 218.079786 209.656226 
Q 217.139161 209.656226 216.590911 209.087819 
Q 216.042661 208.518069 216.042661 207.530413 
Q 216.042661 206.565601 216.613755 205.982413 
Q 217.184849 205.397882 218.133536 205.397882 
Q 219.221974 205.397882 219.794411 206.232351 
Q 220.368193 207.065476 220.368193 208.652444 
Q 220.368193 210.134601 219.664068 211.018788 
Q 218.961286 211.902976 217.773411 211.902976 
Q 217.453599 211.902976 217.125724 211.839819 
Q 216.799193 211.776663 216.445786 211.650351 
z
M 218.133536 208.992413 
Q 218.70463 208.992413 219.03788 208.602726 
Q 219.372474 208.211694 219.372474 207.530413 
Q 219.372474 206.854507 219.03788 206.462132 
Q 218.70463 206.069757 218.133536 206.069757 
Q 217.562443 206.069757 217.229193 206.462132 
Q 216.895943 206.854507 216.895943 207.530413 
Q 216.895943 208.211694 217.229193 208.602726 
Q 217.562443 208.992413 218.133536 208.992413 
z
M 221.917368 211.650351 
L 221.917368 210.877694 
Q 222.237181 211.029538 222.563712 211.108819 
Q 222.891587 211.188101 223.207368 211.188101 
Q 224.047212 211.188101 224.489306 210.623726 
Q 224.932743 210.059351 224.9959 208.907757 
Q 224.752681 209.269226 224.377775 209.462726 
Q 224.004212 209.656226 223.551368 209.656226 
Q 222.610743 209.656226 222.062493 209.087819 
Q 221.514243 208.518069 221.514243 207.530413 
Q 221.514243 206.565601 222.085337 205.982413 
Q 222.656431 205.397882 223.605118 205.397882 
Q 224.693556 205.397882 225.265993 206.232351 
Q 225.839775 207.065476 225.839775 208.652444 
Q 225.839775 210.134601 225.13565 211.018788 
Q 224.432868 211.902976 223.244993 211.902976 
Q 222.925181 211.902976 222.597306 211.839819 
Q 222.270775 211.776663 221.917368 211.650351 
z
M 223.605118 208.992413 
Q 224.176212 208.992413 224.509462 208.602726 
Q 224.844056 208.211694 224.844056 207.530413 
Q 224.844056 206.854507 224.509462 206.462132 
Q 224.176212 206.069757 223.605118 206.069757 
Q 223.034025 206.069757 222.700775 206.462132 
Q 222.367525 206.854507 222.367525 207.530413 
Q 222.367525 208.211694 222.700775 208.602726 
Q 223.034025 208.992413 223.605118 208.992413 
z
M 228.094419 211.067163 
L 231.0547 211.067163 
L 231.0547 211.780694 
L 227.074513 211.780694 
L 227.074513 211.067163 
Q 227.556919 210.567288 228.390044 209.726101 
Q 229.224513 208.883569 229.438169 208.639007 
Q 229.845325 208.182132 230.006575 207.865007 
Q 230.169169 207.547882 230.169169 207.241507 
Q 230.169169 206.741632 229.81845 206.427194 
Q 229.467732 206.111413 228.9047 206.111413 
Q 228.505607 206.111413 228.062169 206.249819 
Q 227.620075 206.388226 227.116169 206.670413 
L 227.116169 205.813101 
Q 227.628138 205.607507 228.072919 205.502694 
Q 228.519044 205.397882 228.888575 205.397882 
Q 229.862794 205.397882 230.44195 205.885663 
Q 231.021107 206.372101 231.021107 207.186413 
Q 231.021107 207.573413 230.875982 207.920101 
Q 230.7322 208.265444 230.349232 208.735757 
Q 230.244419 208.858038 229.681388 209.439882 
Q 229.1197 210.021726 228.094419 211.067163 
z
" style="fill: #315fb0"/>
   </g>
   <g id="text_25">
    <g id="patch_14">
     <path d="M 207.216603 234.787771 
L 232.86879 234.787771 
Q 233.55679 234.787771 233.55679 234.099771 
L 233.55679 224.744584 
Q 233.55679 224.056584 232.86879 224.056584 
L 207.216603 224.056584 
Q 206.528603 224.056584 206.528603 224.744584 
L 206.528603 234.099771 
Q 206.528603 234.787771 207.216603 234.787771 
z
" style="fill: #ffffff; opacity: 0.92"/>
    </g>
    <path d="M 210.46579 226.084302 
Q 209.811384 226.084302 209.480822 226.729302 
Q 209.151603 227.372959 209.151603 228.66699 
Q 209.151603 229.955646 209.480822 230.600646 
Q 209.811384 231.245646 210.46579 231.245646 
Q 211.125572 231.245646 211.45479 230.600646 
Q 211.785353 229.955646 211.785353 228.66699 
Q 211.785353 227.372959 211.45479 226.729302 
Q 211.125572 226.084302 210.46579 226.084302 
z
M 210.46579 225.412427 
Q 211.520634 225.412427 212.076947 226.246896 
Q 212.633259 227.080021 212.633259 228.66699 
Q 212.633259 230.249927 212.076947 231.084396 
Q 211.520634 231.917521 210.46579 231.917521 
Q 209.41229 231.917521 208.855978 231.084396 
Q 208.299665 230.249927 208.299665 228.66699 
Q 208.299665 227.080021 208.855978 226.246896 
Q 209.41229 225.412427 210.46579 225.412427 
z
M 214.12331 230.728302 
L 215.010185 230.728302 
L 215.010185 231.79524 
L 214.12331 231.79524 
L 214.12331 230.728302 
z
M 216.882533 231.664896 
L 216.882533 230.89224 
Q 217.202345 231.044084 217.528876 231.123365 
Q 217.856751 231.202646 218.172533 231.202646 
Q 219.012376 231.202646 219.45447 230.638271 
Q 219.897908 230.073896 219.961064 228.922302 
Q 219.717845 229.283771 219.342939 229.477271 
Q 218.969376 229.670771 218.516533 229.670771 
Q 217.575908 229.670771 217.027658 229.102365 
Q 216.479408 228.532615 216.479408 227.544959 
Q 216.479408 226.580146 217.050501 225.996959 
Q 217.621595 225.412427 218.570283 225.412427 
Q 219.65872 225.412427 220.231158 226.246896 
Q 220.804939 227.080021 220.804939 228.66699 
Q 220.804939 230.149146 220.100814 231.033334 
Q 219.398033 231.917521 218.210158 231.917521 
Q 217.890345 231.917521 217.56247 231.854365 
Q 217.235939 231.791209 216.882533 231.664896 
z
M 218.570283 229.006959 
Q 219.141376 229.006959 219.474626 228.617271 
Q 219.80922 228.22624 219.80922 227.544959 
Q 219.80922 226.869052 219.474626 226.476677 
Q 219.141376 226.084302 218.570283 226.084302 
Q 217.999189 226.084302 217.665939 226.476677 
Q 217.332689 226.869052 217.332689 227.544959 
Q 217.332689 228.22624 217.665939 228.617271 
Q 217.999189 229.006959 218.570283 229.006959 
z
M 222.354115 231.664896 
L 222.354115 230.89224 
Q 222.673927 231.044084 223.000458 231.123365 
Q 223.328333 231.202646 223.644115 231.202646 
Q 224.483958 231.202646 224.926052 230.638271 
Q 225.36949 230.073896 225.432646 228.922302 
Q 225.189427 229.283771 224.814521 229.477271 
Q 224.440958 229.670771 223.988115 229.670771 
Q 223.04749 229.670771 222.49924 229.102365 
Q 221.95099 228.532615 221.95099 227.544959 
Q 221.95099 226.580146 222.522083 225.996959 
Q 223.093177 225.412427 224.041865 225.412427 
Q 225.130302 225.412427 225.70274 226.246896 
Q 226.276521 227.080021 226.276521 228.66699 
Q 226.276521 230.149146 225.572396 231.033334 
Q 224.869615 231.917521 223.68174 231.917521 
Q 223.361927 231.917521 223.034052 231.854365 
Q 222.707521 231.791209 222.354115 231.664896 
z
M 224.041865 229.006959 
Q 224.612958 229.006959 224.946208 228.617271 
Q 225.280802 228.22624 225.280802 227.544959 
Q 225.280802 226.869052 224.946208 226.476677 
Q 224.612958 226.084302 224.041865 226.084302 
Q 223.470771 226.084302 223.137521 226.476677 
Q 222.804271 226.869052 222.804271 227.544959 
Q 222.804271 228.22624 223.137521 228.617271 
Q 223.470771 229.006959 224.041865 229.006959 
z
M 228.531165 231.081709 
L 231.491447 231.081709 
L 231.491447 231.79524 
L 227.511259 231.79524 
L 227.511259 231.081709 
Q 227.993665 230.581834 228.82679 229.740646 
Q 229.661259 228.898115 229.874915 228.653552 
Q 230.282072 228.196677 230.443322 227.879552 
Q 230.605915 227.562427 230.605915 227.256052 
Q 230.605915 226.756177 230.255197 226.44174 
Q 229.904478 226.125959 229.341447 226.125959 
Q 228.942353 226.125959 228.498915 226.264365 
Q 228.056822 226.402771 227.552915 226.684959 
L 227.552915 225.827646 
Q 228.064884 225.622052 228.509665 225.51724 
Q 228.95579 225.412427 229.325322 225.412427 
Q 230.29954 225.412427 230.878697 225.900209 
Q 231.457853 226.386646 231.457853 227.200959 
Q 231.457853 227.587959 231.312728 227.934646 
Q 231.168947 228.27999 230.785978 228.750302 
Q 230.681165 228.872584 230.118134 229.454427 
Q 229.556447 230.036271 228.531165 231.081709 
z
" style="fill: #315fb0; stroke: #ffffff"/>
    <path d="M 210.46579 226.084302 
Q 209.811384 226.084302 209.480822 226.729302 
Q 209.151603 227.372959 209.151603 228.66699 
Q 209.151603 229.955646 209.480822 230.600646 
Q 209.811384 231.245646 210.46579 231.245646 
Q 211.125572 231.245646 211.45479 230.600646 
Q 211.785353 229.955646 211.785353 228.66699 
Q 211.785353 227.372959 211.45479 226.729302 
Q 211.125572 226.084302 210.46579 226.084302 
z
M 210.46579 225.412427 
Q 211.520634 225.412427 212.076947 226.246896 
Q 212.633259 227.080021 212.633259 228.66699 
Q 212.633259 230.249927 212.076947 231.084396 
Q 211.520634 231.917521 210.46579 231.917521 
Q 209.41229 231.917521 208.855978 231.084396 
Q 208.299665 230.249927 208.299665 228.66699 
Q 208.299665 227.080021 208.855978 226.246896 
Q 209.41229 225.412427 210.46579 225.412427 
z
M 214.12331 230.728302 
L 215.010185 230.728302 
L 215.010185 231.79524 
L 214.12331 231.79524 
L 214.12331 230.728302 
z
M 216.882533 231.664896 
L 216.882533 230.89224 
Q 217.202345 231.044084 217.528876 231.123365 
Q 217.856751 231.202646 218.172533 231.202646 
Q 219.012376 231.202646 219.45447 230.638271 
Q 219.897908 230.073896 219.961064 228.922302 
Q 219.717845 229.283771 219.342939 229.477271 
Q 218.969376 229.670771 218.516533 229.670771 
Q 217.575908 229.670771 217.027658 229.102365 
Q 216.479408 228.532615 216.479408 227.544959 
Q 216.479408 226.580146 217.050501 225.996959 
Q 217.621595 225.412427 218.570283 225.412427 
Q 219.65872 225.412427 220.231158 226.246896 
Q 220.804939 227.080021 220.804939 228.66699 
Q 220.804939 230.149146 220.100814 231.033334 
Q 219.398033 231.917521 218.210158 231.917521 
Q 217.890345 231.917521 217.56247 231.854365 
Q 217.235939 231.791209 216.882533 231.664896 
z
M 218.570283 229.006959 
Q 219.141376 229.006959 219.474626 228.617271 
Q 219.80922 228.22624 219.80922 227.544959 
Q 219.80922 226.869052 219.474626 226.476677 
Q 219.141376 226.084302 218.570283 226.084302 
Q 217.999189 226.084302 217.665939 226.476677 
Q 217.332689 226.869052 217.332689 227.544959 
Q 217.332689 228.22624 217.665939 228.617271 
Q 217.999189 229.006959 218.570283 229.006959 
z
M 222.354115 231.664896 
L 222.354115 230.89224 
Q 222.673927 231.044084 223.000458 231.123365 
Q 223.328333 231.202646 223.644115 231.202646 
Q 224.483958 231.202646 224.926052 230.638271 
Q 225.36949 230.073896 225.432646 228.922302 
Q 225.189427 229.283771 224.814521 229.477271 
Q 224.440958 229.670771 223.988115 229.670771 
Q 223.04749 229.670771 222.49924 229.102365 
Q 221.95099 228.532615 221.95099 227.544959 
Q 221.95099 226.580146 222.522083 225.996959 
Q 223.093177 225.412427 224.041865 225.412427 
Q 225.130302 225.412427 225.70274 226.246896 
Q 226.276521 227.080021 226.276521 228.66699 
Q 226.276521 230.149146 225.572396 231.033334 
Q 224.869615 231.917521 223.68174 231.917521 
Q 223.361927 231.917521 223.034052 231.854365 
Q 222.707521 231.791209 222.354115 231.664896 
z
M 224.041865 229.006959 
Q 224.612958 229.006959 224.946208 228.617271 
Q 225.280802 228.22624 225.280802 227.544959 
Q 225.280802 226.869052 224.946208 226.476677 
Q 224.612958 226.084302 224.041865 226.084302 
Q 223.470771 226.084302 223.137521 226.476677 
Q 222.804271 226.869052 222.804271 227.544959 
Q 222.804271 228.22624 223.137521 228.617271 
Q 223.470771 229.006959 224.041865 229.006959 
z
M 228.531165 231.081709 
L 231.491447 231.081709 
L 231.491447 231.79524 
L 227.511259 231.79524 
L 227.511259 231.081709 
Q 227.993665 230.581834 228.82679 229.740646 
Q 229.661259 228.898115 229.874915 228.653552 
Q 230.282072 228.196677 230.443322 227.879552 
Q 230.605915 227.562427 230.605915 227.256052 
Q 230.605915 226.756177 230.255197 226.44174 
Q 229.904478 226.125959 229.341447 226.125959 
Q 228.942353 226.125959 228.498915 226.264365 
Q 228.056822 226.402771 227.552915 226.684959 
L 227.552915 225.827646 
Q 228.064884 225.622052 228.509665 225.51724 
Q 228.95579 225.412427 229.325322 225.412427 
Q 230.29954 225.412427 230.878697 225.900209 
Q 231.457853 226.386646 231.457853 227.200959 
Q 231.457853 227.587959 231.312728 227.934646 
Q 231.168947 228.27999 230.785978 228.750302 
Q 230.681165 228.872584 230.118134 229.454427 
Q 229.556447 230.036271 228.531165 231.081709 
z
" style="fill: #315fb0"/>
   </g>
  </g>
  <g id="axes_2">
   <g id="patch_15">
    <path d="M 388.644719 243.718281 
L 587.489719 243.718281 
L 587.489719 23.558281 
L 388.644719 23.558281 
z
" style="fill: #ffffff"/>
   </g>
   <g id="patch_16">
    <path d="M 454.926385 33.565554 
L 570.654316 33.565554 
L 570.654316 49.850355 
L 454.926385 49.850355 
z
" clip-path="url(#p11a2c832f7)" style="fill: #ef7d00"/>
   </g>
   <g id="patch_17">
    <path d="M 454.926385 59.831362 
L 452.914657 59.831362 
L 452.914657 76.116162 
L 454.926385 76.116162 
z
" clip-path="url(#p11a2c832f7)" style="fill: #315fb0"/>
   </g>
   <g id="patch_18">
    <path d="M 454.926385 86.097169 
L 443.670894 86.097169 
L 443.670894 102.38197 
L 454.926385 102.38197 
z
" clip-path="url(#p11a2c832f7)" style="fill: #315fb0"/>
   </g>
   <g id="patch_19">
    <path d="M 454.926385 112.362977 
L 443.012874 112.362977 
L 443.012874 128.647778 
L 454.926385 128.647778 
z
" clip-path="url(#p11a2c832f7)" style="fill: #315fb0"/>
   </g>
   <g id="patch_20">
    <path d="M 454.926385 138.628785 
L 442.170054 138.628785 
L 442.170054 154.913585 
L 454.926385 154.913585 
z
" clip-path="url(#p11a2c832f7)" style="fill: #315fb0"/>
   </g>
   <g id="patch_21">
    <path d="M 454.926385 164.894592 
L 441.97244 164.894592 
L 441.97244 181.179393 
L 454.926385 181.179393 
z
" clip-path="url(#p11a2c832f7)" style="fill: #315fb0"/>
   </g>
   <g id="patch_22">
    <path d="M 454.926385 191.1604 
L 441.842352 191.1604 
L 441.842352 207.445201 
L 454.926385 207.445201 
z
" clip-path="url(#p11a2c832f7)" style="fill: #315fb0"/>
   </g>
   <g id="patch_23">
    <path d="M 454.926385 217.426208 
L 441.395198 217.426208 
L 441.395198 233.711009 
L 454.926385 233.711009 
z
" clip-path="url(#p11a2c832f7)" style="fill: #315fb0"/>
   </g>
   <g id="matplotlib.axis_3">
    <g id="xtick_6">
     <g id="line2d_20">
      <path d="M 388.644719 243.718281 
L 388.644719 23.558281 
" clip-path="url(#p11a2c832f7)" style="fill: none; stroke: #d8dee6; stroke-width: 0.6; stroke-linecap: square"/>
     </g>
     <g id="line2d_21">
      <g>
       <use xlink:href="#m1a4df83d9f" x="388.644719" y="243.718281" style="stroke: #000000; stroke-width: 0.8"/>
      </g>
     </g>
     <g id="text_26">
      <text style="font-size: 9.2px; font-family: 'DejaVu Sans'; text-anchor: middle" x="388.644719" y="257.708844" transform="rotate(-0 388.644719 257.708844)">−0.02</text>
     </g>
    </g>
    <g id="xtick_7">
     <g id="line2d_22">
      <path d="M 421.785552 243.718281 
L 421.785552 23.558281 
" clip-path="url(#p11a2c832f7)" style="fill: none; stroke: #d8dee6; stroke-width: 0.6; stroke-linecap: square"/>
     </g>
     <g id="line2d_23">
      <g>
       <use xlink:href="#m1a4df83d9f" x="421.785552" y="243.718281" style="stroke: #000000; stroke-width: 0.8"/>
      </g>
     </g>
     <g id="text_27">
      <text style="font-size: 9.2px; font-family: 'DejaVu Sans'; text-anchor: middle" x="421.785552" y="257.708844" transform="rotate(-0 421.785552 257.708844)">−0.01</text>
     </g>
    </g>
    <g id="xtick_8">
     <g id="line2d_24">
      <path d="M 454.926385 243.718281 
L 454.926385 23.558281 
" clip-path="url(#p11a2c832f7)" style="fill: none; stroke: #d8dee6; stroke-width: 0.6; stroke-linecap: square"/>
     </g>
     <g id="line2d_25">
      <g>
       <use xlink:href="#m1a4df83d9f" x="454.926385" y="243.718281" style="stroke: #000000; stroke-width: 0.8"/>
      </g>
     </g>
     <g id="text_28">
      <text style="font-size: 9.2px; font-family: 'DejaVu Sans'; text-anchor: middle" x="454.926385" y="257.708844" transform="rotate(-0 454.926385 257.708844)">0.00</text>
     </g>
    </g>
    <g id="xtick_9">
     <g id="line2d_26">
      <path d="M 488.067219 243.718281 
L 488.067219 23.558281 
" clip-path="url(#p11a2c832f7)" style="fill: none; stroke: #d8dee6; stroke-width: 0.6; stroke-linecap: square"/>
     </g>
     <g id="line2d_27">
      <g>
       <use xlink:href="#m1a4df83d9f" x="488.067219" y="243.718281" style="stroke: #000000; stroke-width: 0.8"/>
      </g>
     </g>
     <g id="text_29">
      <text style="font-size: 9.2px; font-family: 'DejaVu Sans'; text-anchor: middle" x="488.067219" y="257.708844" transform="rotate(-0 488.067219 257.708844)">0.01</text>
     </g>
    </g>
    <g id="xtick_10">
     <g id="line2d_28">
      <path d="M 521.208052 243.718281 
L 521.208052 23.558281 
" clip-path="url(#p11a2c832f7)" style="fill: none; stroke: #d8dee6; stroke-width: 0.6; stroke-linecap: square"/>
     </g>
     <g id="line2d_29">
      <g>
       <use xlink:href="#m1a4df83d9f" x="521.208052" y="243.718281" style="stroke: #000000; stroke-width: 0.8"/>
      </g>
     </g>
     <g id="text_30">
      <text style="font-size: 9.2px; font-family: 'DejaVu Sans'; text-anchor: middle" x="521.208052" y="257.708844" transform="rotate(-0 521.208052 257.708844)">0.02</text>
     </g>
    </g>
    <g id="xtick_11">
     <g id="line2d_30">
      <path d="M 554.348885 243.718281 
L 554.348885 23.558281 
" clip-path="url(#p11a2c832f7)" style="fill: none; stroke: #d8dee6; stroke-width: 0.6; stroke-linecap: square"/>
     </g>
     <g id="line2d_31">
      <g>
       <use xlink:href="#m1a4df83d9f" x="554.348885" y="243.718281" style="stroke: #000000; stroke-width: 0.8"/>
      </g>
     </g>
     <g id="text_31">
      <text style="font-size: 9.2px; font-family: 'DejaVu Sans'; text-anchor: middle" x="554.348885" y="257.708844" transform="rotate(-0 554.348885 257.708844)">0.03</text>
     </g>
    </g>
    <g id="xtick_12">
     <g id="line2d_32">
      <path d="M 587.489719 243.718281 
L 587.489719 23.558281 
" clip-path="url(#p11a2c832f7)" style="fill: none; stroke: #d8dee6; stroke-width: 0.6; stroke-linecap: square"/>
     </g>
     <g id="line2d_33">
      <g>
       <use xlink:href="#m1a4df83d9f" x="587.489719" y="243.718281" style="stroke: #000000; stroke-width: 0.8"/>
      </g>
     </g>
     <g id="text_32">
      <text style="font-size: 9.2px; font-family: 'DejaVu Sans'; text-anchor: middle" x="587.489719" y="257.708844" transform="rotate(-0 587.489719 257.708844)">0.04</text>
     </g>
    </g>
    <g id="text_33">
     <text style="font-size: 10.5px; font-family: 'DejaVu Sans'; text-anchor: middle" x="488.067219" y="271.600516" transform="rotate(-0 488.067219 271.600516)">Delta Pearson after removing one study</text>
    </g>
   </g>
   <g id="matplotlib.axis_4">
    <g id="ytick_9">
     <g id="line2d_34">
      <g>
       <use xlink:href="#mfd207de49a" x="388.644719" y="41.707954" style="stroke: #000000; stroke-width: 0.8"/>
      </g>
     </g>
     <g id="text_34">
      <text style="font-size: 9.2px; font-family: 'DejaVu Sans'; text-anchor: end" x="381.644719" y="45.203236" transform="rotate(-0 381.644719 45.203236)">Gejman</text>
     </g>
    </g>
    <g id="ytick_10">
     <g id="line2d_35">
      <g>
       <use xlink:href="#mfd207de49a" x="388.644719" y="67.973762" style="stroke: #000000; stroke-width: 0.8"/>
      </g>
     </g>
     <g id="text_35">
      <text style="font-size: 9.2px; font-family: 'DejaVu Sans'; text-anchor: end" x="381.644719" y="71.469043" transform="rotate(-0 381.644719 71.469043)">Cramer2</text>
     </g>
    </g>
    <g id="ytick_11">
     <g id="line2d_36">
      <g>
       <use xlink:href="#mfd207de49a" x="388.644719" y="94.23957" style="stroke: #000000; stroke-width: 0.8"/>
      </g>
     </g>
     <g id="text_36">
      <text style="font-size: 9.2px; font-family: 'DejaVu Sans'; text-anchor: end" x="381.644719" y="97.734851" transform="rotate(-0 381.644719 97.734851)">Marks</text>
     </g>
    </g>
    <g id="ytick_12">
     <g id="line2d_37">
      <g>
       <use xlink:href="#mfd207de49a" x="388.644719" y="120.505377" style="stroke: #000000; stroke-width: 0.8"/>
      </g>
     </g>
     <g id="text_37">
      <text style="font-size: 9.2px; font-family: 'DejaVu Sans'; text-anchor: end" x="381.644719" y="124.000659" transform="rotate(-0 381.644719 124.000659)">Cramer</text>
     </g>
    </g>
    <g id="ytick_13">
     <g id="line2d_38">
      <g>
       <use xlink:href="#mfd207de49a" x="388.644719" y="146.771185" style="stroke: #000000; stroke-width: 0.8"/>
      </g>
     </g>
     <g id="text_38">
      <text style="font-size: 9.2px; font-family: 'DejaVu Sans'; text-anchor: end" x="381.644719" y="150.266466" transform="rotate(-0 381.644719 150.266466)">Akimitsu2</text>
     </g>
    </g>
    <g id="ytick_14">
     <g id="line2d_39">
      <g>
       <use xlink:href="#mfd207de49a" x="388.644719" y="173.036993" style="stroke: #000000; stroke-width: 0.8"/>
      </g>
     </g>
     <g id="text_39">
      <text style="font-size: 9.2px; font-family: 'DejaVu Sans'; text-anchor: end" x="381.644719" y="176.532274" transform="rotate(-0 381.644719 176.532274)">Mortazavi</text>
     </g>
    </g>
    <g id="ytick_15">
     <g id="line2d_40">
      <g>
       <use xlink:href="#mfd207de49a" x="388.644719" y="199.3028" style="stroke: #000000; stroke-width: 0.8"/>
      </g>
     </g>
     <g id="text_40">
      <text style="font-size: 9.2px; font-family: 'DejaVu Sans'; text-anchor: end" x="381.644719" y="202.798082" transform="rotate(-0 381.644719 202.798082)">Darnell</text>
     </g>
    </g>
    <g id="ytick_16">
     <g id="line2d_41">
      <g>
       <use xlink:href="#mfd207de49a" x="388.644719" y="225.568608" style="stroke: #000000; stroke-width: 0.8"/>
      </g>
     </g>
     <g id="text_41">
      <text style="font-size: 9.2px; font-family: 'DejaVu Sans'; text-anchor: end" x="381.644719" y="229.063889" transform="rotate(-0 381.644719 229.063889)">Oberdoerffer</text>
     </g>
    </g>
    <g id="text_42">
     <text style="font-size: 10.5px; font-family: 'DejaVu Sans'; text-anchor: middle" x="316.263359" y="133.638281" transform="rotate(-90 316.263359 133.638281)">Study removed</text>
    </g>
   </g>
   <g id="line2d_42">
    <path d="M 454.926385 243.718281 
L 454.926385 23.558281 
" clip-path="url(#p11a2c832f7)" style="fill: none; stroke-dasharray: 4,3; stroke-dashoffset: 0; stroke: #7b8794"/>
   </g>
   <g id="patch_24">
    <path d="M 388.644719 243.718281 
L 388.644719 23.558281 
" style="fill: none; stroke: #000000; stroke-width: 0.8; stroke-linejoin: miter; stroke-linecap: square"/>
   </g>
   <g id="patch_25">
    <path d="M 587.489719 243.718281 
L 587.489719 23.558281 
" style="fill: none; stroke: #000000; stroke-width: 0.8; stroke-linejoin: miter; stroke-linecap: square"/>
   </g>
   <g id="patch_26">
    <path d="M 388.644719 243.718281 
L 587.489719 243.718281 
" style="fill: none; stroke: #000000; stroke-width: 0.8; stroke-linejoin: miter; stroke-linecap: square"/>
   </g>
   <g id="patch_27">
    <path d="M 388.644719 23.558281 
L 587.489719 23.558281 
" style="fill: none; stroke: #000000; stroke-width: 0.8; stroke-linejoin: miter; stroke-linecap: square"/>
   </g>
   <g id="text_43">
    <g id="patch_28">
     <path d="M 533.845174 66.049465 
L 558.228799 66.049465 
Q 558.900799 66.049465 558.900799 65.377465 
L 558.900799 56.91184 
Q 558.900799 56.23984 558.228799 56.23984 
L 533.845174 56.23984 
Q 533.173174 56.23984 533.173174 56.91184 
L 533.173174 65.377465 
Q 533.173174 66.049465 533.845174 66.049465 
z
" style="fill: #ffffff; opacity: 0.9"/>
    </g>
    <text style="font-size: 8.4px; font-family: 'DejaVu Sans'; text-anchor: end; fill: #ef7d00" x="558.060799" y="63.462527" transform="rotate(-0 558.060799 63.462527)">0.035</text>
   </g>
   <g id="text_44">
    <g id="patch_29">
     <path d="M 419.70312 72.878575 
L 447.117307 72.878575 
Q 447.789307 72.878575 447.789307 72.206575 
L 447.789307 63.74095 
Q 447.789307 63.06895 447.117307 63.06895 
L 419.70312 63.06895 
Q 419.03112 63.06895 419.03112 63.74095 
L 419.03112 72.206575 
Q 419.03112 72.878575 419.70312 72.878575 
z
" style="fill: #ffffff; opacity: 0.9"/>
    </g>
    <text style="font-size: 8.4px; font-family: 'DejaVu Sans'; text-anchor: end; fill: #315fb0" x="446.949307" y="70.291637" transform="rotate(-0 446.949307 70.291637)">-0.001</text>
   </g>
   <g id="text_45">
    <g id="patch_30">
     <path d="M 410.459356 99.144382 
L 437.873544 99.144382 
Q 438.545544 99.144382 438.545544 98.472382 
L 438.545544 90.006757 
Q 438.545544 89.334757 437.873544 89.334757 
L 410.459356 89.334757 
Q 409.787356 89.334757 409.787356 90.006757 
L 409.787356 98.472382 
Q 409.787356 99.144382 410.459356 99.144382 
z
" style="fill: #ffffff; opacity: 0.9"/>
    </g>
    <text style="font-size: 8.4px; font-family: 'DejaVu Sans'; text-anchor: end; fill: #315fb0" x="437.705544" y="96.557445" transform="rotate(-0 437.705544 96.557445)">-0.003</text>
   </g>
   <g id="text_46">
    <g id="patch_31">
     <path d="M 409.801337 125.41019 
L 437.215524 125.41019 
Q 437.887524 125.41019 437.887524 124.73819 
L 437.887524 116.272565 
Q 437.887524 115.600565 437.215524 115.600565 
L 409.801337 115.600565 
Q 409.129337 115.600565 409.129337 116.272565 
L 409.129337 124.73819 
Q 409.129337 125.41019 409.801337 125.41019 
z
" style="fill: #ffffff; opacity: 0.9"/>
    </g>
    <text style="font-size: 8.4px; font-family: 'DejaVu Sans'; text-anchor: end; fill: #315fb0" x="437.047524" y="122.823252" transform="rotate(-0 437.047524 122.823252)">-0.004</text>
   </g>
   <g id="text_47">
    <g id="patch_32">
     <path d="M 408.958517 151.675998 
L 436.372704 151.675998 
Q 437.044704 151.675998 437.044704 151.003998 
L 437.044704 142.538373 
Q 437.044704 141.866373 436.372704 141.866373 
L 408.958517 141.866373 
Q 408.286517 141.866373 408.286517 142.538373 
L 408.286517 151.003998 
Q 408.286517 151.675998 408.958517 151.675998 
z
" style="fill: #ffffff; opacity: 0.9"/>
    </g>
    <text style="font-size: 8.4px; font-family: 'DejaVu Sans'; text-anchor: end; fill: #315fb0" x="436.204704" y="149.08906" transform="rotate(-0 436.204704 149.08906)">-0.004</text>
   </g>
   <g id="text_48">
    <g id="patch_33">
     <path d="M 408.760902 177.941805 
L 436.17509 177.941805 
Q 436.84709 177.941805 436.84709 177.269805 
L 436.84709 168.80418 
Q 436.84709 168.13218 436.17509 168.13218 
L 408.760902 168.13218 
Q 408.088902 168.13218 408.088902 168.80418 
L 408.088902 177.269805 
Q 408.088902 177.941805 408.760902 177.941805 
z
" style="fill: #ffffff; opacity: 0.9"/>
    </g>
    <text style="font-size: 8.4px; font-family: 'DejaVu Sans'; text-anchor: end; fill: #315fb0" x="436.00709" y="175.354868" transform="rotate(-0 436.00709 175.354868)">-0.004</text>
   </g>
   <g id="text_49">
    <g id="patch_34">
     <path d="M 408.630815 204.207613 
L 436.045002 204.207613 
Q 436.717002 204.207613 436.717002 203.535613 
L 436.717002 195.069988 
Q 436.717002 194.397988 436.045002 194.397988 
L 408.630815 194.397988 
Q 407.958815 194.397988 407.958815 195.069988 
L 407.958815 203.535613 
Q 407.958815 204.207613 408.630815 204.207613 
z
" style="fill: #ffffff; opacity: 0.9"/>
    </g>
    <text style="font-size: 8.4px; font-family: 'DejaVu Sans'; text-anchor: end; fill: #315fb0" x="435.877002" y="201.620675" transform="rotate(-0 435.877002 201.620675)">-0.004</text>
   </g>
   <g id="text_50">
    <g id="patch_35">
     <path d="M 408.183661 230.473421 
L 435.597848 230.473421 
Q 436.269848 230.473421 436.269848 229.801421 
L 436.269848 221.335796 
Q 436.269848 220.663796 435.597848 220.663796 
L 408.183661 220.663796 
Q 407.511661 220.663796 407.511661 221.335796 
L 407.511661 229.801421 
Q 407.511661 230.473421 408.183661 230.473421 
z
" style="fill: #ffffff; opacity: 0.9"/>
    </g>
    <text style="font-size: 8.4px; font-family: 'DejaVu Sans'; text-anchor: end; fill: #315fb0" x="435.429848" y="227.886483" transform="rotate(-0 435.429848 227.886483)">-0.004</text>
   </g>
   <g id="text_51">
    <text style="font-weight: 700; font-size: 13px; font-family: 'DejaVu Sans'; text-anchor: start; fill: #1f2933" x="348.875719" y="18.02505" transform="rotate(-0 348.875719 18.02505)">b</text>
   </g>
   <g id="text_52">
    <text style="font-size: 11px; font-family: 'DejaVu Sans'; text-anchor: middle; fill: #1f2933" x="503.974819" y="15.558281" transform="rotate(-0 503.974819 15.558281)">Agreement gain vs Saluki human PC1</text>
   </g>
  </g>
 </g>
 <defs>
  <clipPath id="pc6ff6f6052">
   <rect x="87.559719" y="23.558281" width="198.845" height="220.16"/>
  </clipPath>
  <clipPath id="p11a2c832f7">
   <rect x="388.644719" y="23.558281" width="198.845" height="220.16"/>
  </clipPath>
 </defs>
</svg>
