<?xml version="1.0" encoding="utf-8" standalone="no"?>
<!DOCTYPE svg PUBLIC "-//W3C//DTD SVG 1.1//EN"
  "http://www.w3.org/Graphics/SVG/1.1/DTD/svg11.dtd">
<svg xmlns:xlink="http://www.w3.org/1999/xlink" width="418.95pt" height="302.688pt" viewBox="0 0 418.95 302.688" xmlns="http://www.w3.org/2000/svg" version="1.1">
 <metadata>
  <rdf:RDF xmlns:dc="http://purl.org/dc/elements/1.1/" xmlns:cc="http://creativecommons.org/ns#" xmlns:rdf="http://www.w3.org/1999/02/22-rdf-syntax-ns#">
   <cc:Work>
    <dc:type rdf:resource="http://purl.org/dc/dcmitype/StillImage"/>
    <dc:date>2026-07-15T18:41:56.010269</dc:date>
    <dc:format>image/svg+xml</dc:format>
    <dc:creator>
     <cc:Agent>
      <dc:title>Matplotlib v3.10.6, https://matplotlib.org/</dc:title>
     </cc:Agent>
    </dc:creator>
   </cc:Work>
  </rdf:RDF>
 </metadata>
 <defs>
  <style type="text/css">*{stroke-linejoin: round; stroke-linecap: butt}</style>
 </defs>
 <g id="figure_1">
  <g id="patch_1">
   <path d="M 0 302.688
L 418.95 302.688
L 418.95 0
L 0 0
z
" style="fill: #ffffff"/>
  </g>
  <g id="axes_1">
   <g id="patch_2">
    <path d="M 16.9092 147.884544
L 201.78855 147.884544
Q 206.64315 147.884544 206.64315 144.425088
L 206.64315 15.560352
Q 206.64315 12.100896 201.78855 12.100896
L 16.9092 12.100896
Q 12.0546 12.100896 12.0546 15.560352
L 12.0546 144.425088
Q 12.0546 147.884544 16.9092 147.884544
z
" clip-path="url(#pd5b38d2aa6)" style="fill: #f3f7fe; stroke: #356ac3; stroke-width: 1.15; stroke-linejoin: miter"/>
   </g>
   <g id="patch_3">
    <path d="M 33.0912 101.758464
L 98.6283 101.758464
Q 103.4829 101.758464 103.4829 98.299008
L 103.4829 60.244992
Q 103.4829 56.785536 98.6283 56.785536
L 33.0912 56.785536
Q 28.2366 56.785536 28.2366 60.244992
L 28.2366 98.299008
Q 28.2366 101.758464 33.0912 101.758464
z
" clip-path="url(#pd5b38d2aa6)" style="fill: #ffffff; stroke: #356ac3; stroke-linejoin: miter"/>
   </g>
   <g id="patch_4">
    <path d="M 130.1832 101.758464
L 183.5838 101.758464
Q 188.4384 101.758464 188.4384 98.299008
L 188.4384 60.244992
Q 188.4384 56.785536 183.5838 56.785536
L 130.1832 56.785536
Q 125.3286 56.785536 125.3286 60.244992
L 125.3286 98.299008
Q 125.3286 101.758464 130.1832 101.758464
z
" clip-path="url(#pd5b38d2aa6)" style="fill: #ffffff; stroke: #356ac3; stroke-linejoin: miter"/>
   </g>
   <g id="patch_5">
    <path d="M 217.16145 147.884544
L 402.0408 147.884544
Q 406.8954 147.884544 406.8954 144.425088
L 406.8954 15.560352
Q 406.8954 12.100896 402.0408 12.100896
L 217.16145 12.100896
Q 212.30685 12.100896 212.30685 15.560352
L 212.30685 144.425088
Q 212.30685 147.884544 217.16145 147.884544
z
" clip-path="url(#pd5b38d2aa6)" style="fill: #f1fafa; stroke: #178b8d; stroke-width: 1.15; stroke-linejoin: miter"/>
   </g>
   <g id="patch_6">
    <path d="M 233.34345 101.758464
L 298.88055 101.758464
Q 303.73515 101.758464 303.73515 98.299008
L 303.73515 60.244992
Q 303.73515 56.785536 298.88055 56.785536
L 233.34345 56.785536
Q 228.48885 56.785536 228.48885 60.244992
L 228.48885 98.299008
Q 228.48885 101.758464 233.34345 101.758464
z
" clip-path="url(#pd5b38d2aa6)" style="fill: #ffffff; stroke: #178b8d; stroke-linejoin: miter"/>
   </g>
   <g id="patch_7">
    <path d="M 330.43545 101.758464
L 383.83605 101.758464
Q 388.69065 101.758464 388.69065 98.299008
L 388.69065 60.244992
Q 388.69065 56.785536 383.83605 56.785536
L 330.43545 56.785536
Q 325.58085 56.785536 325.58085 60.244992
L 325.58085 98.299008
Q 325.58085 101.758464 330.43545 101.758464
z
" clip-path="url(#pd5b38d2aa6)" style="fill: #ffffff; stroke: #178b8d; stroke-linejoin: miter"/>
   </g>
   <g id="patch_8">
    <path d="M 16.9092 289.145664
L 201.78855 289.145664
Q 206.64315 289.145664 206.64315 285.686208
L 206.64315 156.821472
Q 206.64315 153.362016 201.78855 153.362016
L 16.9092 153.362016
Q 12.0546 153.362016 12.0546 156.821472
L 12.0546 285.686208
Q 12.0546 289.145664 16.9092 289.145664
z
" clip-path="url(#pd5b38d2aa6)" style="fill: #f7f4fc; stroke: #7257b6; stroke-width: 1.15; stroke-linejoin: miter"/>
   </g>
   <g id="patch_9">
    <path d="M 31.06845 251.668224
L 96.60555 251.668224
Q 101.46015 251.668224 101.46015 248.208768
L 101.46015 221.686272
Q 101.46015 218.226816 96.60555 218.226816
L 31.06845 218.226816
Q 26.21385 218.226816 26.21385 221.686272
L 26.21385 248.208768
Q 26.21385 251.668224 31.06845 251.668224
z
" clip-path="url(#pd5b38d2aa6)" style="fill: #ffffff; stroke: #7257b6; stroke-linejoin: miter"/>
   </g>
   <g id="patch_10">
    <path d="M 31.06845 211.307904
L 96.60555 211.307904
Q 101.46015 211.307904 101.46015 207.848448
L 101.46015 184.208832
Q 101.46015 180.749376 96.60555 180.749376
L 31.06845 180.749376
Q 26.21385 180.749376 26.21385 184.208832
L 26.21385 207.848448
Q 26.21385 211.307904 31.06845 211.307904
z
" clip-path="url(#pd5b38d2aa6)" style="fill: #ffffff; stroke: #7257b6; stroke-linejoin: miter"/>
   </g>
   <g id="patch_11">
    <path d="M 130.1832 243.019584
L 183.5838 243.019584
Q 188.4384 243.019584 188.4384 239.560128
L 188.4384 191.416032
Q 188.4384 187.956576 183.5838 187.956576
L 130.1832 187.956576
Q 125.3286 187.956576 125.3286 191.416032
L 125.3286 239.560128
Q 125.3286 243.019584 130.1832 243.019584
z
" clip-path="url(#pd5b38d2aa6)" style="fill: #ffffff; stroke: #7257b6; stroke-linejoin: miter"/>
   </g>
   <g id="patch_12">
    <path d="M 217.16145 289.145664
L 402.0408 289.145664
Q 406.8954 289.145664 406.8954 285.686208
L 406.8954 156.821472
Q 406.8954 153.362016 402.0408 153.362016
L 217.16145 153.362016
Q 212.30685 153.362016 212.30685 156.821472
L 212.30685 285.686208
Q 212.30685 289.145664 217.16145 289.145664
z
" clip-path="url(#pd5b38d2aa6)" style="fill: #fff8f0; stroke: #d9771e; stroke-width: 1.15; stroke-linejoin: miter"/>
   </g>
   <g id="patch_13">
    <path d="M 231.3207 206.983584
L 296.8578 206.983584
Q 301.7124 206.983584 301.7124 203.524128
L 301.7124 175.560192
Q 301.7124 172.100736 296.8578 172.100736
L 231.3207 172.100736
Q 226.4661 172.100736 226.4661 175.560192
L 226.4661 203.524128
Q 226.4661 206.983584 231.3207 206.983584
z
" clip-path="url(#pd5b38d2aa6)" style="fill: #ffffff; stroke: #d9771e; stroke-linejoin: miter"/>
   </g>
   <g id="patch_14">
    <path d="M 334.48095 206.983584
L 387.88155 206.983584
Q 392.73615 206.983584 392.73615 203.524128
L 392.73615 175.560192
Q 392.73615 172.100736 387.88155 172.100736
L 334.48095 172.100736
Q 329.62635 172.100736 329.62635 175.560192
L 329.62635 203.524128
Q 329.62635 206.983584 334.48095 206.983584
z
" clip-path="url(#pd5b38d2aa6)" style="fill: #ffffff; stroke: #d9771e; stroke-linejoin: miter"/>
   </g>
   <g id="patch_15">
    <path d="M 231.3207 279.055584
L 296.8578 279.055584
Q 301.7124 279.055584 301.7124 275.596128
L 301.7124 231.776352
Q 301.7124 228.316896 296.8578 228.316896
L 231.3207 228.316896
Q 226.4661 228.316896 226.4661 231.776352
L 226.4661 275.596128
Q 226.4661 279.055584 231.3207 279.055584
z
" clip-path="url(#pd5b38d2aa6)" style="fill: #ffffff; stroke: #178b8d; stroke-linejoin: miter"/>
   </g>
   <g id="patch_16">
    <path d="M 334.48095 251.668224
L 387.88155 251.668224
Q 392.73615 251.668224 392.73615 248.208768
L 392.73615 224.569152
Q 392.73615 221.109696 387.88155 221.109696
L 334.48095 221.109696
Q 329.62635 221.109696 329.62635 224.569152
L 329.62635 248.208768
Q 329.62635 251.668224 334.48095 251.668224
z
" clip-path="url(#pd5b38d2aa6)" style="fill: #ffffff; stroke: #178b8d; stroke-linejoin: miter"/>
   </g>
   <g id="patch_17">
    <path d="M 334.48095 281.217744
L 387.88155 281.217744
Q 392.73615 281.217744 392.73615 277.758288
L 392.73615 259.884432
Q 392.73615 256.424976 387.88155 256.424976
L 334.48095 256.424976
Q 329.62635 256.424976 329.62635 259.884432
L 329.62635 277.758288
Q 329.62635 281.217744 334.48095 281.217744
z
" clip-path="url(#pd5b38d2aa6)" style="fill: #ffffff; stroke: #356ac3; stroke-linejoin: miter"/>
   </g>
   <g id="text_1">
    <text style="font-weight: 700; font-size: 8px; font-family: 'Arial', 'Liberation Sans', 'DejaVu Sans', sans-serif; text-anchor: middle; fill: #202936" x="65.85975" y="77.304718" transform="rotate(-0 65.85975 77.304718)">Available input</text>
   </g>
   <g id="text_2">
    <text style="font-size: 6.7px; font-family: 'Arial', 'Liberation Sans', 'DejaVu Sans', sans-serif; fill: #586575" transform="translate(34.427852 86.970407)">5'UTR / CDS / 3'UTR</text>
    <text style="font-size: 6.7px; font-family: 'Arial', 'Liberation Sans', 'DejaVu Sans', sans-serif; fill: #586575" transform="translate(34.758664 93.604496)">partitioned sequence</text>
   </g>
   <g id="text_3">
    <text style="font-weight: 700; font-size: 8px; font-family: 'Arial', 'Liberation Sans', 'DejaVu Sans', sans-serif; text-anchor: middle; fill: #202936" x="156.8835" y="77.304718" transform="rotate(-0 156.8835 77.304718)">Base model</text>
   </g>
   <g id="text_4">
    <text style="font-size: 6.7px; font-family: 'Arial', 'Liberation Sans', 'DejaVu Sans', sans-serif; fill: #586575" transform="translate(135.836602 86.970407)">526 sequence</text>
    <text style="font-size: 6.7px; font-family: 'Arial', 'Liberation Sans', 'DejaVu Sans', sans-serif; fill: #586575" transform="translate(144.780055 93.604496)">features</text>
   </g>
   <g id="text_5">
    <text style="font-weight: 700; font-size: 8px; font-family: 'Arial', 'Liberation Sans', 'DejaVu Sans', sans-serif; text-anchor: middle; fill: #202936" x="266.112" y="77.304718" transform="rotate(-0 266.112 77.304718)">Available input</text>
   </g>
   <g id="text_6">
    <text style="font-size: 6.7px; font-family: 'Arial', 'Liberation Sans', 'DejaVu Sans', sans-serif; fill: #586575" transform="translate(233.523828 86.970407)">Ensembl human gene</text>
    <text style="font-size: 6.7px; font-family: 'Arial', 'Liberation Sans', 'DejaVu Sans', sans-serif; fill: #586575" transform="translate(237.90343 93.604496)">+ regulatory blocks</text>
   </g>
   <g id="text_7">
    <text style="font-weight: 700; font-size: 8px; font-family: 'Arial', 'Liberation Sans', 'DejaVu Sans', sans-serif; text-anchor: middle; fill: #202936" x="357.13575" y="77.304718" transform="rotate(-0 357.13575 77.304718)">Compact model</text>
   </g>
   <g id="text_8">
    <text style="font-size: 6.7px; font-family: 'Arial', 'Liberation Sans', 'DejaVu Sans', sans-serif; fill: #586575" transform="translate(337.580648 86.970407)">1,802 human</text>
    <text style="font-size: 6.7px; font-family: 'Arial', 'Liberation Sans', 'DejaVu Sans', sans-serif; fill: #586575" transform="translate(345.032305 93.604496)">features</text>
   </g>
   <g id="text_9">
    <text style="font-weight: 700; font-size: 8px; font-family: 'Arial', 'Liberation Sans', 'DejaVu Sans', sans-serif; text-anchor: middle; fill: #202936" x="63.837" y="234.13339" transform="rotate(-0 63.837 234.13339)">Human input</text>
   </g>
   <g id="text_10">
    <text style="font-size: 6.7px; font-family: 'Arial', 'Liberation Sans', 'DejaVu Sans', sans-serif; text-anchor: middle; fill: #586575" x="63.837" y="243.310722" transform="rotate(-0 63.837 243.310722)">compact features</text>
   </g>
   <g id="text_11">
    <text style="font-weight: 700; font-size: 7px; font-family: 'Arial', 'Liberation Sans', 'DejaVu Sans', sans-serif; text-anchor: middle; fill: #202936" x="63.837" y="195.228892" transform="rotate(-0 63.837 195.228892)">Mouse ortholog priors</text>
   </g>
   <g id="text_12">
    <text style="font-size: 5.9px; font-family: 'Arial', 'Liberation Sans', 'DejaVu Sans', sans-serif; text-anchor: middle; fill: #586575" x="63.837" y="203.521905" transform="rotate(-0 63.837 203.521905)">values + flags</text>
   </g>
   <g id="text_13">
    <text style="font-weight: 700; font-size: 8px; font-family: 'Arial', 'Liberation Sans', 'DejaVu Sans', sans-serif; text-anchor: middle; fill: #202936" x="156.8835" y="212.51179" transform="rotate(-0 156.8835 212.51179)">Transfer model</text>
   </g>
   <g id="text_14">
    <text style="font-size: 6.7px; font-family: 'Arial', 'Liberation Sans', 'DejaVu Sans', sans-serif; text-anchor: middle; fill: #586575" x="156.8835" y="228.82425" transform="rotate(-0 156.8835 228.82425)">fixed human target</text>
   </g>
   <g id="text_15">
    <text style="font-weight: 700; font-size: 7.2px; font-family: 'Arial', 'Liberation Sans', 'DejaVu Sans', sans-serif; fill: #202936" transform="translate(243.488812 187.917716)">Mouse prior</text>
    <text style="font-weight: 700; font-size: 7.2px; font-family: 'Arial', 'Liberation Sans', 'DejaVu Sans', sans-serif; fill: #202936" transform="translate(246.681562 194.890354)">available?</text>
   </g>
   <g id="text_16">
    <text style="font-weight: 700; font-size: 6.7px; font-family: 'Arial', 'Liberation Sans', 'DejaVu Sans', sans-serif; fill: #202936" transform="translate(341.631906 185.003501)">Use transfer</text>
    <text style="font-weight: 700; font-size: 6.7px; font-family: 'Arial', 'Liberation Sans', 'DejaVu Sans', sans-serif; fill: #202936" transform="translate(351.316547 191.491927)">model</text>
   </g>
   <g id="text_17">
    <text style="font-size: 5.7px; font-family: 'Arial', 'Liberation Sans', 'DejaVu Sans', sans-serif; text-anchor: middle; fill: #586575" x="361.18125" y="197.9783" transform="rotate(-0 361.18125 197.9783)">human + mouse</text>
   </g>
   <g id="text_18">
    <text style="font-weight: 700; font-size: 7.2px; font-family: 'Arial', 'Liberation Sans', 'DejaVu Sans', sans-serif; fill: #202936" transform="translate(245.287125 252.046046)">Regulatory</text>
    <text style="font-weight: 700; font-size: 7.2px; font-family: 'Arial', 'Liberation Sans', 'DejaVu Sans', sans-serif; fill: #202936" transform="translate(250.486875 259.050184)">blocks?</text>
   </g>
   <g id="text_19">
    <text style="font-weight: 700; font-size: 6.7px; font-family: 'Arial', 'Liberation Sans', 'DejaVu Sans', sans-serif; fill: #202936" transform="translate(340.330117 232.282733)">Use compact</text>
    <text style="font-weight: 700; font-size: 6.7px; font-family: 'Arial', 'Liberation Sans', 'DejaVu Sans', sans-serif; fill: #202936" transform="translate(351.316547 238.771159)">model</text>
   </g>
   <g id="text_20">
    <text style="font-size: 5.7px; font-family: 'Arial', 'Liberation Sans', 'DejaVu Sans', sans-serif; text-anchor: middle; fill: #586575" x="361.18125" y="243.830506" transform="rotate(-0 361.18125 243.830506)">human-only</text>
   </g>
   <g id="text_21">
    <text style="font-weight: 700; font-size: 7px; font-family: 'Arial', 'Liberation Sans', 'DejaVu Sans', sans-serif; text-anchor: middle; fill: #202936" x="361.18125" y="270.631516" transform="rotate(-0 361.18125 270.631516)">Use base model</text>
   </g>
   <g id="text_22">
    <text style="font-weight: 700; font-size: 10px; font-family: 'Arial', 'Liberation Sans', 'DejaVu Sans', sans-serif; text-anchor: start; fill: #356ac3" x="25.40475" y="27.948082" transform="rotate(-0 25.40475 27.948082)">a</text>
   </g>
   <g id="text_23">
    <text style="font-weight: 700; font-size: 8.8px; font-family: 'Arial', 'Liberation Sans', 'DejaVu Sans', sans-serif; text-anchor: start; fill: #356ac3" x="40.3731" y="27.637769" transform="rotate(-0 40.3731 27.637769)">Base sequence</text>
   </g>
   <g id="patch_18">
    <path d="M 105.248559 79.272
Q 114.406353 79.272 122.222506 79.272
" clip-path="url(#pd5b38d2aa6)" style="fill: none; stroke: #356ac3; stroke-width: 1.2; stroke-linecap: round"/>
    <path d="M 118.622506 77.472
L 122.222506 79.272
L 118.622506 81.072
z
" clip-path="url(#pd5b38d2aa6)" style="fill: #356ac3; stroke: #356ac3; stroke-width: 1.2; stroke-linecap: round"/>
   </g>
   <g id="text_24">
    <text style="font-size: 6.8px; font-family: 'Arial', 'Liberation Sans', 'DejaVu Sans', sans-serif; fill: #586575" transform="translate(46.396944 120.734609)">Applicable to new or designed sequences</text>
    <text style="font-size: 6.8px; font-family: 'Arial', 'Liberation Sans', 'DejaVu Sans', sans-serif; fill: #586575" transform="translate(80.9861 127.812666)">human-only output</text>
   </g>
   <g id="text_25">
    <text style="font-weight: 700; font-size: 10px; font-family: 'Arial', 'Liberation Sans', 'DejaVu Sans', sans-serif; text-anchor: start; fill: #178b8d" x="225.657" y="27.948082" transform="rotate(-0 225.657 27.948082)">b</text>
   </g>
   <g id="text_26">
    <text style="font-weight: 700; font-size: 8.8px; font-family: 'Arial', 'Liberation Sans', 'DejaVu Sans', sans-serif; text-anchor: start; fill: #178b8d" x="240.62535" y="27.637769" transform="rotate(-0 240.62535 27.637769)">Compact human model</text>
   </g>
   <g id="patch_19">
    <path d="M 305.500809 79.272
Q 314.658603 79.272 322.474756 79.272
" clip-path="url(#pd5b38d2aa6)" style="fill: none; stroke: #178b8d; stroke-width: 1.2; stroke-linecap: round"/>
    <path d="M 318.874756 77.472
L 322.474756 79.272
L 318.874756 81.072
z
" clip-path="url(#pd5b38d2aa6)" style="fill: #178b8d; stroke: #178b8d; stroke-width: 1.2; stroke-linecap: round"/>
   </g>
   <g id="text_27">
    <text style="font-size: 6.8px; font-family: 'Arial', 'Liberation Sans', 'DejaVu Sans', sans-serif; fill: #586575" transform="translate(244.484087 120.734609)">Requires precomputed CWCS, SeqWeaver</text>
    <text style="font-size: 6.8px; font-family: 'Arial', 'Liberation Sans', 'DejaVu Sans', sans-serif; fill: #586575" transform="translate(277.10815 127.812666)">and DeepRiPe blocks</text>
   </g>
   <g id="text_28">
    <text style="font-weight: 700; font-size: 10px; font-family: 'Arial', 'Liberation Sans', 'DejaVu Sans', sans-serif; text-anchor: start; fill: #7257b6" x="25.40475" y="169.209202" transform="rotate(-0 25.40475 169.209202)">c</text>
   </g>
   <g id="text_29">
    <text style="font-weight: 700; font-size: 8.8px; font-family: 'Arial', 'Liberation Sans', 'DejaVu Sans', sans-serif; text-anchor: start; fill: #7257b6" x="40.3731" y="168.898889" transform="rotate(-0 40.3731 168.898889)">Cross-species transfer</text>
   </g>
   <g id="patch_20">
    <path d="M 103.22013 234.94752
Q 113.391182 234.94752 122.220594 234.94752
" clip-path="url(#pd5b38d2aa6)" style="fill: none; stroke: #7257b6; stroke-width: 1.2; stroke-linecap: round"/>
    <path d="M 118.620594 233.14752
L 122.220594 234.94752
L 118.620594 236.74752
z
" clip-path="url(#pd5b38d2aa6)" style="fill: #7257b6; stroke: #7257b6; stroke-width: 1.2; stroke-linecap: round"/>
   </g>
   <g id="patch_21">
    <path d="M 103.22013 196.02864
Q 113.391182 196.02864 122.220594 196.02864
" clip-path="url(#pd5b38d2aa6)" style="fill: none; stroke: #7257b6; stroke-width: 1.2; stroke-linecap: round"/>
    <path d="M 118.620594 194.22864
L 122.220594 196.02864
L 118.620594 197.82864
z
" clip-path="url(#pd5b38d2aa6)" style="fill: #7257b6; stroke: #7257b6; stroke-width: 1.2; stroke-linecap: round"/>
   </g>
   <g id="text_30">
    <text style="font-size: 6.8px; font-family: 'Arial', 'Liberation Sans', 'DejaVu Sans', sans-serif; fill: #586575" transform="translate(55.668319 266.320049)">External mouse covariates required</text>
    <text style="font-size: 6.8px; font-family: 'Arial', 'Liberation Sans', 'DejaVu Sans', sans-serif; fill: #586575" transform="translate(65.677069 273.398106)">not sequence-only prediction</text>
   </g>
   <g id="text_31">
    <text style="font-weight: 700; font-size: 10px; font-family: 'Arial', 'Liberation Sans', 'DejaVu Sans', sans-serif; text-anchor: start; fill: #d9771e" x="225.657" y="169.209202" transform="rotate(-0 225.657 169.209202)">d</text>
   </g>
   <g id="text_32">
    <text style="font-weight: 700; font-size: 8.8px; font-family: 'Arial', 'Liberation Sans', 'DejaVu Sans', sans-serif; text-anchor: start; fill: #d9771e" x="240.62535" y="168.879639" transform="rotate(-0 240.62535 168.879639)">Coverage-aware deployment</text>
   </g>
   <g id="patch_22">
    <path d="M 303.475343 189.398016
Q 315.670471 189.398016 326.523959 189.398016
" clip-path="url(#pd5b38d2aa6)" style="fill: none; stroke: #d9771e; stroke-width: 1.2; stroke-linecap: round"/>
    <path d="M 322.923959 187.598016
L 326.523959 189.398016
L 322.923959 191.198016
z
" clip-path="url(#pd5b38d2aa6)" style="fill: #d9771e; stroke: #d9771e; stroke-width: 1.2; stroke-linecap: round"/>
   </g>
   <g id="text_33">
    <text style="font-size: 6.5px; font-family: 'Arial', 'Liberation Sans', 'DejaVu Sans', sans-serif; text-anchor: middle; fill: #d9771e" x="315.669375" y="185.073696" transform="rotate(-0 315.669375 185.073696)">yes</text>
   </g>
   <g id="patch_23">
    <path d="M 264.08925 209.678331
Q 264.08925 217.651545 264.08925 224.283119
" clip-path="url(#pd5b38d2aa6)" style="fill: none; stroke: #d9771e; stroke-width: 1.2; stroke-linecap: round"/>
    <path d="M 265.88925 220.683119
L 264.08925 224.283119
L 262.28925 220.683119
z
" clip-path="url(#pd5b38d2aa6)" style="fill: #d9771e; stroke: #d9771e; stroke-width: 1.2; stroke-linecap: round"/>
   </g>
   <g id="text_34">
    <text style="font-size: 6.5px; font-family: 'Arial', 'Liberation Sans', 'DejaVu Sans', sans-serif; text-anchor: start; fill: #d9771e" x="270.1575" y="218.515104" transform="rotate(-0 270.1575 218.515104)">no</text>
   </g>
   <g id="patch_24">
    <path d="M 303.475343 236.38896
Q 315.670471 236.38896 326.523959 236.38896
" clip-path="url(#pd5b38d2aa6)" style="fill: none; stroke: #178b8d; stroke-width: 1.2; stroke-linecap: round"/>
    <path d="M 322.923959 234.58896
L 326.523959 236.38896
L 322.923959 238.18896
z
" clip-path="url(#pd5b38d2aa6)" style="fill: #178b8d; stroke: #178b8d; stroke-width: 1.2; stroke-linecap: round"/>
   </g>
   <g id="text_35">
    <text style="font-size: 6.5px; font-family: 'Arial', 'Liberation Sans', 'DejaVu Sans', sans-serif; text-anchor: middle; fill: #178b8d" x="315.669375" y="232.06464" transform="rotate(-0 315.669375 232.06464)">yes</text>
   </g>
   <g id="patch_25">
    <path d="M 303.475343 268.82136
Q 315.670471 268.82136 326.523959 268.82136
" clip-path="url(#pd5b38d2aa6)" style="fill: none; stroke: #356ac3; stroke-width: 1.2; stroke-linecap: round"/>
    <path d="M 322.923959 267.02136
L 326.523959 268.82136
L 322.923959 270.62136
z
" clip-path="url(#pd5b38d2aa6)" style="fill: #356ac3; stroke: #356ac3; stroke-width: 1.2; stroke-linecap: round"/>
   </g>
   <g id="text_36">
    <text style="font-size: 6.5px; font-family: 'Arial', 'Liberation Sans', 'DejaVu Sans', sans-serif; text-anchor: middle; fill: #356ac3" x="315.669375" y="264.49704" transform="rotate(-0 315.669375 264.49704)">no</text>
   </g>
  </g>
 </g>
 <defs>
  <clipPath id="pd5b38d2aa6">
   <rect x="7.2" y="7.2" width="404.55" height="288.288"/>
  </clipPath>
 </defs>
</svg>
