<?xml version="1.0" encoding="utf-8" standalone="no"?>
<!DOCTYPE svg PUBLIC "-//W3C//DTD SVG 1.1//EN"
  "http://www.w3.org/Graphics/SVG/1.1/DTD/svg11.dtd">
<svg xmlns:xlink="http://www.w3.org/1999/xlink" width="584.238156pt" height="419.40665pt" viewBox="0 0 584.238156 419.40665" xmlns="http://www.w3.org/2000/svg" version="1.1">
 <metadata>
  <rdf:RDF xmlns:dc="http://purl.org/dc/elements/1.1/" xmlns:cc="http://creativecommons.org/ns#" xmlns:rdf="http://www.w3.org/1999/02/22-rdf-syntax-ns#">
   <cc:Work>
    <dc:type rdf:resource="http://purl.org/dc/dcmitype/StillImage"/>
    <dc:date>2026-07-13T18:07:19.073449</dc:date>
    <dc:format>image/svg+xml</dc:format>
    <dc:creator>
     <cc:Agent>
      <dc:title>Matplotlib v3.10.6, https://matplotlib.org/</dc:title>
     </cc:Agent>
    </dc:creator>
   </cc:Work>
  </rdf:RDF>
 </metadata>
 <defs>
  <style type="text/css">*{stroke-linejoin: round; stroke-linecap: butt}</style>
 </defs>
 <g id="figure_1">
  <g id="patch_1">
   <path d="M 0 419.40665 
L 584.238156 419.40665 
L 584.238156 0 
L 0 0 
z
" style="fill: #ffffff"/>
  </g>
  <g id="axes_1">
   <g id="patch_2">
    <path d="M 47.328156 231.55425 
L 282.598156 231.55425 
L 282.598156 22.71025 
L 47.328156 22.71025 
z
" style="fill: #ffffff"/>
   </g>
   <g id="matplotlib.axis_1">
    <g id="xtick_1">
     <g id="line2d_1">
      <path d="M 55.828809 231.55425 
L 55.828809 22.71025 
" clip-path="url(#pd8e83548e7)" style="fill: none; stroke: #d8dee6; stroke-width: 0.7; stroke-linecap: round"/>
     </g>
     <g id="text_1">
      <text style="font-size: 8.6px; font-family: 'DejaVu Sans'; text-anchor: middle; fill: #262626" x="55.828809" y="246.388906" transform="rotate(-0 55.828809 246.388906)">−100</text>
     </g>
    </g>
    <g id="xtick_2">
     <g id="line2d_2">
      <path d="M 94.44262 231.55425 
L 94.44262 22.71025 
" clip-path="url(#pd8e83548e7)" style="fill: none; stroke: #d8dee6; stroke-width: 0.7; stroke-linecap: round"/>
     </g>
     <g id="text_2">
      <text style="font-size: 8.6px; font-family: 'DejaVu Sans'; text-anchor: middle; fill: #262626" x="94.44262" y="246.388906" transform="rotate(-0 94.44262 246.388906)">−50</text>
     </g>
    </g>
    <g id="xtick_3">
     <g id="line2d_3">
      <path d="M 133.056431 231.55425 
L 133.056431 22.71025 
" clip-path="url(#pd8e83548e7)" style="fill: none; stroke: #d8dee6; stroke-width: 0.7; stroke-linecap: round"/>
     </g>
     <g id="text_3">
      <text style="font-size: 8.6px; font-family: 'DejaVu Sans'; text-anchor: middle; fill: #262626" x="133.056431" y="246.388906" transform="rotate(-0 133.056431 246.388906)">0</text>
     </g>
    </g>
    <g id="xtick_4">
     <g id="line2d_4">
      <path d="M 171.670241 231.55425 
L 171.670241 22.71025 
" clip-path="url(#pd8e83548e7)" style="fill: none; stroke: #d8dee6; stroke-width: 0.7; stroke-linecap: round"/>
     </g>
     <g id="text_4">
      <text style="font-size: 8.6px; font-family: 'DejaVu Sans'; text-anchor: middle; fill: #262626" x="171.670241" y="246.388906" transform="rotate(-0 171.670241 246.388906)">50</text>
     </g>
    </g>
    <g id="xtick_5">
     <g id="line2d_5">
      <path d="M 210.284052 231.55425 
L 210.284052 22.71025 
" clip-path="url(#pd8e83548e7)" style="fill: none; stroke: #d8dee6; stroke-width: 0.7; stroke-linecap: round"/>
     </g>
     <g id="text_5">
      <text style="font-size: 8.6px; font-family: 'DejaVu Sans'; text-anchor: middle; fill: #262626" x="210.284052" y="246.388906" transform="rotate(-0 210.284052 246.388906)">100</text>
     </g>
    </g>
    <g id="xtick_6">
     <g id="line2d_6">
      <path d="M 248.897863 231.55425 
L 248.897863 22.71025 
" clip-path="url(#pd8e83548e7)" style="fill: none; stroke: #d8dee6; stroke-width: 0.7; stroke-linecap: round"/>
     </g>
     <g id="text_6">
      <text style="font-size: 8.6px; font-family: 'DejaVu Sans'; text-anchor: middle; fill: #262626" x="248.897863" y="246.388906" transform="rotate(-0 248.897863 246.388906)">150</text>
     </g>
    </g>
    <g id="text_7">
     <text style="font-size: 10px; font-family: 'DejaVu Sans'; text-anchor: middle; fill: #262626" x="164.963156" y="259.775875" transform="rotate(-0 164.963156 259.775875)">PC1</text>
    </g>
   </g>
   <g id="matplotlib.axis_2">
    <g id="ytick_1">
     <g id="line2d_7">
      <path d="M 47.328156 209.352487 
L 282.598156 209.352487 
" clip-path="url(#pd8e83548e7)" style="fill: none; stroke: #d8dee6; stroke-width: 0.7; stroke-linecap: round"/>
     </g>
     <g id="text_8">
      <text style="font-size: 8.6px; font-family: 'DejaVu Sans'; text-anchor: end; fill: #262626" x="39.028156" y="212.619815" transform="rotate(-0 39.028156 212.619815)">−20</text>
     </g>
    </g>
    <g id="ytick_2">
     <g id="line2d_8">
      <path d="M 47.328156 177.478359 
L 282.598156 177.478359 
" clip-path="url(#pd8e83548e7)" style="fill: none; stroke: #d8dee6; stroke-width: 0.7; stroke-linecap: round"/>
     </g>
     <g id="text_9">
      <text style="font-size: 8.6px; font-family: 'DejaVu Sans'; text-anchor: end; fill: #262626" x="39.028156" y="180.745687" transform="rotate(-0 39.028156 180.745687)">−10</text>
     </g>
    </g>
    <g id="ytick_3">
     <g id="line2d_9">
      <path d="M 47.328156 145.60423 
L 282.598156 145.60423 
" clip-path="url(#pd8e83548e7)" style="fill: none; stroke: #d8dee6; stroke-width: 0.7; stroke-linecap: round"/>
     </g>
     <g id="text_10">
      <text style="font-size: 8.6px; font-family: 'DejaVu Sans'; text-anchor: end; fill: #262626" x="39.028156" y="148.871558" transform="rotate(-0 39.028156 148.871558)">0</text>
     </g>
    </g>
    <g id="ytick_4">
     <g id="line2d_10">
      <path d="M 47.328156 113.730102 
L 282.598156 113.730102 
" clip-path="url(#pd8e83548e7)" style="fill: none; stroke: #d8dee6; stroke-width: 0.7; stroke-linecap: round"/>
     </g>
     <g id="text_11">
      <text style="font-size: 8.6px; font-family: 'DejaVu Sans'; text-anchor: end; fill: #262626" x="39.028156" y="116.99743" transform="rotate(-0 39.028156 116.99743)">10</text>
     </g>
    </g>
    <g id="ytick_5">
     <g id="line2d_11">
      <path d="M 47.328156 81.855974 
L 282.598156 81.855974 
" clip-path="url(#pd8e83548e7)" style="fill: none; stroke: #d8dee6; stroke-width: 0.7; stroke-linecap: round"/>
     </g>
     <g id="text_12">
      <text style="font-size: 8.6px; font-family: 'DejaVu Sans'; text-anchor: end; fill: #262626" x="39.028156" y="85.123302" transform="rotate(-0 39.028156 85.123302)">20</text>
     </g>
    </g>
    <g id="ytick_6">
     <g id="line2d_12">
      <path d="M 47.328156 49.981845 
L 282.598156 49.981845 
" clip-path="url(#pd8e83548e7)" style="fill: none; stroke: #d8dee6; stroke-width: 0.7; stroke-linecap: round"/>
     </g>
     <g id="text_13">
      <text style="font-size: 8.6px; font-family: 'DejaVu Sans'; text-anchor: end; fill: #262626" x="39.028156" y="53.249173" transform="rotate(-0 39.028156 53.249173)">30</text>
     </g>
    </g>
    <g id="text_14">
     <text style="font-size: 10px; font-family: 'DejaVu Sans'; text-anchor: middle; fill: #262626" x="14.798437" y="127.13225" transform="rotate(-90 14.798437 127.13225)">PC2</text>
    </g>
   </g>
   <g id="PathCollection_1">
    <defs>
     <path id="mcc8f216f15" d="M 3.807887 0 
L -3.807887 -3.807887 
L -3.807887 3.807887 
z
" style="stroke: #000000; stroke-opacity: 0.96; stroke-width: 0.3"/>
    </defs>
    <g clip-path="url(#pd8e83548e7)">
     <use xlink:href="#mcc8f216f15" x="101.753454" y="145.095203" style="fill: #8da0cb; fill-opacity: 0.96; stroke: #000000; stroke-opacity: 0.96; stroke-width: 0.3"/>
    </g>
   </g>
   <g id="PathCollection_2">
    <defs>
     <path id="mfe4b104abf" d="M 0 -3.807887 
L -3.807887 3.807887 
L 3.807887 3.807887 
z
" style="stroke: #000000; stroke-opacity: 0.96; stroke-width: 0.3"/>
    </defs>
    <g clip-path="url(#pd8e83548e7)">
     <use xlink:href="#mfe4b104abf" x="58.022247" y="196.694487" style="fill: #fc8d62; fill-opacity: 0.96; stroke: #000000; stroke-opacity: 0.96; stroke-width: 0.3"/>
     <use xlink:href="#mfe4b104abf" x="61.64172" y="218.041702" style="fill: #fc8d62; fill-opacity: 0.96; stroke: #000000; stroke-opacity: 0.96; stroke-width: 0.3"/>
    </g>
   </g>
   <g id="PathCollection_3">
    <defs>
     <path id="m0efc83d48a" d="M 0 -3.807887 
L -3.297726 -1.903943 
L -3.297726 1.903943 
L -0 3.807887 
L 3.297726 1.903943 
L 3.297726 -1.903943 
z
" style="stroke: #000000; stroke-opacity: 0.96; stroke-width: 0.3"/>
    </defs>
    <g clip-path="url(#pd8e83548e7)">
     <use xlink:href="#m0efc83d48a" x="184.693963" y="222.061341" style="fill: #66c2a5; fill-opacity: 0.96; stroke: #000000; stroke-opacity: 0.96; stroke-width: 0.3"/>
    </g>
   </g>
   <g id="PathCollection_4">
    <defs>
     <path id="m14e1995155" d="M -1.903943 -3.297726 
L -3.807887 -0 
L -1.903943 3.297726 
L 1.903943 3.297726 
L 3.807887 0 
L 1.903943 -3.297726 
z
" style="stroke: #000000; stroke-opacity: 0.96; stroke-width: 0.3"/>
    </defs>
    <g clip-path="url(#pd8e83548e7)">
     <use xlink:href="#m14e1995155" x="238.577445" y="108.245019" style="fill: #66c2a5; fill-opacity: 0.96; stroke: #000000; stroke-opacity: 0.96; stroke-width: 0.3"/>
    </g>
   </g>
   <g id="PathCollection_5">
    <defs>
     <path id="m25ec043130" d="M -1.457215 -3.518028 
L -3.518028 -1.457215 
L -3.518028 1.457215 
L -1.457215 3.518028 
L 1.457215 3.518028 
L 3.518028 1.457215 
L 3.518028 -1.457215 
L 1.457215 -3.518028 
z
" style="stroke: #000000; stroke-opacity: 0.96; stroke-width: 0.3"/>
    </defs>
    <g clip-path="url(#pd8e83548e7)">
     <use xlink:href="#m25ec043130" x="121.127331" y="132.206496" style="fill: #66c2a5; fill-opacity: 0.96; stroke: #000000; stroke-opacity: 0.96; stroke-width: 0.3"/>
     <use xlink:href="#m25ec043130" x="127.773373" y="141.08671" style="fill: #66c2a5; fill-opacity: 0.96; stroke: #000000; stroke-opacity: 0.96; stroke-width: 0.3"/>
    </g>
   </g>
   <g id="PathCollection_6">
    <defs>
     <path id="me12111ea4e" d="M -3.807887 3.807887 
L 3.807887 3.807887 
L 3.807887 -3.807887 
L -3.807887 -3.807887 
z
" style="stroke: #000000; stroke-opacity: 0.96; stroke-width: 0.3"/>
    </defs>
    <g clip-path="url(#pd8e83548e7)">
     <use xlink:href="#me12111ea4e" x="64.645244" y="205.21566" style="fill: #8da0cb; fill-opacity: 0.96; stroke: #000000; stroke-opacity: 0.96; stroke-width: 0.3"/>
    </g>
   </g>
   <g id="PathCollection_7">
    <defs>
     <path id="m412cdc0e7f" d="M -1.903943 3.807887 
L 0 1.903943 
L 1.903943 3.807887 
L 3.807887 1.903943 
L 1.903943 0 
L 3.807887 -1.903943 
L 1.903943 -3.807887 
L 0 -1.903943 
L -1.903943 -3.807887 
L -3.807887 -1.903943 
L -1.903943 0 
L -3.807887 1.903943 
z
" style="stroke: #000000; stroke-opacity: 0.96; stroke-width: 0.3"/>
    </defs>
    <g clip-path="url(#pd8e83548e7)">
     <use xlink:href="#m412cdc0e7f" x="117.600523" y="135.640743" style="fill: #8da0cb; fill-opacity: 0.96; stroke: #000000; stroke-opacity: 0.96; stroke-width: 0.3"/>
    </g>
   </g>
   <g id="PathCollection_8">
    <defs>
     <path id="mfbe8c0d1bc" d="M 0 -3.807887 
L -0.854924 -1.176702 
L -3.621515 -1.176702 
L -1.383296 0.44946 
L -2.23822 3.080645 
L -0 1.454483 
L 2.23822 3.080645 
L 1.383296 0.44946 
L 3.621515 -1.176702 
L 0.854924 -1.176702 
z
" style="stroke: #000000; stroke-opacity: 0.96; stroke-width: 0.3"/>
    </defs>
    <g clip-path="url(#pd8e83548e7)">
     <use xlink:href="#mfbe8c0d1bc" x="114.219809" y="97.170414" style="fill: #8da0cb; fill-opacity: 0.96; stroke: #000000; stroke-opacity: 0.96; stroke-width: 0.3"/>
     <use xlink:href="#mfbe8c0d1bc" x="116.065222" y="100.658095" style="fill: #8da0cb; fill-opacity: 0.96; stroke: #000000; stroke-opacity: 0.96; stroke-width: 0.3"/>
     <use xlink:href="#mfbe8c0d1bc" x="103.554094" y="95.523085" style="fill: #8da0cb; fill-opacity: 0.96; stroke: #000000; stroke-opacity: 0.96; stroke-width: 0.3"/>
     <use xlink:href="#mfbe8c0d1bc" x="123.129855" y="107.566793" style="fill: #8da0cb; fill-opacity: 0.96; stroke: #000000; stroke-opacity: 0.96; stroke-width: 0.3"/>
    </g>
   </g>
   <g id="PathCollection_9">
    <defs>
     <path id="me1293faee4" d="M -0 3.807887 
L 3.807887 -3.807887 
L -3.807887 -3.807887 
z
" style="stroke: #000000; stroke-opacity: 0.96; stroke-width: 0.3"/>
    </defs>
    <g clip-path="url(#pd8e83548e7)">
     <use xlink:href="#me1293faee4" x="99.396892" y="142.7547" style="fill: #8da0cb; fill-opacity: 0.96; stroke: #000000; stroke-opacity: 0.96; stroke-width: 0.3"/>
    </g>
   </g>
   <g id="PathCollection_10">
    <defs>
     <path id="m928d8f4467" d="M -0 5.385165 
L 5.385165 0 
L 0 -5.385165 
L -5.385165 -0 
z
" style="stroke: #000000; stroke-opacity: 0.96; stroke-width: 0.3"/>
    </defs>
    <g clip-path="url(#pd8e83548e7)">
     <use xlink:href="#m928d8f4467" x="60.149659" y="189.274987" style="fill: #66c2a5; fill-opacity: 0.96; stroke: #000000; stroke-opacity: 0.96; stroke-width: 0.3"/>
    </g>
   </g>
   <g id="PathCollection_11">
    <defs>
     <path id="m9f2a5ea2c3" d="M -1.269296 3.807887 
L 1.269296 3.807887 
L 1.269296 1.269296 
L 3.807887 1.269296 
L 3.807887 -1.269296 
L 1.269296 -1.269296 
L 1.269296 -3.807887 
L -1.269296 -3.807887 
L -1.269296 -1.269296 
L -3.807887 -1.269296 
L -3.807887 1.269296 
L -1.269296 1.269296 
z
" style="stroke: #000000; stroke-opacity: 0.96; stroke-width: 0.3"/>
    </defs>
    <g clip-path="url(#pd8e83548e7)">
     <use xlink:href="#m9f2a5ea2c3" x="93.609106" y="32.203159" style="fill: #8da0cb; fill-opacity: 0.96; stroke: #000000; stroke-opacity: 0.96; stroke-width: 0.3"/>
     <use xlink:href="#m9f2a5ea2c3" x="93.793909" y="103.959354" style="fill: #8da0cb; fill-opacity: 0.96; stroke: #000000; stroke-opacity: 0.96; stroke-width: 0.3"/>
    </g>
   </g>
   <g id="PathCollection_12">
    <defs>
     <path id="m53754b147f" d="M 0 3.807887 
C 1.009863 3.807887 1.978501 3.406664 2.692582 2.692582 
C 3.406664 1.978501 3.807887 1.009863 3.807887 0 
C 3.807887 -1.009863 3.406664 -1.978501 2.692582 -2.692582 
C 1.978501 -3.406664 1.009863 -3.807887 0 -3.807887 
C -1.009863 -3.807887 -1.978501 -3.406664 -2.692582 -2.692582 
C -3.406664 -1.978501 -3.807887 -1.009863 -3.807887 0 
C -3.807887 1.009863 -3.406664 1.978501 -2.692582 2.692582 
C -1.978501 3.406664 -1.009863 3.807887 0 3.807887 
z
" style="stroke: #000000; stroke-opacity: 0.96; stroke-width: 0.3"/>
    </defs>
    <g clip-path="url(#pd8e83548e7)">
     <use xlink:href="#m53754b147f" x="84.47189" y="138.563282" style="fill: #66c2a5; fill-opacity: 0.96; stroke: #000000; stroke-opacity: 0.96; stroke-width: 0.3"/>
    </g>
   </g>
   <g id="PathCollection_13">
    <defs>
     <path id="mbc7a277a2f" d="M -3.807887 -0 
L 3.807887 3.807887 
L 3.807887 -3.807887 
z
" style="stroke: #000000; stroke-opacity: 0.96; stroke-width: 0.3"/>
    </defs>
    <g clip-path="url(#pd8e83548e7)">
     <use xlink:href="#mbc7a277a2f" x="261.616933" y="161.401872" style="fill: #66c2a5; fill-opacity: 0.96; stroke: #000000; stroke-opacity: 0.96; stroke-width: 0.3"/>
    </g>
   </g>
   <g id="PathCollection_14">
    <defs>
     <path id="m1685e1f295" d="M 0 -3.807887 
L -3.621515 -1.176702 
L -2.23822 3.080645 
L 2.23822 3.080645 
L 3.621515 -1.176702 
z
" style="stroke: #000000; stroke-opacity: 0.96; stroke-width: 0.3"/>
    </defs>
    <g clip-path="url(#pd8e83548e7)">
     <use xlink:href="#m1685e1f295" x="88.321067" y="193.710432" style="fill: #66c2a5; fill-opacity: 0.96; stroke: #000000; stroke-opacity: 0.96; stroke-width: 0.3"/>
     <use xlink:href="#m1685e1f295" x="84.228931" y="124.285339" style="fill: #66c2a5; fill-opacity: 0.96; stroke: #000000; stroke-opacity: 0.96; stroke-width: 0.3"/>
    </g>
   </g>
   <g id="PathCollection_15">
    <defs>
     <path id="m3e19174f19" d="M -0 5.385165 
L 3.231099 0 
L 0 -5.385165 
L -3.231099 -0 
z
" style="stroke: #000000; stroke-opacity: 0.96; stroke-width: 0.3"/>
    </defs>
    <g clip-path="url(#pd8e83548e7)">
     <use xlink:href="#m3e19174f19" x="74.024657" y="156.991884" style="fill: #66c2a5; fill-opacity: 0.96; stroke: #000000; stroke-opacity: 0.96; stroke-width: 0.3"/>
     <use xlink:href="#m3e19174f19" x="78.062226" y="158.618929" style="fill: #66c2a5; fill-opacity: 0.96; stroke: #000000; stroke-opacity: 0.96; stroke-width: 0.3"/>
    </g>
   </g>
   <g id="PathCollection_16">
    <defs>
     <path id="mfd71f895ed" d="M 0 0 
L 0 3.807887 
M 0 0 
L 3.046309 -1.903943 
M 0 0 
L -3.046309 -1.903943 
" style="stroke: #8da0cb; stroke-opacity: 0.96; stroke-width: 0.9"/>
    </defs>
    <g clip-path="url(#pd8e83548e7)">
     <use xlink:href="#mfd71f895ed" x="254.9693" y="134.367227" style="fill: #8da0cb; fill-opacity: 0.96; stroke: #8da0cb; stroke-opacity: 0.96; stroke-width: 0.9"/>
     <use xlink:href="#mfd71f895ed" x="252.490269" y="132.414419" style="fill: #8da0cb; fill-opacity: 0.96; stroke: #8da0cb; stroke-opacity: 0.96; stroke-width: 0.9"/>
     <use xlink:href="#mfd71f895ed" x="262.680443" y="142.161672" style="fill: #8da0cb; fill-opacity: 0.96; stroke: #8da0cb; stroke-opacity: 0.96; stroke-width: 0.9"/>
    </g>
   </g>
   <g id="PathCollection_17">
    <defs>
     <path id="m652fd8bec6" d="M 0 0 
L 0 -3.807887 
M 0 0 
L -3.046309 1.903943 
M 0 0 
L 3.046309 1.903943 
" style="stroke: #8da0cb; stroke-opacity: 0.96; stroke-width: 0.9"/>
    </defs>
    <g clip-path="url(#pd8e83548e7)">
     <use xlink:href="#m652fd8bec6" x="271.904065" y="215.401215" style="fill: #8da0cb; fill-opacity: 0.96; stroke: #8da0cb; stroke-opacity: 0.96; stroke-width: 0.9"/>
    </g>
   </g>
   <g id="line2d_13">
    <path d="M 47.328156 145.60423 
L 282.598156 145.60423 
" clip-path="url(#pd8e83548e7)" style="fill: none; stroke: #dddddd; stroke-width: 0.8; stroke-linecap: round"/>
   </g>
   <g id="line2d_14">
    <path d="M 133.056431 231.55425 
L 133.056431 22.71025 
" clip-path="url(#pd8e83548e7)" style="fill: none; stroke: #dddddd; stroke-width: 0.8; stroke-linecap: round"/>
   </g>
   <g id="patch_3">
    <path d="M 47.328156 231.55425 
L 47.328156 22.71025 
" style="fill: none; stroke: #cccccc; stroke-width: 0.8; stroke-linejoin: miter; stroke-linecap: square"/>
   </g>
   <g id="patch_4">
    <path d="M 282.598156 231.55425 
L 282.598156 22.71025 
" style="fill: none; stroke: #cccccc; stroke-width: 0.8; stroke-linejoin: miter; stroke-linecap: square"/>
   </g>
   <g id="patch_5">
    <path d="M 47.328156 231.55425 
L 282.598156 231.55425 
" style="fill: none; stroke: #cccccc; stroke-width: 0.8; stroke-linejoin: miter; stroke-linecap: square"/>
   </g>
   <g id="patch_6">
    <path d="M 47.328156 22.71025 
L 282.598156 22.71025 
" style="fill: none; stroke: #cccccc; stroke-width: 0.8; stroke-linejoin: miter; stroke-linecap: square"/>
   </g>
   <g id="text_15">
    <text style="font-weight: 700; font-size: 13px; font-family: 'DejaVu Sans'; text-anchor: start; fill: #1f2933" x="16.743056" y="24.234459" transform="rotate(-0 16.743056 24.234459)">a</text>
   </g>
   <g id="text_16">
    <text style="font-size: 11.2px; font-family: 'DejaVu Sans'; text-anchor: middle; fill: #1f2933" x="164.963156" y="15.71025" transform="rotate(-0 164.963156 15.71025)">Mouse raw matrix</text>
   </g>
  </g>
  <g id="axes_2">
   <g id="patch_7">
    <path d="M 341.768156 231.55425 
L 577.038156 231.55425 
L 577.038156 22.71025 
L 341.768156 22.71025 
z
" style="fill: #ffffff"/>
   </g>
   <g id="matplotlib.axis_3">
    <g id="xtick_7">
     <g id="line2d_15">
      <path d="M 347.252622 231.55425 
L 347.252622 22.71025 
" clip-path="url(#pae00ae100f)" style="fill: none; stroke: #d8dee6; stroke-width: 0.7; stroke-linecap: round"/>
     </g>
     <g id="text_17">
      <text style="font-size: 8.6px; font-family: 'DejaVu Sans'; text-anchor: middle; fill: #262626" x="347.252622" y="246.388906" transform="rotate(-0 347.252622 246.388906)">−100</text>
     </g>
    </g>
    <g id="xtick_8">
     <g id="line2d_16">
      <path d="M 375.061037 231.55425 
L 375.061037 22.71025 
" clip-path="url(#pae00ae100f)" style="fill: none; stroke: #d8dee6; stroke-width: 0.7; stroke-linecap: round"/>
     </g>
     <g id="text_18">
      <text style="font-size: 8.6px; font-family: 'DejaVu Sans'; text-anchor: middle; fill: #262626" x="375.061037" y="246.388906" transform="rotate(-0 375.061037 246.388906)">−80</text>
     </g>
    </g>
    <g id="xtick_9">
     <g id="line2d_17">
      <path d="M 402.869452 231.55425 
L 402.869452 22.71025 
" clip-path="url(#pae00ae100f)" style="fill: none; stroke: #d8dee6; stroke-width: 0.7; stroke-linecap: round"/>
     </g>
     <g id="text_19">
      <text style="font-size: 8.6px; font-family: 'DejaVu Sans'; text-anchor: middle; fill: #262626" x="402.869452" y="246.388906" transform="rotate(-0 402.869452 246.388906)">−60</text>
     </g>
    </g>
    <g id="xtick_10">
     <g id="line2d_18">
      <path d="M 430.677867 231.55425 
L 430.677867 22.71025 
" clip-path="url(#pae00ae100f)" style="fill: none; stroke: #d8dee6; stroke-width: 0.7; stroke-linecap: round"/>
     </g>
     <g id="text_20">
      <text style="font-size: 8.6px; font-family: 'DejaVu Sans'; text-anchor: middle; fill: #262626" x="430.677867" y="246.388906" transform="rotate(-0 430.677867 246.388906)">−40</text>
     </g>
    </g>
    <g id="xtick_11">
     <g id="line2d_19">
      <path d="M 458.486282 231.55425 
L 458.486282 22.71025 
" clip-path="url(#pae00ae100f)" style="fill: none; stroke: #d8dee6; stroke-width: 0.7; stroke-linecap: round"/>
     </g>
     <g id="text_21">
      <text style="font-size: 8.6px; font-family: 'DejaVu Sans'; text-anchor: middle; fill: #262626" x="458.486282" y="246.388906" transform="rotate(-0 458.486282 246.388906)">−20</text>
     </g>
    </g>
    <g id="xtick_12">
     <g id="line2d_20">
      <path d="M 486.294697 231.55425 
L 486.294697 22.71025 
" clip-path="url(#pae00ae100f)" style="fill: none; stroke: #d8dee6; stroke-width: 0.7; stroke-linecap: round"/>
     </g>
     <g id="text_22">
      <text style="font-size: 8.6px; font-family: 'DejaVu Sans'; text-anchor: middle; fill: #262626" x="486.294697" y="246.388906" transform="rotate(-0 486.294697 246.388906)">0</text>
     </g>
    </g>
    <g id="xtick_13">
     <g id="line2d_21">
      <path d="M 514.103112 231.55425 
L 514.103112 22.71025 
" clip-path="url(#pae00ae100f)" style="fill: none; stroke: #d8dee6; stroke-width: 0.7; stroke-linecap: round"/>
     </g>
     <g id="text_23">
      <text style="font-size: 8.6px; font-family: 'DejaVu Sans'; text-anchor: middle; fill: #262626" x="514.103112" y="246.388906" transform="rotate(-0 514.103112 246.388906)">20</text>
     </g>
    </g>
    <g id="xtick_14">
     <g id="line2d_22">
      <path d="M 541.911527 231.55425 
L 541.911527 22.71025 
" clip-path="url(#pae00ae100f)" style="fill: none; stroke: #d8dee6; stroke-width: 0.7; stroke-linecap: round"/>
     </g>
     <g id="text_24">
      <text style="font-size: 8.6px; font-family: 'DejaVu Sans'; text-anchor: middle; fill: #262626" x="541.911527" y="246.388906" transform="rotate(-0 541.911527 246.388906)">40</text>
     </g>
    </g>
    <g id="xtick_15">
     <g id="line2d_23">
      <path d="M 569.719942 231.55425 
L 569.719942 22.71025 
" clip-path="url(#pae00ae100f)" style="fill: none; stroke: #d8dee6; stroke-width: 0.7; stroke-linecap: round"/>
     </g>
     <g id="text_25">
      <text style="font-size: 8.6px; font-family: 'DejaVu Sans'; text-anchor: middle; fill: #262626" x="569.719942" y="246.388906" transform="rotate(-0 569.719942 246.388906)">60</text>
     </g>
    </g>
    <g id="text_26">
     <text style="font-size: 10px; font-family: 'DejaVu Sans'; text-anchor: middle; fill: #262626" x="459.403156" y="259.775875" transform="rotate(-0 459.403156 259.775875)">PC1</text>
    </g>
   </g>
   <g id="matplotlib.axis_4">
    <g id="ytick_7">
     <g id="line2d_24">
      <path d="M 341.768156 218.697366 
L 577.038156 218.697366 
" clip-path="url(#pae00ae100f)" style="fill: none; stroke: #d8dee6; stroke-width: 0.7; stroke-linecap: round"/>
     </g>
     <g id="text_27">
      <text style="font-size: 8.6px; font-family: 'DejaVu Sans'; text-anchor: end; fill: #262626" x="333.468156" y="221.964694" transform="rotate(-0 333.468156 221.964694)">−80</text>
     </g>
    </g>
    <g id="ytick_8">
     <g id="line2d_25">
      <path d="M 341.768156 192.573743 
L 577.038156 192.573743 
" clip-path="url(#pae00ae100f)" style="fill: none; stroke: #d8dee6; stroke-width: 0.7; stroke-linecap: round"/>
     </g>
     <g id="text_28">
      <text style="font-size: 8.6px; font-family: 'DejaVu Sans'; text-anchor: end; fill: #262626" x="333.468156" y="195.841071" transform="rotate(-0 333.468156 195.841071)">−60</text>
     </g>
    </g>
    <g id="ytick_9">
     <g id="line2d_26">
      <path d="M 341.768156 166.450121 
L 577.038156 166.450121 
" clip-path="url(#pae00ae100f)" style="fill: none; stroke: #d8dee6; stroke-width: 0.7; stroke-linecap: round"/>
     </g>
     <g id="text_29">
      <text style="font-size: 8.6px; font-family: 'DejaVu Sans'; text-anchor: end; fill: #262626" x="333.468156" y="169.717449" transform="rotate(-0 333.468156 169.717449)">−40</text>
     </g>
    </g>
    <g id="ytick_10">
     <g id="line2d_27">
      <path d="M 341.768156 140.326498 
L 577.038156 140.326498 
" clip-path="url(#pae00ae100f)" style="fill: none; stroke: #d8dee6; stroke-width: 0.7; stroke-linecap: round"/>
     </g>
     <g id="text_30">
      <text style="font-size: 8.6px; font-family: 'DejaVu Sans'; text-anchor: end; fill: #262626" x="333.468156" y="143.593826" transform="rotate(-0 333.468156 143.593826)">−20</text>
     </g>
    </g>
    <g id="ytick_11">
     <g id="line2d_28">
      <path d="M 341.768156 114.202875 
L 577.038156 114.202875 
" clip-path="url(#pae00ae100f)" style="fill: none; stroke: #d8dee6; stroke-width: 0.7; stroke-linecap: round"/>
     </g>
     <g id="text_31">
      <text style="font-size: 8.6px; font-family: 'DejaVu Sans'; text-anchor: end; fill: #262626" x="333.468156" y="117.470203" transform="rotate(-0 333.468156 117.470203)">0</text>
     </g>
    </g>
    <g id="ytick_12">
     <g id="line2d_29">
      <path d="M 341.768156 88.079252 
L 577.038156 88.079252 
" clip-path="url(#pae00ae100f)" style="fill: none; stroke: #d8dee6; stroke-width: 0.7; stroke-linecap: round"/>
     </g>
     <g id="text_32">
      <text style="font-size: 8.6px; font-family: 'DejaVu Sans'; text-anchor: end; fill: #262626" x="333.468156" y="91.34658" transform="rotate(-0 333.468156 91.34658)">20</text>
     </g>
    </g>
    <g id="ytick_13">
     <g id="line2d_30">
      <path d="M 341.768156 61.955629 
L 577.038156 61.955629 
" clip-path="url(#pae00ae100f)" style="fill: none; stroke: #d8dee6; stroke-width: 0.7; stroke-linecap: round"/>
     </g>
     <g id="text_33">
      <text style="font-size: 8.6px; font-family: 'DejaVu Sans'; text-anchor: end; fill: #262626" x="333.468156" y="65.222957" transform="rotate(-0 333.468156 65.222957)">40</text>
     </g>
    </g>
    <g id="ytick_14">
     <g id="line2d_31">
      <path d="M 341.768156 35.832006 
L 577.038156 35.832006 
" clip-path="url(#pae00ae100f)" style="fill: none; stroke: #d8dee6; stroke-width: 0.7; stroke-linecap: round"/>
     </g>
     <g id="text_34">
      <text style="font-size: 8.6px; font-family: 'DejaVu Sans'; text-anchor: end; fill: #262626" x="333.468156" y="39.099334" transform="rotate(-0 333.468156 39.099334)">60</text>
     </g>
    </g>
    <g id="text_35">
     <text style="font-size: 10px; font-family: 'DejaVu Sans'; text-anchor: middle; fill: #262626" x="309.238437" y="127.13225" transform="rotate(-90 309.238437 127.13225)">PC2</text>
    </g>
   </g>
   <g id="PathCollection_18">
    <g clip-path="url(#pae00ae100f)">
     <use xlink:href="#mcc8f216f15" x="492.211393" y="139.166606" style="fill: #8da0cb; fill-opacity: 0.96; stroke: #000000; stroke-opacity: 0.96; stroke-width: 0.3"/>
    </g>
   </g>
   <g id="PathCollection_19">
    <g clip-path="url(#pae00ae100f)">
     <use xlink:href="#mfe4b104abf" x="558.602329" y="98.467709" style="fill: #fc8d62; fill-opacity: 0.96; stroke: #000000; stroke-opacity: 0.96; stroke-width: 0.3"/>
     <use xlink:href="#mfe4b104abf" x="559.981484" y="97.8814" style="fill: #fc8d62; fill-opacity: 0.96; stroke: #000000; stroke-opacity: 0.96; stroke-width: 0.3"/>
    </g>
   </g>
   <g id="PathCollection_20">
    <g clip-path="url(#pae00ae100f)">
     <use xlink:href="#m0efc83d48a" x="566.344065" y="127.225302" style="fill: #66c2a5; fill-opacity: 0.96; stroke: #000000; stroke-opacity: 0.96; stroke-width: 0.3"/>
    </g>
   </g>
   <g id="PathCollection_21">
    <g clip-path="url(#pae00ae100f)">
     <use xlink:href="#m14e1995155" x="352.462247" y="60.355046" style="fill: #66c2a5; fill-opacity: 0.96; stroke: #000000; stroke-opacity: 0.96; stroke-width: 0.3"/>
    </g>
   </g>
   <g id="PathCollection_22">
    <g clip-path="url(#pae00ae100f)">
     <use xlink:href="#m25ec043130" x="499.089368" y="66.01811" style="fill: #66c2a5; fill-opacity: 0.96; stroke: #000000; stroke-opacity: 0.96; stroke-width: 0.3"/>
     <use xlink:href="#m25ec043130" x="497.169756" y="38.364713" style="fill: #66c2a5; fill-opacity: 0.96; stroke: #000000; stroke-opacity: 0.96; stroke-width: 0.3"/>
    </g>
   </g>
   <g id="PathCollection_23">
    <g clip-path="url(#pae00ae100f)">
     <use xlink:href="#me12111ea4e" x="564.614903" y="145.479828" style="fill: #8da0cb; fill-opacity: 0.96; stroke: #000000; stroke-opacity: 0.96; stroke-width: 0.3"/>
    </g>
   </g>
   <g id="PathCollection_24">
    <g clip-path="url(#pae00ae100f)">
     <use xlink:href="#m412cdc0e7f" x="497.48187" y="169.501889" style="fill: #8da0cb; fill-opacity: 0.96; stroke: #000000; stroke-opacity: 0.96; stroke-width: 0.3"/>
    </g>
   </g>
   <g id="PathCollection_25">
    <g clip-path="url(#pae00ae100f)">
     <use xlink:href="#mfbe8c0d1bc" x="436.369776" y="220.183285" style="fill: #8da0cb; fill-opacity: 0.96; stroke: #000000; stroke-opacity: 0.96; stroke-width: 0.3"/>
     <use xlink:href="#mfbe8c0d1bc" x="438.549859" y="213.739795" style="fill: #8da0cb; fill-opacity: 0.96; stroke: #000000; stroke-opacity: 0.96; stroke-width: 0.3"/>
     <use xlink:href="#mfbe8c0d1bc" x="455.424796" y="222.061341" style="fill: #8da0cb; fill-opacity: 0.96; stroke: #000000; stroke-opacity: 0.96; stroke-width: 0.3"/>
     <use xlink:href="#mfbe8c0d1bc" x="442.881541" y="192.037958" style="fill: #8da0cb; fill-opacity: 0.96; stroke: #000000; stroke-opacity: 0.96; stroke-width: 0.3"/>
    </g>
   </g>
   <g id="PathCollection_26">
    <g clip-path="url(#pae00ae100f)">
     <use xlink:href="#me1293faee4" x="508.0615" y="168.035071" style="fill: #8da0cb; fill-opacity: 0.96; stroke: #000000; stroke-opacity: 0.96; stroke-width: 0.3"/>
    </g>
   </g>
   <g id="PathCollection_27">
    <g clip-path="url(#pae00ae100f)">
     <use xlink:href="#m928d8f4467" x="549.243048" y="108.634213" style="fill: #66c2a5; fill-opacity: 0.96; stroke: #000000; stroke-opacity: 0.96; stroke-width: 0.3"/>
    </g>
   </g>
   <g id="PathCollection_28">
    <g clip-path="url(#pae00ae100f)">
     <use xlink:href="#m9f2a5ea2c3" x="401.808254" y="144.581398" style="fill: #8da0cb; fill-opacity: 0.96; stroke: #000000; stroke-opacity: 0.96; stroke-width: 0.3"/>
     <use xlink:href="#m9f2a5ea2c3" x="462.427035" y="117.279696" style="fill: #8da0cb; fill-opacity: 0.96; stroke: #000000; stroke-opacity: 0.96; stroke-width: 0.3"/>
    </g>
   </g>
   <g id="PathCollection_29">
    <g clip-path="url(#pae00ae100f)">
     <use xlink:href="#m53754b147f" x="566.122276" y="126.960842" style="fill: #66c2a5; fill-opacity: 0.96; stroke: #000000; stroke-opacity: 0.96; stroke-width: 0.3"/>
    </g>
   </g>
   <g id="PathCollection_30">
    <g clip-path="url(#pae00ae100f)">
     <use xlink:href="#mbc7a277a2f" x="519.625677" y="100.231454" style="fill: #66c2a5; fill-opacity: 0.96; stroke: #000000; stroke-opacity: 0.96; stroke-width: 0.3"/>
    </g>
   </g>
   <g id="PathCollection_31">
    <g clip-path="url(#pae00ae100f)">
     <use xlink:href="#m1685e1f295" x="537.608148" y="105.006126" style="fill: #66c2a5; fill-opacity: 0.96; stroke: #000000; stroke-opacity: 0.96; stroke-width: 0.3"/>
     <use xlink:href="#m1685e1f295" x="483.612023" y="80.105965" style="fill: #66c2a5; fill-opacity: 0.96; stroke: #000000; stroke-opacity: 0.96; stroke-width: 0.3"/>
    </g>
   </g>
   <g id="PathCollection_32">
    <g clip-path="url(#pae00ae100f)">
     <use xlink:href="#m3e19174f19" x="532.874288" y="34.600317" style="fill: #66c2a5; fill-opacity: 0.96; stroke: #000000; stroke-opacity: 0.96; stroke-width: 0.3"/>
     <use xlink:href="#m3e19174f19" x="529.319278" y="32.203159" style="fill: #66c2a5; fill-opacity: 0.96; stroke: #000000; stroke-opacity: 0.96; stroke-width: 0.3"/>
    </g>
   </g>
   <g id="PathCollection_33">
    <g clip-path="url(#pae00ae100f)">
     <use xlink:href="#mfd71f895ed" x="369.898238" y="53.772266" style="fill: #8da0cb; fill-opacity: 0.96; stroke: #8da0cb; stroke-opacity: 0.96; stroke-width: 0.9"/>
     <use xlink:href="#mfd71f895ed" x="365.087035" y="55.631647" style="fill: #8da0cb; fill-opacity: 0.96; stroke: #8da0cb; stroke-opacity: 0.96; stroke-width: 0.9"/>
     <use xlink:href="#mfd71f895ed" x="392.669827" y="64.613407" style="fill: #8da0cb; fill-opacity: 0.96; stroke: #8da0cb; stroke-opacity: 0.96; stroke-width: 0.9"/>
    </g>
   </g>
   <g id="PathCollection_34">
    <g clip-path="url(#pae00ae100f)">
     <use xlink:href="#m652fd8bec6" x="550.416804" y="101.339074" style="fill: #8da0cb; fill-opacity: 0.96; stroke: #8da0cb; stroke-opacity: 0.96; stroke-width: 0.9"/>
    </g>
   </g>
   <g id="line2d_32">
    <path d="M 341.768156 114.202875 
L 577.038156 114.202875 
" clip-path="url(#pae00ae100f)" style="fill: none; stroke: #dddddd; stroke-width: 0.8; stroke-linecap: round"/>
   </g>
   <g id="line2d_33">
    <path d="M 486.294697 231.55425 
L 486.294697 22.71025 
" clip-path="url(#pae00ae100f)" style="fill: none; stroke: #dddddd; stroke-width: 0.8; stroke-linecap: round"/>
   </g>
   <g id="patch_8">
    <path d="M 341.768156 231.55425 
L 341.768156 22.71025 
" style="fill: none; stroke: #cccccc; stroke-width: 0.8; stroke-linejoin: miter; stroke-linecap: square"/>
   </g>
   <g id="patch_9">
    <path d="M 577.038156 231.55425 
L 577.038156 22.71025 
" style="fill: none; stroke: #cccccc; stroke-width: 0.8; stroke-linejoin: miter; stroke-linecap: square"/>
   </g>
   <g id="patch_10">
    <path d="M 341.768156 231.55425 
L 577.038156 231.55425 
" style="fill: none; stroke: #cccccc; stroke-width: 0.8; stroke-linejoin: miter; stroke-linecap: square"/>
   </g>
   <g id="patch_11">
    <path d="M 341.768156 22.71025 
L 577.038156 22.71025 
" style="fill: none; stroke: #cccccc; stroke-width: 0.8; stroke-linejoin: miter; stroke-linecap: square"/>
   </g>
   <g id="text_36">
    <text style="font-weight: 700; font-size: 13px; font-family: 'DejaVu Sans'; text-anchor: start; fill: #1f2933" x="311.183056" y="24.234459" transform="rotate(-0 311.183056 24.234459)">b</text>
   </g>
   <g id="text_37">
    <text style="font-size: 11.2px; font-family: 'DejaVu Sans'; text-anchor: middle; fill: #1f2933" x="459.403156" y="15.71025" transform="rotate(-0 459.403156 15.71025)">Mouse processed matrix</text>
   </g>
  </g>
  <g id="legend_1">
   <g id="text_38">
    <text style="font-size: 9.1px; font-family: 'DejaVu Sans'; text-anchor: start; fill: #262626" x="258.831969" y="317.122584" transform="rotate(-0 258.831969 317.122584)">Method (color)</text>
   </g>
   <g id="line2d_34">
    <defs>
     <path id="m575c673ef4" d="M 0 3.3 
C 0.87517 3.3 1.714614 2.952291 2.333452 2.333452 
C 2.952291 1.714614 3.3 0.87517 3.3 0 
C 3.3 -0.87517 2.952291 -1.714614 2.333452 -2.333452 
C 1.714614 -2.952291 0.87517 -3.3 0 -3.3 
C -0.87517 -3.3 -1.714614 -2.952291 -2.333452 -2.333452 
C -2.952291 -1.714614 -3.3 -0.87517 -3.3 0 
C -3.3 0.87517 -2.952291 1.714614 -2.333452 2.333452 
C -1.714614 2.952291 -0.87517 3.3 0 3.3 
z
" style="stroke: #000000; stroke-width: 0.4"/>
    </defs>
    <g>
     <use xlink:href="#m575c673ef4" x="218.761156" y="327.021725" style="fill: #66c2a5; stroke: #000000; stroke-width: 0.4"/>
    </g>
   </g>
   <g id="text_39">
    <text style="font-size: 8.8px; font-family: 'DejaVu Sans'; text-anchor: start; fill: #262626" x="234.601156" y="330.101725" transform="rotate(-0 234.601156 330.101725)">4sU</text>
   </g>
   <g id="line2d_35">
    <defs>
     <path id="mda656cb0f7" d="M 0 3.3 
C 0.87517 3.3 1.714614 2.952291 2.333452 2.333452 
C 2.952291 1.714614 3.3 0.87517 3.3 0 
C 3.3 -0.87517 2.952291 -1.714614 2.333452 -2.333452 
C 1.714614 -2.952291 0.87517 -3.3 0 -3.3 
C -0.87517 -3.3 -1.714614 -2.952291 -2.333452 -2.333452 
C -2.952291 -1.714614 -3.3 -0.87517 -3.3 0 
C -3.3 0.87517 -2.952291 1.714614 -2.333452 2.333452 
C -1.714614 2.952291 -0.87517 3.3 0 3.3 
z
" style="stroke: #000000; stroke-width: 0.4"/>
    </defs>
    <g>
     <use xlink:href="#mda656cb0f7" x="277.624906" y="327.021725" style="fill: #fc8d62; stroke: #000000; stroke-width: 0.4"/>
    </g>
   </g>
   <g id="text_40">
    <text style="font-size: 8.8px; font-family: 'DejaVu Sans'; text-anchor: start; fill: #262626" x="293.464906" y="330.101725" transform="rotate(-0 293.464906 330.101725)">5EU</text>
   </g>
   <g id="line2d_36">
    <defs>
     <path id="m46c730ebbc" d="M 0 3.3 
C 0.87517 3.3 1.714614 2.952291 2.333452 2.333452 
C 2.952291 1.714614 3.3 0.87517 3.3 0 
C 3.3 -0.87517 2.952291 -1.714614 2.333452 -2.333452 
C 1.714614 -2.952291 0.87517 -3.3 0 -3.3 
C -0.87517 -3.3 -1.714614 -2.952291 -2.333452 -2.333452 
C -2.952291 -1.714614 -3.3 -0.87517 -3.3 0 
C -3.3 0.87517 -2.952291 1.714614 -2.333452 2.333452 
C -1.714614 2.952291 -0.87517 3.3 0 3.3 
z
" style="stroke: #000000; stroke-width: 0.4"/>
    </defs>
    <g>
     <use xlink:href="#m46c730ebbc" x="337.464906" y="327.021725" style="fill: #8da0cb; stroke: #000000; stroke-width: 0.4"/>
    </g>
   </g>
   <g id="text_41">
    <text style="font-size: 8.8px; font-family: 'DejaVu Sans'; text-anchor: start; fill: #262626" x="353.304906" y="330.101725" transform="rotate(-0 353.304906 330.101725)">ActD</text>
   </g>
  </g>
  <g id="legend_2">
   <g id="text_42">
    <text style="font-size: 8.6px; font-family: 'DejaVu Sans'; text-anchor: start; fill: #262626" x="259.621734" y="362.129494" transform="rotate(-0 259.621734 362.129494)">Study (marker)</text>
   </g>
   <g id="line2d_37">
    <defs>
     <path id="ma130af9e00" d="M 0 3.05 
C 0.808869 3.05 1.584719 2.728633 2.156676 2.156676 
C 2.728633 1.584719 3.05 0.808869 3.05 0 
C 3.05 -0.808869 2.728633 -1.584719 2.156676 -2.156676 
C 1.584719 -2.728633 0.808869 -3.05 0 -3.05 
C -0.808869 -3.05 -1.584719 -2.728633 -2.156676 -2.156676 
C -2.728633 -1.584719 -3.05 -0.808869 -3.05 0 
C -3.05 0.808869 -2.728633 1.584719 -2.156676 2.156676 
C -1.584719 2.728633 -0.808869 3.05 0 3.05 
z
" style="stroke: #000000; stroke-width: 0.5"/>
    </defs>
    <g>
     <use xlink:href="#ma130af9e00" x="156.078859" y="370.923822" style="fill: #ffffff; stroke: #000000; stroke-width: 0.5"/>
    </g>
   </g>
   <g id="text_43">
    <text style="font-size: 7.7px; font-family: 'DejaVu Sans'; text-anchor: start; fill: #262626" x="166.473859" y="373.618822" transform="rotate(-0 166.473859 373.618822)">Ameres</text>
   </g>
   <g id="line2d_38">
    <defs>
     <path id="md6eff3af1d" d="M -3.05 3.05 
L 3.05 3.05 
L 3.05 -3.05 
L -3.05 -3.05 
z
" style="stroke: #000000; stroke-width: 0.5; stroke-linejoin: miter"/>
    </defs>
    <g>
     <use xlink:href="#md6eff3af1d" x="156.078859" y="382.225978" style="fill: #ffffff; stroke: #000000; stroke-width: 0.5; stroke-linejoin: miter"/>
    </g>
   </g>
   <g id="text_44">
    <text style="font-size: 7.7px; font-family: 'DejaVu Sans'; text-anchor: start; fill: #262626" x="166.473859" y="384.920978" transform="rotate(-0 166.473859 384.920978)">Bartel</text>
   </g>
   <g id="line2d_39">
    <defs>
     <path id="m84133597ed" d="M 0 -3.05 
L -3.05 3.05 
L 3.05 3.05 
z
" style="stroke: #000000; stroke-width: 0.5; stroke-linejoin: miter"/>
    </defs>
    <g>
     <use xlink:href="#m84133597ed" x="156.078859" y="393.528134" style="fill: #ffffff; stroke: #000000; stroke-width: 0.5; stroke-linejoin: miter"/>
    </g>
   </g>
   <g id="text_45">
    <text style="font-size: 7.7px; font-family: 'DejaVu Sans'; text-anchor: start; fill: #262626" x="166.473859" y="396.223134" transform="rotate(-0 166.473859 396.223134)">Bartel2</text>
   </g>
   <g id="line2d_40">
    <defs>
     <path id="mb9141a0a33" d="M -0 3.05 
L 3.05 -3.05 
L -3.05 -3.05 
z
" style="stroke: #000000; stroke-width: 0.5; stroke-linejoin: miter"/>
    </defs>
    <g>
     <use xlink:href="#mb9141a0a33" x="156.078859" y="404.830291" style="fill: #ffffff; stroke: #000000; stroke-width: 0.5; stroke-linejoin: miter"/>
    </g>
   </g>
   <g id="text_46">
    <text style="font-size: 7.7px; font-family: 'DejaVu Sans'; text-anchor: start; fill: #262626" x="166.473859" y="407.525291" transform="rotate(-0 166.473859 407.525291)">Darnell</text>
   </g>
   <g id="line2d_41">
    <defs>
     <path id="mcd82aa0a9f" d="M -0 4.313351 
L 4.313351 0 
L 0 -4.313351 
L -4.313351 -0 
z
" style="stroke: #000000; stroke-width: 0.5; stroke-linejoin: miter"/>
    </defs>
    <g>
     <use xlink:href="#mcd82aa0a9f" x="210.350625" y="370.923822" style="fill: #ffffff; stroke: #000000; stroke-width: 0.5; stroke-linejoin: miter"/>
    </g>
   </g>
   <g id="text_47">
    <text style="font-size: 7.7px; font-family: 'DejaVu Sans'; text-anchor: start; fill: #262626" x="220.745625" y="373.618822" transform="rotate(-0 220.745625 373.618822)">Dolken</text>
   </g>
   <g id="line2d_42">
    <defs>
     <path id="md78d16a25d" d="M -1.016667 3.05 
L 1.016667 3.05 
L 1.016667 1.016667 
L 3.05 1.016667 
L 3.05 -1.016667 
L 1.016667 -1.016667 
L 1.016667 -3.05 
L -1.016667 -3.05 
L -1.016667 -1.016667 
L -3.05 -1.016667 
L -3.05 1.016667 
L -1.016667 1.016667 
z
" style="stroke: #000000; stroke-width: 0.5; stroke-linejoin: miter"/>
    </defs>
    <g>
     <use xlink:href="#md78d16a25d" x="210.350625" y="382.225978" style="fill: #ffffff; stroke: #000000; stroke-width: 0.5; stroke-linejoin: miter"/>
    </g>
   </g>
   <g id="text_48">
    <text style="font-size: 7.7px; font-family: 'DejaVu Sans'; text-anchor: start; fill: #262626" x="220.745625" y="384.920978" transform="rotate(-0 220.745625 384.920978)">Hanna</text>
   </g>
   <g id="line2d_43">
    <defs>
     <path id="me5193e7d65" d="M -1.525 3.05 
L 0 1.525 
L 1.525 3.05 
L 3.05 1.525 
L 1.525 0 
L 3.05 -1.525 
L 1.525 -3.05 
L 0 -1.525 
L -1.525 -3.05 
L -3.05 -1.525 
L -1.525 0 
L -3.05 1.525 
z
" style="stroke: #000000; stroke-width: 0.5; stroke-linejoin: miter"/>
    </defs>
    <g>
     <use xlink:href="#me5193e7d65" x="210.350625" y="393.528134" style="fill: #ffffff; stroke: #000000; stroke-width: 0.5; stroke-linejoin: miter"/>
    </g>
   </g>
   <g id="text_49">
    <text style="font-size: 7.7px; font-family: 'DejaVu Sans'; text-anchor: start; fill: #262626" x="220.745625" y="396.223134" transform="rotate(-0 220.745625 396.223134)">Hu</text>
   </g>
   <g id="line2d_44">
    <defs>
     <path id="m755c7d057f" d="M 0 -3.05 
L -0.684768 -0.942502 
L -2.900722 -0.942502 
L -1.107977 0.360004 
L -1.792745 2.467502 
L -0 1.164996 
L 1.792745 2.467502 
L 1.107977 0.360004 
L 2.900722 -0.942502 
L 0.684768 -0.942502 
z
" style="stroke: #000000; stroke-width: 0.5; stroke-linejoin: bevel"/>
    </defs>
    <g>
     <use xlink:href="#m755c7d057f" x="210.350625" y="404.830291" style="fill: #ffffff; stroke: #000000; stroke-width: 0.5; stroke-linejoin: bevel"/>
    </g>
   </g>
   <g id="text_50">
    <text style="font-size: 7.7px; font-family: 'DejaVu Sans'; text-anchor: start; fill: #262626" x="220.745625" y="407.525291" transform="rotate(-0 220.745625 407.525291)">Ko</text>
   </g>
   <g id="line2d_45">
    <defs>
     <path id="mca8b64ad05" d="M -3.05 -0 
L 3.05 3.05 
L 3.05 -3.05 
z
" style="stroke: #000000; stroke-width: 0.5; stroke-linejoin: miter"/>
    </defs>
    <g>
     <use xlink:href="#mca8b64ad05" x="261.952656" y="370.923822" style="fill: #ffffff; stroke: #000000; stroke-width: 0.5; stroke-linejoin: miter"/>
    </g>
   </g>
   <g id="text_51">
    <text style="font-size: 7.7px; font-family: 'DejaVu Sans'; text-anchor: start; fill: #262626" x="272.347656" y="373.618822" transform="rotate(-0 272.347656 373.618822)">Koszinowski</text>
   </g>
   <g id="line2d_46">
    <defs>
     <path id="mefe807a6e1" d="M 3.05 0 
L -3.05 -3.05 
L -3.05 3.05 
z
" style="stroke: #000000; stroke-width: 0.5; stroke-linejoin: miter"/>
    </defs>
    <g>
     <use xlink:href="#mefe807a6e1" x="261.952656" y="382.225978" style="fill: #ffffff; stroke: #000000; stroke-width: 0.5; stroke-linejoin: miter"/>
    </g>
   </g>
   <g id="text_52">
    <text style="font-size: 7.7px; font-family: 'DejaVu Sans'; text-anchor: start; fill: #262626" x="272.347656" y="384.920978" transform="rotate(-0 272.347656 384.920978)">Mattick</text>
   </g>
   <g id="line2d_47">
    <defs>
     <path id="m563b9585af" d="M 0 -3.05 
L -2.641377 -1.525 
L -2.641377 1.525 
L -0 3.05 
L 2.641377 1.525 
L 2.641377 -1.525 
z
" style="stroke: #000000; stroke-width: 0.5; stroke-linejoin: miter"/>
    </defs>
    <g>
     <use xlink:href="#m563b9585af" x="261.952656" y="393.528134" style="fill: #ffffff; stroke: #000000; stroke-width: 0.5; stroke-linejoin: miter"/>
    </g>
   </g>
   <g id="text_53">
    <text style="font-size: 7.7px; font-family: 'DejaVu Sans'; text-anchor: start; fill: #262626" x="272.347656" y="396.223134" transform="rotate(-0 272.347656 396.223134)">Regev</text>
   </g>
   <g id="line2d_48">
    <defs>
     <path id="m6ab860ef2b" d="M -1.525 -2.641377 
L -3.05 -0 
L -1.525 2.641377 
L 1.525 2.641377 
L 3.05 0 
L 1.525 -2.641377 
z
" style="stroke: #000000; stroke-width: 0.5; stroke-linejoin: miter"/>
    </defs>
    <g>
     <use xlink:href="#m6ab860ef2b" x="333.042906" y="370.923822" style="fill: #ffffff; stroke: #000000; stroke-width: 0.5; stroke-linejoin: miter"/>
    </g>
   </g>
   <g id="text_54">
    <text style="font-size: 7.7px; font-family: 'DejaVu Sans'; text-anchor: start; fill: #262626" x="343.437906" y="373.618822" transform="rotate(-0 343.437906 373.618822)">Regev2</text>
   </g>
   <g id="line2d_49">
    <defs>
     <path id="mf7931bb056" d="M 0 -3.05 
L -2.900722 -0.942502 
L -1.792745 2.467502 
L 1.792745 2.467502 
L 2.900722 -0.942502 
z
" style="stroke: #000000; stroke-width: 0.5; stroke-linejoin: miter"/>
    </defs>
    <g>
     <use xlink:href="#mf7931bb056" x="333.042906" y="382.225978" style="fill: #ffffff; stroke: #000000; stroke-width: 0.5; stroke-linejoin: miter"/>
    </g>
   </g>
   <g id="text_55">
    <text style="font-size: 7.7px; font-family: 'DejaVu Sans'; text-anchor: start; fill: #262626" x="343.437906" y="384.920978" transform="rotate(-0 343.437906 384.920978)">Rissland2</text>
   </g>
   <g id="line2d_50">
    <defs>
     <path id="m2243eea701" d="M -1.167184 -2.817833 
L -2.817833 -1.167184 
L -2.817833 1.167184 
L -1.167184 2.817833 
L 1.167184 2.817833 
L 2.817833 1.167184 
L 2.817833 -1.167184 
L 1.167184 -2.817833 
z
" style="stroke: #000000; stroke-width: 0.5; stroke-linejoin: miter"/>
    </defs>
    <g>
     <use xlink:href="#m2243eea701" x="333.042906" y="393.528134" style="fill: #ffffff; stroke: #000000; stroke-width: 0.5; stroke-linejoin: miter"/>
    </g>
   </g>
   <g id="text_56">
    <text style="font-size: 7.7px; font-family: 'DejaVu Sans'; text-anchor: start; fill: #262626" x="343.437906" y="396.223134" transform="rotate(-0 343.437906 396.223134)">Selbach</text>
   </g>
   <g id="line2d_51">
    <defs>
     <path id="m230d9b4697" d="M -0 4.313351 
L 2.588011 0 
L -0 -4.313351 
L -2.588011 -0 
z
" style="stroke: #000000; stroke-width: 0.5; stroke-linejoin: miter"/>
    </defs>
    <g>
     <use xlink:href="#m230d9b4697" x="395.104906" y="370.923822" style="fill: #ffffff; stroke: #000000; stroke-width: 0.5; stroke-linejoin: miter"/>
    </g>
   </g>
   <g id="text_57">
    <text style="font-size: 7.7px; font-family: 'DejaVu Sans'; text-anchor: start; fill: #262626" x="405.499906" y="373.618822" transform="rotate(-0 405.499906 373.618822)">Simon</text>
   </g>
   <g id="line2d_52">
    <defs>
     <path id="mc7c26f4c83" d="M 0 0 
L 0 3.05 
M 0 0 
L 2.44 -1.525 
M 0 0 
L -2.44 -1.525 
" style="stroke: #000000; stroke-width: 0.5"/>
    </defs>
    <g>
     <use xlink:href="#mc7c26f4c83" x="395.104906" y="382.225978" style="fill: #ffffff; stroke: #000000; stroke-width: 0.5"/>
    </g>
   </g>
   <g id="text_58">
    <text style="font-size: 7.7px; font-family: 'DejaVu Sans'; text-anchor: start; fill: #262626" x="405.499906" y="384.920978" transform="rotate(-0 405.499906 384.920978)">Wilusz</text>
   </g>
   <g id="line2d_53">
    <defs>
     <path id="m00969fcf93" d="M 0 0 
L 0 -3.05 
M 0 0 
L -2.44 1.525 
M 0 0 
L 2.44 1.525 
" style="stroke: #000000; stroke-width: 0.5"/>
    </defs>
    <g>
     <use xlink:href="#m00969fcf93" x="395.104906" y="393.528134" style="fill: #ffffff; stroke: #000000; stroke-width: 0.5"/>
    </g>
   </g>
   <g id="text_59">
    <text style="font-size: 7.7px; font-family: 'DejaVu Sans'; text-anchor: start; fill: #262626" x="405.499906" y="396.223134" transform="rotate(-0 405.499906 396.223134)">Zimmer</text>
   </g>
  </g>
 </g>
 <defs>
  <clipPath id="pd8e83548e7">
   <rect x="47.328156" y="22.71025" width="235.27" height="208.844"/>
  </clipPath>
  <clipPath id="pae00ae100f">
   <rect x="341.768156" y="22.71025" width="235.27" height="208.844"/>
  </clipPath>
 </defs>
</svg>
